<svg width="1512" height="885" viewBox="0 0 1512 885" fill="none" xmlns="http://www.w3.org/2000/svg">
<g opacity="0.19">
<path opacity="0.19" d="M74.3255 13.9664C73.7809 13.5423 73.2311 13.1302 72.675 12.7305L-19.5881 101.309C-19.1679 101.839 -18.7372 102.367 -18.2982 102.893L74.3255 13.9664Z" fill="#4181E0"/>
<path opacity="0.19" d="M51.7868 2.5937C51.0206 2.37572 50.2522 2.1761 49.4808 1.98602L-30.7776 79.0402C-30.579 79.7819 -30.3709 80.5205 -30.1441 81.2542L51.7868 2.5937Z" fill="#4181E0"/>
<path opacity="0.19" d="M67.6185 9.40269C67.0112 9.03999 66.3965 8.68923 65.7756 8.35042L-24.1501 94.6853C-23.7947 95.2794 -23.4289 95.8695 -23.0536 96.4556L67.6185 9.40269Z" fill="#4181E0"/>
<path opacity="0.19" d="M60.137 5.5802C59.4565 5.28544 58.7728 5.00203 58.085 4.72995L-27.9197 87.3008C-27.6364 87.9622 -27.3416 88.6195 -27.0332 89.2709L60.137 5.5802Z" fill="#4181E0"/>
<path opacity="0.19" d="M42.3804 0.625548C41.5085 0.505418 40.6357 0.405259 39.7607 0.319351L-32.5154 69.709C-32.4255 70.549 -32.3209 71.388 -32.1965 72.224L42.3804 0.625548Z" fill="#4181E0"/>
<path opacity="0.19" d="M79.5889 18.508C79.3411 18.2694 79.0923 18.0419 78.8435 17.8112L-14.2966 107.233C-14.0552 107.472 -13.8158 107.711 -13.5712 107.949C-13.3255 108.188 -13.0736 108.415 -12.8248 108.646L80.3143 19.2238C80.0729 18.9852 79.8335 18.7418 79.5889 18.508Z" fill="#4181E0"/>
<path opacity="0.19" d="M31.5678 0C30.5402 0.0201723 29.5137 0.0647305 28.4893 0.133577L-32.7073 58.8875C-32.7784 59.871 -32.8254 60.8563 -32.8484 61.843L31.5678 0Z" fill="#4181E0"/>
<path opacity="0.19" d="M-31.2544 49.3106L18.5134 1.52707C17.1879 1.8129 15.8687 2.13897 14.5568 2.50538L-30.2373 45.5104C-30.6199 46.7681 -30.9596 48.0348 -31.2544 49.3106Z" fill="#4181E0"/>
<path opacity="0.19" d="M98.7258 67.5661C98.7948 66.5816 98.8419 65.5961 98.8649 64.6105L34.4497 126.453C35.4773 126.431 36.5038 126.387 37.5283 126.32L98.7258 67.5661Z" fill="#4181E0"/>
<path opacity="0.19" d="M98.5346 56.7463C98.4436 55.9065 98.3402 55.0674 98.2158 54.2306L23.6399 125.83C24.5107 125.949 25.3835 126.05 26.2595 126.136L98.5346 56.7463Z" fill="#4181E0"/>
<path opacity="0.19" d="M96.2558 80.9411C96.6363 79.6836 96.976 78.417 97.2729 77.1425L47.5051 124.926C48.8306 124.638 50.1488 124.311 51.4618 123.947L96.2558 80.9411Z" fill="#4181E0"/>
<path opacity="0.19" d="M66.4666 117.723C76.0712 112.265 84.0858 104.571 89.7704 95.3497L66.4666 117.723Z" fill="#4181E0"/>
<path opacity="0.19" d="M90.1675 31.7673C89.8131 31.174 89.4473 30.5844 89.072 29.9985L-1.6001 117.051C-0.992753 117.413 -0.379143 117.763 0.241792 118.103L90.1675 31.7673Z" fill="#4181E0"/>
<path opacity="0.19" d="M85.6058 25.1452C85.1856 24.6113 84.757 24.0826 84.319 23.5593L-8.30688 112.487C-7.76331 112.911 -7.21345 113.323 -6.65733 113.723L85.6058 25.1452Z" fill="#4181E0"/>
<path opacity="0.19" d="M96.7951 47.4113C96.5965 46.6716 96.3875 45.9327 96.1617 45.1986L14.2307 123.86C14.9949 124.078 15.7642 124.276 16.5347 124.467L96.7951 47.4113Z" fill="#4181E0"/>
<path opacity="0.19" d="M93.9383 39.1515C93.6539 38.4913 93.3591 37.8349 93.0508 37.1821L5.88062 120.874C6.56113 121.169 7.24477 121.455 7.93261 121.726L93.9383 39.1515Z" fill="#4181E0"/>
</g>
<g opacity="0.19">
<path opacity="0.19" d="M660.024 643.198C659.324 642.652 658.617 642.122 657.902 641.608L539.279 755.494C539.819 756.177 540.371 756.855 540.936 757.532L660.024 643.198Z" fill="#4181E0"/>
<path opacity="0.19" d="M631.046 628.575C630.061 628.295 629.073 628.039 628.081 627.794L524.892 726.864C525.147 727.817 525.415 728.767 525.706 729.711L631.046 628.575Z" fill="#4181E0"/>
<path opacity="0.19" d="M651.4 637.33C650.619 636.863 649.83 636.413 649.032 635.977L533.413 746.979C533.869 747.744 534.34 748.502 534.823 749.255L651.4 637.33Z" fill="#4181E0"/>
<path opacity="0.19" d="M641.782 632.415C640.907 632.036 640.028 631.672 639.144 631.322L528.567 737.485C528.93 738.335 529.309 739.18 529.706 740.018L641.782 632.415Z" fill="#4181E0"/>
<path opacity="0.19" d="M618.953 626.045C617.831 625.89 616.708 625.762 615.583 625.651L522.658 714.866C522.774 715.946 522.908 717.025 523.068 718.101L618.953 626.045Z" fill="#4181E0"/>
<path opacity="0.19" d="M666.792 649.037C666.472 648.73 666.152 648.438 665.833 648.141L546.082 763.112C546.392 763.419 546.7 763.726 547.015 764.032C547.33 764.339 547.654 764.631 547.973 764.928L667.723 649.957C667.414 649.65 667.106 649.337 666.792 649.037Z" fill="#4181E0"/>
<path opacity="0.19" d="M605.05 625.241C603.728 625.267 602.409 625.324 601.092 625.412L522.41 700.953C522.319 702.217 522.259 703.484 522.229 704.753L605.05 625.241Z" fill="#4181E0"/>
<path opacity="0.19" d="M524.278 688.64L588.266 627.204C586.562 627.572 584.866 627.991 583.179 628.462L525.587 683.754C525.095 685.371 524.659 687 524.278 688.64Z" fill="#4181E0"/>
<path opacity="0.19" d="M691.396 712.112C691.485 710.845 691.545 709.579 691.575 708.311L608.755 787.823C610.077 787.795 611.396 787.738 612.713 787.651L691.396 712.112Z" fill="#4181E0"/>
<path opacity="0.19" d="M691.149 698.2C691.033 697.12 690.9 696.041 690.74 694.965L594.857 787.021C595.976 787.176 597.099 787.304 598.226 787.415L691.149 698.2Z" fill="#4181E0"/>
<path opacity="0.19" d="M563.886 636.466C551.538 643.484 541.233 653.379 533.925 665.237L563.886 636.466Z" fill="#4181E0"/>
<path opacity="0.19" d="M688.219 729.307C688.71 727.691 689.145 726.063 689.528 724.424L625.541 785.859C627.244 785.489 628.94 785.07 630.627 784.601L688.219 729.307Z" fill="#4181E0"/>
<path opacity="0.19" d="M649.92 776.599C662.268 769.582 672.574 759.688 679.882 747.833L649.92 776.599Z" fill="#4181E0"/>
<path opacity="0.19" d="M680.393 666.084C679.937 665.321 679.467 664.564 678.984 663.81L562.406 775.735C563.187 776.2 563.976 776.65 564.775 777.088L680.393 666.084Z" fill="#4181E0"/>
<path opacity="0.19" d="M674.527 657.57C673.987 656.884 673.435 656.204 672.873 655.531L553.782 769.866C554.482 770.412 555.189 770.942 555.904 771.455L674.527 657.57Z" fill="#4181E0"/>
<path opacity="0.19" d="M688.913 686.198C688.658 685.247 688.39 684.297 688.099 683.353L582.759 784.488C583.742 784.768 584.731 785.024 585.722 785.27L688.913 686.198Z" fill="#4181E0"/>
<path opacity="0.19" d="M685.24 675.578C684.875 674.73 684.496 673.886 684.1 673.046L572.023 780.65C572.898 781.029 573.778 781.397 574.662 781.745L685.24 675.578Z" fill="#4181E0"/>
</g>
<path d="M850.833 138.072V151.956" stroke="#A2BADD" stroke-width="2" stroke-linecap="round" stroke-linejoin="round"/>
<path d="M858.067 145.013H843.61" stroke="#A2BADD" stroke-width="2" stroke-linecap="round" stroke-linejoin="round"/>
<path d="M384.063 397.04V410.924" stroke="#EAF1FD" stroke-width="2" stroke-linecap="round" stroke-linejoin="round"/>
<path d="M391.292 403.981H376.835" stroke="#EAF1FD" stroke-width="2" stroke-linecap="round" stroke-linejoin="round"/>
<path d="M278.228 667.594V681.479" stroke="#F87F28" stroke-width="2" stroke-linecap="round" stroke-linejoin="round"/>
<path d="M285.457 674.537H271" stroke="#F87F28" stroke-width="2" stroke-linecap="round" stroke-linejoin="round"/>
<path d="M717.039 506.927V520.812" stroke="#F87F28" stroke-width="2" stroke-linecap="round" stroke-linejoin="round"/>
<path d="M724.268 513.868H709.811" stroke="#F87F28" stroke-width="2" stroke-linecap="round" stroke-linejoin="round"/>
<path d="M1007.99 339.682V353.567" stroke="#F87F28" stroke-width="2" stroke-linecap="round" stroke-linejoin="round"/>
<path d="M1015.22 346.623H1000.77" stroke="#F87F28" stroke-width="2" stroke-linecap="round" stroke-linejoin="round"/>
<path d="M1394.85 59.323V73.2073" stroke="#F87F28" stroke-width="2" stroke-linecap="round" stroke-linejoin="round"/>
<path d="M1402.07 66.2634H1387.62" stroke="#F87F28" stroke-width="2" stroke-linecap="round" stroke-linejoin="round"/>
<path d="M151.257 302.859V316.744" stroke="#F87F28" stroke-width="2" stroke-linecap="round" stroke-linejoin="round"/>
<path d="M158.486 309.8H144.029" stroke="#F87F28" stroke-width="2" stroke-linecap="round" stroke-linejoin="round"/>
<path d="M376.835 93.9186V107.802" stroke="#BDD7FE" stroke-width="2" stroke-linecap="round" stroke-linejoin="round"/>
<path d="M384.063 100.859H369.606" stroke="#BDD7FE" stroke-width="2" stroke-linecap="round" stroke-linejoin="round"/>
<path d="M790.789 881.157V895.042" stroke="#FAFAFA" stroke-opacity="0.28" stroke-width="2" stroke-linecap="round" stroke-linejoin="round"/>
<path d="M822.055 881.157V895.042" stroke="#FAFAFA" stroke-opacity="0.28" stroke-width="2" stroke-linecap="round" stroke-linejoin="round"/>
<path d="M853.3 881.157V895.042" stroke="#FAFAFA" stroke-opacity="0.28" stroke-width="2" stroke-linecap="round" stroke-linejoin="round"/>
<path d="M848.115 646.6C848.115 646.997 847.99 647.387 847.76 647.717C847.53 648.048 847.206 648.306 846.819 648.458C846.432 648.61 846.014 648.65 845.606 648.572C845.199 648.495 844.833 648.303 844.54 648.022C844.247 647.74 844.049 647.382 843.965 646.991C843.881 646.602 843.923 646.198 844.08 645.83C844.237 645.462 844.509 645.149 844.854 644.928C845.199 644.706 845.606 644.589 846.014 644.589C846.296 644.589 846.568 644.641 846.819 644.742C847.07 644.844 847.3 644.991 847.499 645.178C847.697 645.365 847.843 645.586 847.948 645.83C848.053 646.074 848.115 646.336 848.115 646.6Z" fill="#A2BADD"/>
<path d="M862.321 646.6C862.321 646.997 862.206 647.387 861.976 647.717C861.747 648.048 861.412 648.305 861.036 648.458C860.649 648.61 860.231 648.649 859.823 648.572C859.415 648.495 859.039 648.303 858.746 648.021C858.454 647.74 858.255 647.382 858.182 646.991C858.098 646.601 858.14 646.197 858.297 645.829C858.454 645.462 858.725 645.148 859.07 644.927C859.415 644.706 859.823 644.589 860.231 644.589C860.513 644.589 860.785 644.641 861.036 644.742C861.287 644.843 861.517 644.991 861.715 645.178C861.903 645.365 862.06 645.586 862.165 645.83C862.269 646.074 862.321 646.336 862.321 646.6Z" fill="#A2BADD"/>
<path d="M876.548 646.6C876.548 646.997 876.423 647.386 876.193 647.717C875.963 648.048 875.639 648.305 875.252 648.458C874.876 648.61 874.447 648.649 874.04 648.572C873.642 648.495 873.266 648.303 872.973 648.022C872.681 647.74 872.482 647.382 872.398 646.992C872.315 646.602 872.357 646.198 872.513 645.83C872.681 645.463 872.942 645.149 873.287 644.928C873.632 644.707 874.04 644.589 874.447 644.589C874.729 644.589 875.001 644.641 875.252 644.741C875.503 644.843 875.744 644.991 875.932 645.178C876.13 645.365 876.277 645.586 876.392 645.83C876.496 646.074 876.548 646.336 876.548 646.6Z" fill="#A2BADD"/>
<path d="M848.115 660.251C848.115 660.648 847.99 661.038 847.76 661.368C847.53 661.699 847.206 661.957 846.819 662.11C846.432 662.261 846.014 662.301 845.606 662.224C845.199 662.147 844.833 661.955 844.54 661.673C844.247 661.392 844.049 661.034 843.965 660.643C843.881 660.253 843.923 659.848 844.08 659.481C844.237 659.114 844.509 658.8 844.854 658.579C845.199 658.358 845.606 658.241 846.014 658.241C846.568 658.241 847.101 658.453 847.499 658.829C847.885 659.206 848.115 659.717 848.115 660.251Z" fill="#A2BADD"/>
<path d="M862.321 660.251C862.321 660.648 862.206 661.038 861.976 661.368C861.747 661.699 861.412 661.957 861.036 662.11C860.649 662.261 860.231 662.301 859.823 662.224C859.415 662.147 859.05 661.955 858.757 661.673C858.454 661.392 858.255 661.034 858.182 660.643C858.098 660.253 858.14 659.848 858.297 659.481C858.454 659.114 858.725 658.8 859.07 658.579C859.415 658.358 859.823 658.241 860.231 658.241C860.785 658.241 861.318 658.453 861.715 658.829C862.102 659.206 862.321 659.717 862.321 660.251Z" fill="#A2BADD"/>
<path d="M876.548 660.251C876.548 660.648 876.423 661.037 876.193 661.368C875.963 661.699 875.639 661.957 875.252 662.11C874.876 662.261 874.447 662.301 874.04 662.224C873.642 662.147 873.266 661.955 872.973 661.674C872.681 661.393 872.482 661.035 872.398 660.644C872.315 660.254 872.357 659.85 872.513 659.482C872.681 659.115 872.942 658.801 873.287 658.58C873.632 658.358 874.04 658.241 874.447 658.241C874.729 658.241 875.001 658.292 875.252 658.393C875.503 658.495 875.733 658.642 875.932 658.829C876.13 659.016 876.277 659.237 876.392 659.481C876.496 659.725 876.548 659.986 876.548 660.251Z" fill="#A2BADD"/>
<path d="M848.115 673.902C848.115 674.3 847.99 674.689 847.76 675.02C847.53 675.351 847.206 675.609 846.819 675.76C846.432 675.913 846.014 675.953 845.606 675.876C845.199 675.798 844.833 675.607 844.54 675.325C844.247 675.044 844.049 674.686 843.965 674.295C843.881 673.905 843.923 673.5 844.08 673.133C844.237 672.766 844.509 672.452 844.854 672.231C845.199 672.01 845.606 671.892 846.014 671.893C846.568 671.893 847.101 672.104 847.499 672.481C847.885 672.858 848.115 673.369 848.115 673.902Z" fill="#A2BADD"/>
<path d="M862.321 673.902C862.321 674.3 862.206 674.689 861.976 675.02C861.747 675.351 861.412 675.609 861.036 675.76C860.649 675.913 860.231 675.953 859.823 675.876C859.415 675.798 859.05 675.607 858.757 675.325C858.454 675.044 858.255 674.686 858.182 674.295C858.098 673.905 858.14 673.5 858.297 673.133C858.454 672.766 858.725 672.452 859.07 672.231C859.415 672.01 859.823 671.892 860.231 671.893C860.785 671.893 861.318 672.104 861.715 672.481C862.102 672.858 862.321 673.369 862.321 673.902Z" fill="#A2BADD"/>
<path d="M876.548 673.902C876.548 674.3 876.423 674.689 876.193 675.02C875.963 675.351 875.639 675.609 875.252 675.76C874.876 675.913 874.447 675.953 874.04 675.876C873.642 675.799 873.266 675.607 872.973 675.326C872.681 675.044 872.482 674.686 872.398 674.296C872.315 673.906 872.357 673.501 872.513 673.134C872.681 672.767 872.942 672.453 873.287 672.231C873.632 672.01 874.04 671.893 874.447 671.893C874.729 671.892 875.001 671.944 875.252 672.045C875.503 672.146 875.733 672.294 875.932 672.481C876.13 672.667 876.277 672.889 876.392 673.133C876.496 673.377 876.548 673.638 876.548 673.902Z" fill="#A2BADD"/>
<path d="M7.37008 277.389C8.51682 277.389 9.44718 276.496 9.44718 275.394C9.44718 274.293 8.51682 273.4 7.37008 273.4C6.22228 273.4 5.29297 274.293 5.29297 275.394C5.29297 276.496 6.22228 277.389 7.37008 277.389Z" fill="#A2BADD"/>
<path d="M23.5458 275.394C23.5458 275.789 23.4235 276.175 23.1956 276.503C22.9667 276.831 22.6427 277.086 22.2632 277.237C21.8837 277.388 21.4656 277.428 21.0631 277.351C20.6607 277.274 20.2896 277.084 20 276.805C19.7094 276.526 19.5108 276.171 19.4313 275.783C19.3508 275.397 19.3916 274.995 19.5495 274.631C19.7063 274.267 19.9728 273.955 20.3147 273.736C20.6554 273.516 21.0579 273.4 21.4687 273.4C22.0196 273.4 22.5475 273.61 22.9374 273.984C23.3263 274.358 23.5458 274.865 23.5458 275.394Z" fill="#A2BADD"/>
<path d="M37.6476 275.394C37.6476 275.789 37.5263 276.175 37.2974 276.503C37.0695 276.831 36.7454 277.086 36.366 277.237C35.9865 277.388 35.5684 277.428 35.1659 277.351C34.7624 277.274 34.3923 277.084 34.1017 276.805C33.8111 276.526 33.6136 276.171 33.5341 275.783C33.4536 275.397 33.4944 274.995 33.6523 274.631C33.8091 274.267 34.0756 273.955 34.4164 273.736C34.7582 273.516 35.1596 273.4 35.5705 273.4C35.8433 273.4 36.114 273.451 36.366 273.551C36.6179 273.652 36.8468 273.799 37.0392 273.984C37.2325 274.17 37.3852 274.389 37.4897 274.631C37.5942 274.873 37.6476 275.132 37.6476 275.394Z" fill="#A2BADD"/>
<path d="M49.6711 277.389C50.8178 277.389 51.7482 276.496 51.7482 275.394C51.7482 274.293 50.8178 273.4 49.6711 273.4C48.5243 273.4 47.594 274.293 47.594 275.394C47.594 276.496 48.5243 277.389 49.6711 277.389Z" fill="#A2BADD"/>
<path d="M65.8477 275.394C65.8477 275.789 65.7265 276.175 65.4975 276.503C65.2696 276.831 64.9456 277.086 64.5661 277.237C64.1867 277.388 63.7685 277.428 63.3661 277.351C62.9626 277.274 62.5926 277.084 62.3019 276.805C62.0113 276.526 61.8138 276.171 61.7343 275.783C61.6538 275.397 61.6946 274.995 61.8524 274.631C62.0092 274.267 62.2758 273.955 62.6166 273.736C62.9584 273.516 63.3598 273.4 63.7707 273.4C64.0435 273.4 64.3142 273.451 64.5661 273.551C64.8181 273.652 65.047 273.798 65.2404 273.984C65.4328 274.168 65.5854 274.389 65.6899 274.631C65.7944 274.873 65.8477 275.132 65.8477 275.394Z" fill="#A2BADD"/>
<path d="M79.9474 275.394C79.9474 275.789 79.8251 276.175 79.5972 276.503C79.3683 276.831 79.0442 277.086 78.6648 277.237C78.2853 277.388 77.8672 277.428 77.4648 277.351C77.0623 277.274 76.6922 277.084 76.4016 276.805C76.111 276.526 75.9135 276.171 75.833 275.783C75.7525 275.397 75.7943 274.995 75.9511 274.631C76.1079 274.267 76.3745 273.955 76.7163 273.736C77.0581 273.516 77.4595 273.4 77.8703 273.4C78.1431 273.4 78.4129 273.451 78.6648 273.551C78.9167 273.652 79.1457 273.798 79.3391 273.984C79.5314 274.168 79.6851 274.389 79.7896 274.631C79.8931 274.873 79.9474 275.132 79.9474 275.394Z" fill="#A2BADD"/>
<path d="M9.44721 288.936C9.44721 289.331 9.32491 289.716 9.09703 290.044C8.86914 290.373 8.54404 290.628 8.16458 290.779C7.78512 290.93 7.36801 290.97 6.96451 290.892C6.56205 290.815 6.192 290.625 5.90139 290.346C5.61079 290.067 5.41321 289.712 5.33272 289.325C5.25223 288.938 5.29405 288.537 5.45085 288.173C5.60765 287.808 5.87421 287.496 6.21604 287.277C6.55787 287.059 6.95928 286.941 7.3701 286.941C7.921 286.941 8.44889 287.152 8.83776 287.526C9.22768 287.9 9.44616 288.407 9.44721 288.936Z" fill="#A2BADD"/>
<path d="M23.5458 288.936C23.5458 289.331 23.4235 289.716 23.1956 290.044C22.9667 290.373 22.6427 290.628 22.2632 290.779C21.8837 290.93 21.4656 290.97 21.0631 290.892C20.6607 290.815 20.2896 290.625 20 290.346C19.7094 290.067 19.5108 289.712 19.4313 289.325C19.3508 288.938 19.3916 288.537 19.5495 288.173C19.7063 287.808 19.9728 287.496 20.3147 287.277C20.6554 287.059 21.0579 286.941 21.4687 286.941C22.0186 286.941 22.5475 287.152 22.9364 287.526C23.3263 287.9 23.5448 288.407 23.5458 288.936Z" fill="#A2BADD"/>
<path d="M37.6476 288.936C37.6476 289.331 37.5263 289.716 37.2974 290.044C37.0695 290.373 36.7454 290.628 36.366 290.779C35.9865 290.93 35.5684 290.97 35.1659 290.892C34.7624 290.815 34.3923 290.625 34.1017 290.346C33.8111 290.067 33.6136 289.712 33.5341 289.325C33.4536 288.938 33.4944 288.537 33.6523 288.173C33.8091 287.808 34.0756 287.496 34.4164 287.277C34.7582 287.059 35.1596 286.941 35.5705 286.941C36.1213 286.941 36.6492 287.152 37.0392 287.526C37.4291 287.9 37.6476 288.407 37.6476 288.936Z" fill="#A2BADD"/>
<path d="M51.7472 288.936C51.7472 289.331 51.6249 289.716 51.3971 290.044C51.1692 290.373 50.8441 290.628 50.4646 290.779C50.0851 290.93 49.668 290.97 49.2645 290.892C48.8621 290.815 48.492 290.625 48.2014 290.346C47.9108 290.067 47.7132 289.711 47.6327 289.325C47.5533 288.937 47.5941 288.537 47.7519 288.172C47.9087 287.807 48.1753 287.496 48.5171 287.277C48.8589 287.058 49.2604 286.941 49.6712 286.941C50.2221 286.941 50.75 287.152 51.1388 287.526C51.5288 287.9 51.7472 288.407 51.7472 288.936Z" fill="#A2BADD"/>
<path d="M65.8477 288.936C65.8477 289.331 65.7265 289.716 65.4975 290.044C65.2696 290.373 64.9456 290.628 64.5661 290.779C64.1867 290.93 63.7685 290.97 63.3661 290.892C62.9626 290.815 62.5926 290.625 62.3019 290.346C62.0113 290.067 61.8138 289.712 61.7343 289.325C61.6538 288.938 61.6946 288.537 61.8524 288.173C62.0092 287.808 62.2758 287.496 62.6166 287.277C62.9584 287.059 63.3598 286.941 63.7707 286.941C64.3215 286.941 64.8505 287.151 65.2394 287.525C65.6293 287.9 65.8477 288.407 65.8477 288.936Z" fill="#A2BADD"/>
<path d="M79.9474 288.936C79.9474 289.331 79.8251 289.716 79.5972 290.044C79.3683 290.373 79.0442 290.628 78.6648 290.779C78.2853 290.93 77.8672 290.97 77.4648 290.892C77.0623 290.815 76.6922 290.625 76.4016 290.346C76.111 290.067 75.9135 289.712 75.833 289.325C75.7525 288.938 75.7943 288.537 75.9511 288.173C76.1079 287.808 76.3745 287.496 76.7163 287.277C77.0581 287.059 77.4595 286.941 77.8703 286.941C78.4212 286.941 78.9491 287.151 79.3391 287.525C79.7279 287.9 79.9474 288.407 79.9474 288.936Z" fill="#A2BADD"/>
<path d="M9.44721 302.478C9.44616 302.872 9.32385 303.258 9.09492 303.585C8.86599 303.912 8.54193 304.168 8.16142 304.317C7.78196 304.468 7.36489 304.507 6.96244 304.43C6.55998 304.353 6.18989 304.162 5.89929 303.883C5.60973 303.604 5.41216 303.249 5.33272 302.861C5.25223 302.475 5.29405 302.073 5.45085 301.709C5.6087 301.345 5.87525 301.034 6.21604 300.815C6.55787 300.596 6.95928 300.479 7.3701 300.479C7.64294 300.479 7.91367 300.531 8.1656 300.631C8.41753 300.732 8.64648 300.879 8.83987 301.065C9.03221 301.25 9.18587 301.471 9.28936 301.713C9.3939 301.956 9.44721 302.216 9.44721 302.478Z" fill="#A2BADD"/>
<path d="M23.5458 302.478C23.5448 302.872 23.4214 303.258 23.1936 303.585C22.9646 303.913 22.6395 304.168 22.2601 304.318C21.8796 304.468 21.4625 304.507 21.06 304.43C20.6576 304.352 20.2875 304.162 19.9969 303.882C19.7074 303.603 19.5098 303.248 19.4303 302.86C19.3509 302.473 19.3927 302.072 19.5506 301.708C19.7084 301.344 19.975 301.033 20.3168 300.814C20.6576 300.595 21.06 300.479 21.4709 300.479C21.7437 300.48 22.0134 300.532 22.2653 300.632C22.5172 300.733 22.7462 300.88 22.9385 301.066C23.1319 301.251 23.2845 301.471 23.388 301.714C23.4925 301.956 23.5458 302.216 23.5458 302.478Z" fill="#A2BADD"/>
<path d="M37.6476 302.478C37.6466 302.872 37.5243 303.258 37.2954 303.585C37.0675 303.912 36.7424 304.168 36.3629 304.317C35.9834 304.468 35.5653 304.507 35.1628 304.43C34.7604 304.353 34.3903 304.162 34.1008 303.883C33.8102 303.604 33.6136 303.249 33.5331 302.861C33.4537 302.475 33.4945 302.073 33.6523 301.709C33.8091 301.345 34.0757 301.034 34.4175 300.815C34.7583 300.596 35.1597 300.479 35.5705 300.479C35.8444 300.479 36.1141 300.531 36.366 300.631C36.619 300.732 36.8479 300.879 37.0403 301.065C37.2337 301.25 37.3863 301.471 37.4908 301.713C37.5953 301.956 37.6487 302.216 37.6476 302.478Z" fill="#A2BADD"/>
<path d="M51.7472 302.478C51.7462 302.872 51.6239 303.258 51.395 303.585C51.166 303.912 50.842 304.168 50.4615 304.317C50.082 304.468 49.6649 304.507 49.2625 304.43C48.859 304.353 48.49 304.162 48.1994 303.883C47.9098 303.603 47.7122 303.248 47.6327 302.861C47.5533 302.474 47.5941 302.073 47.7519 301.709C47.9098 301.345 48.1763 301.034 48.5171 300.815C48.859 300.595 49.2604 300.479 49.6712 300.479C49.944 300.479 50.2148 300.531 50.4667 300.631C50.7186 300.732 50.9476 300.879 51.141 301.065C51.3333 301.25 51.4859 301.471 51.5904 301.713C51.695 301.956 51.7483 302.216 51.7472 302.478Z" fill="#A2BADD"/>
<path d="M65.8477 302.478C65.8477 302.872 65.7265 303.258 65.4975 303.586C65.2696 303.914 64.9456 304.17 64.5661 304.32C64.1867 304.472 63.7685 304.511 63.3661 304.434C62.9626 304.358 62.5926 304.167 62.3019 303.888C62.0113 303.609 61.8138 303.254 61.7343 302.867C61.6538 302.48 61.6946 302.078 61.8524 301.714C62.0092 301.35 62.2758 301.039 62.6166 300.819C62.9584 300.6 63.3598 300.483 63.7707 300.483C64.3215 300.483 64.8505 300.693 65.2394 301.067C65.6293 301.441 65.8477 301.949 65.8477 302.478Z" fill="#A2BADD"/>
<path d="M79.9474 302.478C79.9474 302.872 79.8251 303.258 79.5972 303.586C79.3683 303.914 79.0442 304.17 78.6648 304.32C78.2853 304.472 77.8672 304.511 77.4648 304.434C77.0623 304.358 76.6922 304.167 76.4016 303.888C76.111 303.609 75.9135 303.254 75.833 302.867C75.7525 302.48 75.7943 302.078 75.9511 301.714C76.1079 301.35 76.3745 301.039 76.7163 300.819C77.0581 300.6 77.4595 300.483 77.8703 300.483C78.4212 300.483 78.9491 300.693 79.3391 301.067C79.7279 301.441 79.9474 301.949 79.9474 302.478Z" fill="#A2BADD"/>
<path d="M9.44721 316.019C9.44721 316.414 9.32491 316.799 9.09703 317.127C8.86914 317.456 8.54404 317.711 8.16458 317.862C7.78512 318.014 7.36801 318.053 6.96451 317.975C6.56205 317.899 6.192 317.708 5.90139 317.429C5.61079 317.15 5.41321 316.795 5.33272 316.409C5.25223 316.021 5.29405 315.621 5.45085 315.256C5.60765 314.891 5.87421 314.58 6.21604 314.36C6.55787 314.142 6.95928 314.024 7.3701 314.024C7.921 314.024 8.4489 314.235 8.83882 314.609C9.22769 314.983 9.44721 315.491 9.44721 316.019Z" fill="#A2BADD"/>
<path d="M23.5458 316.019C23.5458 316.414 23.4235 316.799 23.1956 317.127C22.9667 317.456 22.6427 317.711 22.2632 317.862C21.8837 318.014 21.4656 318.053 21.0631 317.975C20.6607 317.899 20.2896 317.708 20 317.429C19.7094 317.15 19.5108 316.795 19.4313 316.409C19.3508 316.021 19.3916 315.621 19.5495 315.256C19.7063 314.891 19.9728 314.58 20.3147 314.36C20.6554 314.142 21.0579 314.024 21.4687 314.024C22.0196 314.024 22.5475 314.235 22.9374 314.609C23.3263 314.983 23.5458 315.491 23.5458 316.019Z" fill="#A2BADD"/>
<path d="M37.6476 316.019C37.6476 316.414 37.5263 316.799 37.2974 317.127C37.0695 317.456 36.7454 317.711 36.366 317.862C35.9865 318.014 35.5684 318.053 35.1659 317.975C34.7624 317.899 34.3923 317.708 34.1017 317.429C33.8111 317.15 33.6136 316.795 33.5341 316.409C33.4536 316.021 33.4944 315.621 33.6523 315.256C33.8091 314.891 34.0756 314.58 34.4164 314.36C34.7582 314.142 35.1596 314.024 35.5705 314.024C35.8433 314.024 36.114 314.076 36.366 314.177C36.6179 314.277 36.8468 314.424 37.0392 314.609C37.2325 314.794 37.3852 315.014 37.4897 315.256C37.5942 315.499 37.6476 315.757 37.6476 316.019Z" fill="#A2BADD"/>
<path d="M51.7472 316.019C51.7472 316.414 51.6249 316.799 51.3971 317.127C51.1692 317.456 50.8441 317.711 50.4646 317.862C50.0851 318.014 49.668 318.053 49.2645 317.975C48.8621 317.899 48.492 317.708 48.2014 317.429C47.9108 317.15 47.7132 316.795 47.6327 316.408C47.5533 316.021 47.5941 315.62 47.7519 315.256C47.9087 314.891 48.1753 314.579 48.5171 314.36C48.8589 314.142 49.2604 314.024 49.6712 314.024C49.944 314.024 50.2137 314.076 50.4657 314.177C50.7176 314.277 50.9465 314.424 51.1399 314.609C51.3322 314.794 51.4849 315.014 51.5894 315.256C51.6939 315.499 51.7472 315.757 51.7472 316.019Z" fill="#A2BADD"/>
<path d="M65.8477 316.019C65.8477 316.414 65.7265 316.799 65.4975 317.127C65.2696 317.456 64.9456 317.711 64.5661 317.862C64.1867 318.014 63.7685 318.053 63.3661 317.975C62.9626 317.899 62.5926 317.708 62.3019 317.429C62.0113 317.15 61.8138 316.795 61.7343 316.409C61.6538 316.021 61.6946 315.621 61.8524 315.256C62.0092 314.891 62.2758 314.58 62.6166 314.36C62.9584 314.142 63.3598 314.024 63.7707 314.024C64.0435 314.024 64.3142 314.076 64.5661 314.176C64.8181 314.276 65.047 314.424 65.2404 314.608C65.4328 314.794 65.5854 315.014 65.6899 315.256C65.7944 315.498 65.8477 315.757 65.8477 316.019Z" fill="#A2BADD"/>
<path d="M79.9474 316.019C79.9474 316.414 79.8251 316.799 79.5972 317.127C79.3683 317.456 79.0442 317.711 78.6648 317.862C78.2853 318.014 77.8672 318.053 77.4648 317.975C77.0623 317.899 76.6922 317.708 76.4016 317.429C76.111 317.15 75.9135 316.795 75.833 316.409C75.7525 316.021 75.7943 315.621 75.9511 315.256C76.1079 314.891 76.3745 314.58 76.7163 314.36C77.0581 314.142 77.4595 314.024 77.8703 314.024C78.1431 314.024 78.4129 314.076 78.6648 314.176C78.9167 314.276 79.1457 314.424 79.3391 314.608C79.5314 314.794 79.6851 315.014 79.7896 315.256C79.8931 315.498 79.9474 315.757 79.9474 316.019Z" fill="#A2BADD"/>
<path d="M7.37008 331.556C8.51682 331.556 9.44718 330.663 9.44718 329.561C9.44718 328.459 8.51682 327.567 7.37008 327.567C6.22228 327.567 5.29297 328.459 5.29297 329.561C5.29297 330.663 6.22228 331.556 7.37008 331.556Z" fill="#A2BADD"/>
<path d="M23.5458 329.56C23.5458 329.954 23.4235 330.341 23.1956 330.669C22.9678 330.997 22.6437 331.253 22.2642 331.404C21.8848 331.555 21.4666 331.594 21.0642 331.518C20.6607 331.441 20.2906 331.251 20 330.972C19.7094 330.693 19.5118 330.338 19.4313 329.95C19.3508 329.564 19.3916 329.162 19.5495 328.798C19.7063 328.434 19.9728 328.122 20.3147 327.903C20.6554 327.683 21.0579 327.567 21.4687 327.567C22.0186 327.567 22.5475 327.776 22.9364 328.15C23.3263 328.524 23.5448 329.031 23.5458 329.56Z" fill="#A2BADD"/>
<path d="M37.6476 329.56C37.6476 329.954 37.5263 330.341 37.2984 330.669C37.0705 330.997 36.7454 331.253 36.366 331.404C35.9865 331.555 35.5694 331.594 35.1659 331.518C34.7635 331.441 34.3934 331.251 34.1028 330.972C33.8122 330.693 33.6136 330.338 33.5341 329.95C33.4536 329.564 33.4944 329.162 33.6523 328.798C33.8091 328.434 34.0756 328.122 34.4164 327.903C34.7582 327.683 35.1596 327.567 35.5705 327.567C36.1213 327.567 36.6492 327.776 37.0392 328.15C37.4291 328.524 37.6476 329.031 37.6476 329.56Z" fill="#A2BADD"/>
<path d="M49.6711 331.556C50.8178 331.556 51.7482 330.663 51.7482 329.561C51.7482 328.459 50.8178 327.567 49.6711 327.567C48.5243 327.567 47.594 328.459 47.594 329.561C47.594 330.663 48.5243 331.556 49.6711 331.556Z" fill="#A2BADD"/>
<path d="M65.8477 329.56C65.8477 329.954 65.7265 330.341 65.4986 330.669C65.2707 330.997 64.9456 331.253 64.5661 331.404C64.1867 331.555 63.7696 331.594 63.3661 331.518C62.9636 331.441 62.5936 331.251 62.303 330.972C62.0124 330.693 61.8138 330.338 61.7343 329.95C61.6538 329.564 61.6946 329.162 61.8524 328.798C62.0092 328.434 62.2758 328.122 62.6166 327.903C62.9584 327.683 63.3598 327.567 63.7707 327.567C64.0435 327.566 64.3142 327.618 64.5661 327.718C64.8181 327.818 65.047 327.965 65.2394 328.15C65.4327 328.335 65.5854 328.555 65.6899 328.797C65.7944 329.039 65.8477 329.298 65.8477 329.56Z" fill="#A2BADD"/>
<path d="M79.9474 329.56C79.9474 329.954 79.8251 330.341 79.5972 330.669C79.3693 330.997 79.0453 331.253 78.6658 331.404C78.2864 331.555 77.8682 331.594 77.4658 331.518C77.0623 331.441 76.6922 331.251 76.4016 330.972C76.111 330.693 75.9135 330.338 75.833 329.95C75.7525 329.564 75.7943 329.162 75.9511 328.798C76.1079 328.434 76.3745 328.122 76.7163 327.903C77.0571 327.683 77.4595 327.567 77.8703 327.567C78.1431 327.566 78.4129 327.618 78.6648 327.718C78.9167 327.818 79.1457 327.965 79.3391 328.15C79.5314 328.335 79.684 328.555 79.7885 328.797C79.8931 329.039 79.9474 329.298 79.9474 329.56Z" fill="#A2BADD"/>
<path d="M1299.45 24.8676C1299.45 25.2207 1299.35 25.5658 1299.14 25.8594C1298.94 26.1528 1298.65 26.3816 1298.3 26.5167C1297.97 26.6518 1297.59 26.6871 1297.24 26.6183C1296.87 26.5494 1296.54 26.3794 1296.27 26.1298C1296.02 25.8801 1295.85 25.5621 1295.77 25.2159C1295.7 24.8696 1295.73 24.5107 1295.88 24.1846C1296.01 23.8584 1296.25 23.5797 1296.56 23.3835C1296.87 23.1874 1297.23 23.0827 1297.59 23.0827C1298.08 23.0827 1298.56 23.2708 1298.91 23.6055C1299.25 23.9403 1299.45 24.3942 1299.45 24.8676Z" fill="#A2BADD"/>
<path d="M1310.21 26.6526C1311.23 26.6526 1312.07 25.8534 1312.07 24.8676C1312.07 23.8819 1311.23 23.0827 1310.21 23.0827C1309.19 23.0827 1308.35 23.8819 1308.35 24.8676C1308.35 25.8534 1309.19 26.6526 1310.21 26.6526Z" fill="#A2BADD"/>
<path d="M1324.69 24.8676C1324.69 25.2207 1324.58 25.5658 1324.37 25.8594C1324.16 26.1529 1323.88 26.3817 1323.54 26.5168C1323.2 26.6519 1322.83 26.6872 1322.46 26.6183C1322.11 26.5493 1321.77 26.3792 1321.51 26.1295C1321.26 25.8797 1321.08 25.5616 1321.01 25.2154C1320.93 24.869 1320.97 24.5101 1321.11 24.184C1321.25 23.8578 1321.49 23.5791 1321.79 23.3831C1322.11 23.1871 1322.46 23.0825 1322.83 23.0827C1323.08 23.0827 1323.32 23.1289 1323.54 23.2186C1323.77 23.3083 1323.97 23.4398 1324.14 23.6056C1324.31 23.7713 1324.46 23.9681 1324.54 24.1847C1324.63 24.4012 1324.69 24.6333 1324.69 24.8676Z" fill="#A2BADD"/>
<path d="M1337.3 24.8676C1337.3 25.2207 1337.2 25.5658 1336.99 25.8594C1336.79 26.1528 1336.5 26.3816 1336.16 26.5167C1335.82 26.6518 1335.44 26.6871 1335.09 26.6183C1334.72 26.5494 1334.39 26.3794 1334.13 26.1298C1333.88 25.8801 1333.7 25.5621 1333.63 25.2159C1333.55 24.8696 1333.58 24.5107 1333.73 24.1846C1333.87 23.8584 1334.11 23.5797 1334.41 23.3835C1334.72 23.1874 1335.08 23.0827 1335.44 23.0827C1335.7 23.0826 1335.94 23.1287 1336.16 23.2183C1336.38 23.308 1336.58 23.4395 1336.76 23.6053C1336.93 23.771 1337.07 23.9679 1337.16 24.1845C1337.25 24.401 1337.3 24.6333 1337.3 24.8676Z" fill="#A2BADD"/>
<path d="M1348.06 26.6526C1349.09 26.6526 1349.92 25.8534 1349.92 24.8676C1349.92 23.8819 1349.09 23.0827 1348.06 23.0827C1347.04 23.0827 1346.2 23.8819 1346.2 24.8676C1346.2 25.8534 1347.04 26.6526 1348.06 26.6526Z" fill="#A2BADD"/>
<path d="M1362.54 24.8676C1362.54 25.2207 1362.43 25.5658 1362.23 25.8594C1362.03 26.1528 1361.73 26.3816 1361.39 26.5167C1361.05 26.6518 1360.68 26.6871 1360.32 26.6183C1359.96 26.5494 1359.62 26.3794 1359.36 26.1298C1359.11 25.8801 1358.93 25.5621 1358.86 25.2159C1358.79 24.8696 1358.82 24.5107 1358.96 24.1846C1359.1 23.8584 1359.34 23.5797 1359.64 23.3835C1359.96 23.1874 1360.31 23.0827 1360.68 23.0827C1361.17 23.0827 1361.65 23.2708 1362 23.6055C1362.34 23.9403 1362.54 24.3942 1362.54 24.8676Z" fill="#A2BADD"/>
<path d="M1375.16 24.8676C1375.16 25.2207 1375.05 25.5658 1374.84 25.8594C1374.64 26.1528 1374.35 26.3816 1374.01 26.5167C1373.67 26.6518 1373.3 26.6871 1372.94 26.6183C1372.57 26.5494 1372.24 26.3794 1371.99 26.1298C1371.73 25.8801 1371.55 25.5621 1371.48 25.2159C1371.4 24.8696 1371.45 24.5107 1371.58 24.1846C1371.72 23.8584 1371.96 23.5797 1372.26 23.3835C1372.57 23.1874 1372.93 23.0827 1373.3 23.0827C1373.79 23.0827 1374.27 23.2708 1374.61 23.6055C1374.96 23.9403 1375.16 24.3942 1375.16 24.8676Z" fill="#A2BADD"/>
<path d="M1312.07 36.9853C1312.07 37.3383 1311.97 37.6834 1311.76 37.977C1311.55 38.2705 1311.26 38.4992 1310.92 38.6343C1310.59 38.7695 1310.21 38.8048 1309.85 38.7359C1309.49 38.667 1309.15 38.497 1308.89 38.2474C1308.64 37.9978 1308.46 37.6798 1308.39 37.3335C1308.32 36.9872 1308.35 36.6283 1308.5 36.3022C1308.63 35.9761 1308.87 35.6973 1309.17 35.5012C1309.49 35.305 1309.84 35.2003 1310.21 35.2003C1310.7 35.2006 1311.18 35.3887 1311.53 35.7234C1311.87 36.0581 1312.07 36.5119 1312.07 36.9853Z" fill="#A2BADD"/>
<path d="M1324.69 36.9853C1324.69 37.3384 1324.58 37.6835 1324.37 37.9771C1324.16 38.2706 1323.88 38.4993 1323.54 38.6344C1323.2 38.7695 1322.83 38.8048 1322.46 38.7359C1322.11 38.6669 1321.77 38.4968 1321.51 38.2471C1321.26 37.9974 1321.08 37.6793 1321.01 37.333C1320.93 36.9866 1320.97 36.6277 1321.11 36.3016C1321.25 35.9755 1321.49 35.6968 1321.79 35.5007C1322.11 35.3047 1322.46 35.2001 1322.83 35.2003C1323.32 35.2006 1323.8 35.3887 1324.14 35.7235C1324.49 36.0582 1324.69 36.512 1324.69 36.9853Z" fill="#A2BADD"/>
<path d="M1337.3 36.9853C1337.3 37.3383 1337.2 37.6834 1336.99 37.977C1336.79 38.2705 1336.5 38.4992 1336.16 38.6343C1335.82 38.7695 1335.44 38.8048 1335.09 38.7359C1334.72 38.667 1334.39 38.497 1334.13 38.2474C1333.88 37.9978 1333.7 37.6798 1333.63 37.3335C1333.55 36.9872 1333.58 36.6283 1333.73 36.3022C1333.87 35.9761 1334.11 35.6973 1334.41 35.5012C1334.72 35.305 1335.08 35.2003 1335.44 35.2003C1335.94 35.2003 1336.42 35.3884 1336.76 35.7231C1337.11 36.0579 1337.3 36.5119 1337.3 36.9853Z" fill="#A2BADD"/>
<path d="M1349.92 36.9853C1349.92 37.3383 1349.82 37.6834 1349.61 37.977C1349.4 38.2705 1349.12 38.4992 1348.77 38.6343C1348.44 38.7695 1348.06 38.8048 1347.71 38.7359C1347.34 38.667 1347.01 38.497 1346.74 38.2474C1346.49 37.9978 1346.32 37.6798 1346.24 37.3335C1346.17 36.9872 1346.2 36.6283 1346.35 36.3022C1346.48 35.9761 1346.72 35.6973 1347.03 35.5012C1347.34 35.305 1347.7 35.2003 1348.06 35.2003C1348.55 35.2003 1349.03 35.3884 1349.38 35.7231C1349.72 36.0579 1349.92 36.5119 1349.92 36.9853Z" fill="#A2BADD"/>
<path d="M1362.54 36.9853C1362.54 37.3383 1362.43 37.6834 1362.23 37.977C1362.03 38.2705 1361.73 38.4992 1361.39 38.6343C1361.05 38.7695 1360.68 38.8048 1360.32 38.7359C1359.96 38.667 1359.62 38.497 1359.36 38.2474C1359.11 37.9978 1358.93 37.6798 1358.86 37.3335C1358.79 36.9872 1358.82 36.6283 1358.96 36.3022C1359.1 35.9761 1359.34 35.6973 1359.64 35.5012C1359.96 35.305 1360.31 35.2003 1360.68 35.2003C1361.17 35.2006 1361.65 35.3887 1362 35.7234C1362.34 36.0581 1362.54 36.5119 1362.54 36.9853Z" fill="#A2BADD"/>
<path d="M1375.16 36.9853C1375.16 37.3383 1375.05 37.6834 1374.84 37.977C1374.64 38.2705 1374.35 38.4992 1374.01 38.6343C1373.67 38.7695 1373.3 38.8048 1372.94 38.7359C1372.57 38.667 1372.24 38.497 1371.99 38.2474C1371.73 37.9978 1371.55 37.6798 1371.48 37.3335C1371.4 36.9872 1371.45 36.6283 1371.58 36.3022C1371.72 35.9761 1371.96 35.6973 1372.26 35.5012C1372.57 35.305 1372.93 35.2003 1373.3 35.2003C1373.79 35.2006 1374.27 35.3887 1374.61 35.7234C1374.96 36.0581 1375.16 36.5119 1375.16 36.9853Z" fill="#A2BADD"/>
<path d="M1387.77 36.9853C1387.77 37.3384 1387.67 37.6835 1387.46 37.9771C1387.26 38.2706 1386.97 38.4993 1386.62 38.6344C1386.29 38.7695 1385.91 38.8048 1385.56 38.7359C1385.19 38.6669 1384.86 38.4968 1384.6 38.2471C1384.35 37.9974 1384.17 37.6793 1384.09 37.333C1384.02 36.9866 1384.06 36.6277 1384.2 36.3016C1384.33 35.9755 1384.58 35.6968 1384.89 35.5007C1385.19 35.3047 1385.55 35.2001 1385.91 35.2003C1386.4 35.2006 1386.89 35.3887 1387.23 35.7235C1387.58 36.0582 1387.77 36.512 1387.77 36.9853Z" fill="#A2BADD"/>
<path d="M1128.44 754.166C1128.43 755.153 1128.13 756.118 1127.57 756.938C1126.99 757.758 1126.18 758.398 1125.24 758.775C1124.28 759.153 1123.24 759.251 1122.23 759.058C1121.22 758.865 1120.29 758.39 1119.57 757.692C1118.84 756.994 1118.35 756.105 1118.15 755.137C1117.95 754.169 1118.05 753.166 1118.44 752.254C1118.84 751.343 1119.51 750.563 1120.35 750.015C1121.21 749.467 1122.21 749.174 1123.24 749.174C1123.93 749.174 1124.6 749.303 1125.24 749.554C1125.86 749.805 1126.44 750.172 1126.92 750.636C1127.4 751.1 1127.79 751.65 1128.05 752.256C1128.31 752.861 1128.44 753.51 1128.44 754.166Z" stroke="#EAF1FD" stroke-miterlimit="10"/>
<path d="M1163.73 754.166C1163.73 755.153 1163.42 756.119 1162.85 756.94C1162.28 757.76 1161.47 758.4 1160.52 758.778C1159.56 759.155 1158.52 759.255 1157.52 759.062C1156.5 758.869 1155.58 758.394 1154.85 757.696C1154.13 756.998 1153.63 756.108 1153.43 755.14C1153.23 754.172 1153.33 753.167 1153.72 752.256C1154.12 751.344 1154.79 750.564 1155.63 750.015C1156.49 749.466 1157.5 749.174 1158.53 749.174C1159.91 749.174 1161.23 749.7 1162.2 750.636C1163.18 751.572 1163.73 752.842 1163.73 754.166Z" stroke="#EAF1FD" stroke-miterlimit="10"/>
<path d="M1199.01 754.166C1199.01 755.153 1198.7 756.119 1198.14 756.94C1197.56 757.76 1196.75 758.4 1195.8 758.778C1194.85 759.155 1193.8 759.255 1192.8 759.062C1191.79 758.869 1190.86 758.394 1190.13 757.696C1189.41 756.998 1188.91 756.108 1188.71 755.14C1188.51 754.172 1188.61 753.167 1189.01 752.256C1189.4 751.344 1190.07 750.564 1190.93 750.015C1191.78 749.466 1192.79 749.174 1193.81 749.174C1194.49 749.174 1195.17 749.302 1195.8 749.553C1196.43 749.804 1197.01 750.171 1197.49 750.635C1197.97 751.099 1198.36 751.65 1198.62 752.255C1198.87 752.861 1199.01 753.51 1199.01 754.166Z" stroke="#EAF1FD" stroke-miterlimit="10"/>
<path d="M1128.43 788.052C1128.43 789.038 1128.13 790.003 1127.57 790.824C1126.99 791.644 1126.18 792.283 1125.23 792.66C1124.28 793.038 1123.24 793.136 1122.23 792.943C1121.22 792.751 1120.29 792.275 1119.57 791.577C1118.84 790.88 1118.35 789.991 1118.15 789.022C1117.95 788.055 1118.04 787.051 1118.44 786.139C1118.84 785.228 1119.5 784.449 1120.35 783.9C1121.21 783.352 1122.21 783.059 1123.24 783.059C1123.93 783.059 1124.6 783.188 1125.24 783.439C1125.86 783.69 1126.44 784.058 1126.92 784.521C1127.4 784.985 1127.79 785.536 1128.05 786.141C1128.31 786.747 1128.43 787.396 1128.43 788.052Z" stroke="#EAF1FD" stroke-miterlimit="10"/>
<path d="M1163.73 788.052C1163.73 789.039 1163.42 790.004 1162.85 790.825C1162.28 791.646 1161.47 792.286 1160.52 792.663C1159.56 793.042 1158.52 793.14 1157.52 792.948C1156.5 792.756 1155.58 792.28 1154.85 791.582C1154.13 790.883 1153.63 789.994 1153.43 789.025C1153.23 788.057 1153.33 787.053 1153.72 786.141C1154.12 785.229 1154.79 784.449 1155.63 783.901C1156.49 783.352 1157.5 783.059 1158.53 783.059C1159.91 783.059 1161.23 783.585 1162.2 784.521C1163.18 785.458 1163.73 786.727 1163.73 788.052Z" stroke="#EAF1FD" stroke-miterlimit="10"/>
<path d="M1199.01 788.052C1199.01 789.039 1198.7 790.004 1198.14 790.825C1197.56 791.646 1196.75 792.286 1195.8 792.663C1194.85 793.042 1193.8 793.14 1192.8 792.948C1191.79 792.756 1190.86 792.28 1190.13 791.582C1189.41 790.883 1188.91 789.994 1188.71 789.025C1188.51 788.057 1188.61 787.053 1189.01 786.141C1189.4 785.229 1190.07 784.449 1190.93 783.901C1191.78 783.352 1192.79 783.059 1193.81 783.059C1194.49 783.059 1195.17 783.188 1195.8 783.439C1196.43 783.689 1197.01 784.057 1197.49 784.521C1197.97 784.985 1198.36 785.535 1198.62 786.141C1198.87 786.746 1199.01 787.395 1199.01 788.052Z" stroke="#EAF1FD" stroke-miterlimit="10"/>
<path d="M1307.86 194.78C1307.86 195.589 1307.61 196.381 1307.14 197.054C1306.67 197.727 1306.01 198.251 1305.22 198.561C1304.44 198.871 1303.58 198.951 1302.76 198.793C1301.93 198.635 1301.18 198.245 1300.57 197.672C1299.98 197.1 1299.58 196.371 1299.41 195.577C1299.24 194.783 1299.33 193.96 1299.65 193.211C1299.98 192.464 1300.52 191.824 1301.22 191.374C1301.92 190.924 1302.75 190.683 1303.59 190.683C1304.15 190.683 1304.7 190.789 1305.22 190.994C1305.74 191.2 1306.22 191.502 1306.6 191.883C1307 192.263 1307.31 192.715 1307.53 193.211C1307.74 193.709 1307.86 194.242 1307.86 194.78Z" stroke="#F87F28" stroke-miterlimit="10"/>
<path d="M1336.82 194.78C1336.82 195.59 1336.57 196.382 1336.1 197.055C1335.63 197.73 1334.96 198.254 1334.19 198.565C1333.41 198.875 1332.55 198.955 1331.72 198.797C1330.9 198.639 1330.13 198.249 1329.54 197.676C1328.94 197.103 1328.53 196.374 1328.37 195.579C1328.21 194.784 1328.29 193.961 1328.62 193.212C1328.93 192.464 1329.49 191.823 1330.19 191.374C1330.89 190.923 1331.71 190.683 1332.56 190.683C1333.69 190.683 1334.78 191.115 1335.57 191.883C1336.37 192.651 1336.82 193.693 1336.82 194.78Z" stroke="#F87F28" stroke-miterlimit="10"/>
<path d="M1365.78 194.78C1365.78 195.59 1365.53 196.382 1365.07 197.055C1364.6 197.73 1363.93 198.254 1363.15 198.565C1362.37 198.875 1361.51 198.955 1360.69 198.797C1359.85 198.639 1359.1 198.249 1358.5 197.676C1357.91 197.103 1357.5 196.374 1357.33 195.579C1357.17 194.784 1357.25 193.961 1357.57 193.212C1357.9 192.464 1358.44 191.823 1359.14 191.374C1359.85 190.923 1360.68 190.683 1361.51 190.683C1362.64 190.683 1363.73 191.115 1364.54 191.883C1365.33 192.651 1365.78 193.693 1365.78 194.78Z" stroke="#F87F28" stroke-miterlimit="10"/>
<path d="M1394.76 194.78C1394.76 195.59 1394.51 196.382 1394.04 197.055C1393.57 197.73 1392.9 198.254 1392.12 198.565C1391.34 198.875 1390.48 198.955 1389.66 198.797C1388.83 198.639 1388.07 198.249 1387.47 197.676C1386.88 197.103 1386.47 196.374 1386.3 195.579C1386.14 194.784 1386.23 193.961 1386.55 193.212C1386.86 192.464 1387.42 191.823 1388.12 191.374C1388.82 190.923 1389.65 190.683 1390.49 190.683C1391.05 190.683 1391.6 190.79 1392.12 190.995C1392.64 191.201 1393.11 191.502 1393.5 191.883C1393.9 192.264 1394.21 192.715 1394.43 193.212C1394.64 193.709 1394.76 194.242 1394.76 194.78Z" stroke="#F87F28" stroke-miterlimit="10"/>
<path d="M1423.72 194.78C1423.72 195.59 1423.47 196.382 1423 197.055C1422.53 197.73 1421.86 198.254 1421.09 198.565C1420.31 198.875 1419.45 198.955 1418.62 198.797C1417.8 198.639 1417.03 198.248 1416.44 197.675C1415.84 197.102 1415.43 196.373 1415.27 195.578C1415.1 194.783 1415.18 193.959 1415.51 193.21C1415.83 192.462 1416.39 191.822 1417.09 191.373C1417.79 190.923 1418.61 190.683 1419.46 190.683C1420.01 190.683 1420.57 190.79 1421.09 190.995C1421.6 191.201 1422.07 191.503 1422.47 191.884C1422.87 192.264 1423.18 192.716 1423.4 193.212C1423.61 193.709 1423.72 194.242 1423.72 194.78Z" stroke="#F87F28" stroke-miterlimit="10"/>
<path d="M1307.86 222.587C1307.86 223.397 1307.61 224.188 1307.14 224.862C1306.67 225.535 1306.01 226.059 1305.22 226.369C1304.45 226.679 1303.59 226.761 1302.76 226.603C1301.93 226.445 1301.18 226.055 1300.58 225.483C1299.98 224.911 1299.58 224.181 1299.41 223.387C1299.24 222.593 1299.33 221.77 1299.65 221.022C1299.98 220.273 1300.52 219.634 1301.22 219.183C1301.92 218.734 1302.75 218.493 1303.59 218.493C1304.15 218.492 1304.7 218.598 1305.22 218.804C1305.74 219.01 1306.21 219.311 1306.6 219.691C1307 220.072 1307.31 220.523 1307.53 221.02C1307.74 221.517 1307.86 222.049 1307.86 222.587Z" stroke="#F87F28" stroke-miterlimit="10"/>
<path d="M1336.82 222.587C1336.82 223.398 1336.57 224.189 1336.1 224.864C1335.63 225.537 1334.97 226.063 1334.19 226.373C1333.41 226.683 1332.55 226.765 1331.72 226.607C1330.9 226.449 1330.13 226.059 1329.54 225.486C1328.94 224.914 1328.53 224.183 1328.37 223.388C1328.21 222.595 1328.29 221.771 1328.62 221.022C1328.93 220.273 1329.49 219.633 1330.19 219.183C1330.89 218.733 1331.71 218.493 1332.56 218.493C1333.69 218.493 1334.78 218.923 1335.57 219.691C1336.37 220.459 1336.82 221.501 1336.82 222.587Z" stroke="#F87F28" stroke-miterlimit="10"/>
<path d="M1365.78 222.587C1365.78 223.398 1365.54 224.189 1365.07 224.864C1364.6 225.537 1363.93 226.063 1363.16 226.373C1362.37 226.683 1361.51 226.765 1360.69 226.607C1359.86 226.449 1359.1 226.059 1358.5 225.486C1357.91 224.914 1357.5 224.183 1357.33 223.388C1357.17 222.595 1357.25 221.771 1357.57 221.022C1357.9 220.273 1358.44 219.633 1359.14 219.183C1359.85 218.733 1360.68 218.493 1361.51 218.493C1362.64 218.493 1363.73 218.923 1364.54 219.691C1365.33 220.459 1365.78 221.501 1365.78 222.587Z" stroke="#F87F28" stroke-miterlimit="10"/>
<path d="M1394.76 222.587C1394.76 223.398 1394.51 224.189 1394.04 224.864C1393.57 225.537 1392.91 226.063 1392.12 226.373C1391.34 226.683 1390.48 226.765 1389.66 226.607C1388.83 226.449 1388.07 226.059 1387.47 225.486C1386.88 224.914 1386.47 224.183 1386.3 223.388C1386.14 222.595 1386.23 221.771 1386.55 221.022C1386.86 220.273 1387.42 219.633 1388.12 219.183C1388.82 218.733 1389.65 218.493 1390.49 218.493C1391.62 218.493 1392.71 218.923 1393.5 219.691C1394.31 220.459 1394.76 221.501 1394.76 222.587Z" stroke="#F87F28" stroke-miterlimit="10"/>
<path d="M1423.72 222.587C1423.72 223.398 1423.47 224.189 1423 224.864C1422.53 225.537 1421.86 226.063 1421.09 226.373C1420.31 226.683 1419.45 226.765 1418.62 226.607C1417.8 226.448 1417.03 226.059 1416.44 225.486C1415.84 224.913 1415.43 224.182 1415.27 223.387C1415.1 222.593 1415.18 221.769 1415.51 221.02C1415.83 220.272 1416.39 219.632 1417.09 219.182C1417.79 218.732 1418.61 218.492 1419.46 218.493C1420.59 218.493 1421.67 218.923 1422.47 219.692C1423.27 220.46 1423.72 221.501 1423.72 222.587Z" stroke="#F87F28" stroke-miterlimit="10"/>
<path d="M1307.86 250.396C1307.86 251.206 1307.61 251.997 1307.14 252.67C1306.67 253.343 1306.01 253.868 1305.22 254.177C1304.44 254.487 1303.58 254.568 1302.76 254.41C1301.93 254.252 1301.18 253.862 1300.57 253.29C1299.98 252.717 1299.58 251.987 1299.41 251.193C1299.24 250.399 1299.33 249.576 1299.65 248.829C1299.98 248.08 1300.52 247.441 1301.22 246.991C1301.92 246.54 1302.75 246.301 1303.59 246.3C1304.15 246.3 1304.7 246.405 1305.22 246.611C1305.74 246.816 1306.22 247.118 1306.6 247.499C1307 247.879 1307.31 248.331 1307.53 248.829C1307.74 249.325 1307.86 249.858 1307.86 250.396Z" stroke="#F87F28" stroke-miterlimit="10"/>
<path d="M1336.82 250.396C1336.82 251.206 1336.57 251.998 1336.1 252.672C1335.63 253.346 1334.96 253.871 1334.19 254.181C1333.41 254.491 1332.55 254.572 1331.72 254.414C1330.9 254.256 1330.13 253.866 1329.54 253.293C1328.94 252.72 1328.53 251.99 1328.37 251.195C1328.21 250.4 1328.29 249.577 1328.62 248.829C1328.93 248.08 1329.49 247.441 1330.19 246.99C1330.89 246.54 1331.71 246.3 1332.56 246.3C1333.69 246.3 1334.78 246.731 1335.57 247.5C1336.37 248.268 1336.82 249.309 1336.82 250.396Z" stroke="#F87F28" stroke-miterlimit="10"/>
<path d="M1365.78 250.396C1365.78 251.206 1365.53 251.998 1365.07 252.672C1364.6 253.346 1363.93 253.871 1363.15 254.181C1362.37 254.491 1361.51 254.572 1360.69 254.414C1359.85 254.256 1359.1 253.866 1358.5 253.293C1357.91 252.72 1357.5 251.99 1357.33 251.195C1357.17 250.4 1357.25 249.577 1357.57 248.829C1357.9 248.08 1358.44 247.441 1359.14 246.99C1359.85 246.54 1360.68 246.3 1361.51 246.3C1362.64 246.3 1363.73 246.731 1364.54 247.5C1365.33 248.268 1365.78 249.309 1365.78 250.396Z" stroke="#F87F28" stroke-miterlimit="10"/>
<path d="M1394.76 250.396C1394.76 251.206 1394.51 251.998 1394.04 252.672C1393.57 253.346 1392.9 253.871 1392.12 254.181C1391.34 254.491 1390.48 254.572 1389.66 254.414C1388.83 254.256 1388.07 253.866 1387.47 253.293C1386.88 252.72 1386.47 251.99 1386.3 251.195C1386.14 250.4 1386.23 249.577 1386.55 248.829C1386.86 248.08 1387.42 247.441 1388.12 246.99C1388.82 246.54 1389.65 246.3 1390.49 246.3C1391.05 246.3 1391.6 246.406 1392.12 246.612C1392.64 246.817 1393.11 247.12 1393.5 247.5C1393.9 247.88 1394.21 248.332 1394.43 248.829C1394.64 249.325 1394.76 249.858 1394.76 250.396Z" stroke="#F87F28" stroke-miterlimit="10"/>
<path d="M1423.72 250.396C1423.72 251.206 1423.47 251.999 1423 252.672C1422.53 253.346 1421.86 253.871 1421.09 254.181C1420.31 254.491 1419.45 254.572 1418.62 254.414C1417.8 254.255 1417.03 253.865 1416.44 253.292C1415.84 252.719 1415.43 251.989 1415.27 251.194C1415.1 250.399 1415.18 249.575 1415.51 248.827C1415.83 248.079 1416.39 247.439 1417.09 246.989C1417.79 246.539 1418.61 246.3 1419.46 246.3C1420.01 246.3 1420.57 246.406 1421.09 246.612C1421.6 246.817 1422.07 247.12 1422.47 247.5C1422.87 247.88 1423.18 248.332 1423.4 248.829C1423.61 249.325 1423.72 249.858 1423.72 250.396Z" stroke="#F87F28" stroke-miterlimit="10"/>
<path d="M1307.86 278.206C1307.86 279.015 1307.61 279.807 1307.14 280.479C1306.67 281.152 1306.01 281.677 1305.22 281.987C1304.44 282.297 1303.58 282.377 1302.76 282.219C1301.93 282.061 1301.18 281.671 1300.57 281.098C1299.98 280.526 1299.58 279.797 1299.41 279.003C1299.24 278.209 1299.33 277.386 1299.65 276.637C1299.98 275.89 1300.52 275.25 1301.22 274.8C1301.92 274.35 1302.75 274.109 1303.59 274.109C1304.72 274.109 1305.81 274.541 1306.6 275.309C1307.41 276.077 1307.86 277.119 1307.86 278.206Z" stroke="#F87F28" stroke-miterlimit="10"/>
<path d="M1336.82 278.206C1336.82 279.016 1336.57 279.808 1336.1 280.481C1335.63 281.156 1334.96 281.68 1334.19 281.991C1333.41 282.301 1332.55 282.381 1331.72 282.223C1330.9 282.065 1330.13 281.675 1329.54 281.102C1328.94 280.529 1328.53 279.8 1328.37 279.005C1328.21 278.21 1328.29 277.386 1328.62 276.638C1328.93 275.89 1329.49 275.249 1330.19 274.8C1330.89 274.349 1331.71 274.109 1332.56 274.109C1333.69 274.109 1334.78 274.542 1335.57 275.31C1336.37 276.077 1336.82 277.119 1336.82 278.206Z" stroke="#F87F28" stroke-miterlimit="10"/>
<path d="M1365.78 278.206C1365.78 279.016 1365.53 279.808 1365.07 280.481C1364.6 281.156 1363.93 281.68 1363.15 281.991C1362.37 282.301 1361.51 282.381 1360.69 282.223C1359.85 282.065 1359.1 281.675 1358.5 281.102C1357.91 280.529 1357.5 279.8 1357.33 279.005C1357.17 278.21 1357.25 277.386 1357.57 276.638C1357.9 275.89 1358.44 275.249 1359.14 274.8C1359.85 274.349 1360.68 274.109 1361.51 274.109C1362.64 274.109 1363.73 274.542 1364.54 275.31C1365.33 276.077 1365.78 277.119 1365.78 278.206Z" stroke="#F87F28" stroke-miterlimit="10"/>
<path d="M1394.76 278.206C1394.76 279.016 1394.51 279.808 1394.04 280.481C1393.57 281.156 1392.9 281.68 1392.12 281.991C1391.34 282.301 1390.48 282.381 1389.66 282.223C1388.83 282.065 1388.07 281.675 1387.47 281.102C1386.88 280.529 1386.47 279.8 1386.3 279.005C1386.14 278.21 1386.23 277.386 1386.55 276.638C1386.86 275.89 1387.42 275.249 1388.12 274.8C1388.82 274.349 1389.65 274.109 1390.49 274.109C1391.62 274.109 1392.71 274.542 1393.5 275.31C1394.31 276.077 1394.76 277.119 1394.76 278.206Z" stroke="#F87F28" stroke-miterlimit="10"/>
<path d="M1423.72 278.206C1423.72 279.016 1423.47 279.808 1423 280.482C1422.53 281.155 1421.86 281.68 1421.09 281.991C1420.31 282.301 1419.45 282.381 1418.62 282.223C1417.8 282.065 1417.03 281.674 1416.44 281.101C1415.84 280.528 1415.43 279.799 1415.27 279.004C1415.1 278.209 1415.18 277.385 1415.51 276.636C1415.83 275.888 1416.39 275.248 1417.09 274.799C1417.79 274.349 1418.61 274.109 1419.46 274.109C1420.59 274.109 1421.67 274.542 1422.47 275.31C1423.27 276.078 1423.72 277.119 1423.72 278.206Z" stroke="#F87F28" stroke-miterlimit="10"/>
<path d="M1307.86 306.015C1307.86 306.824 1307.61 307.616 1307.14 308.289C1306.67 308.962 1306.01 309.486 1305.22 309.796C1304.44 310.105 1303.58 310.186 1302.76 310.029C1301.93 309.87 1301.18 309.481 1300.57 308.908C1299.98 308.336 1299.58 307.606 1299.41 306.812C1299.24 306.019 1299.33 305.195 1299.65 304.447C1299.98 303.699 1300.52 303.06 1301.22 302.609C1301.92 302.16 1302.75 301.919 1303.59 301.919C1304.72 301.919 1305.81 302.35 1306.6 303.118C1307.41 303.887 1307.86 304.929 1307.86 306.015Z" stroke="#F87F28" stroke-miterlimit="10"/>
<path d="M1336.82 306.015C1336.82 306.825 1336.57 307.617 1336.1 308.291C1335.63 308.964 1334.96 309.489 1334.19 309.799C1333.41 310.109 1332.55 310.191 1331.72 310.033C1330.9 309.874 1330.13 309.484 1329.54 308.912C1328.94 308.339 1328.53 307.608 1328.37 306.814C1328.21 306.02 1328.29 305.196 1328.62 304.447C1328.93 303.699 1329.49 303.059 1330.19 302.609C1330.89 302.159 1331.71 301.919 1332.56 301.919C1333.69 301.919 1334.78 302.35 1335.57 303.119C1336.37 303.887 1336.82 304.929 1336.82 306.015Z" stroke="#F87F28" stroke-miterlimit="10"/>
<path d="M1365.78 306.015C1365.78 306.825 1365.53 307.617 1365.07 308.291C1364.6 308.964 1363.93 309.489 1363.15 309.799C1362.37 310.109 1361.51 310.191 1360.69 310.033C1359.85 309.874 1359.1 309.484 1358.5 308.912C1357.91 308.339 1357.5 307.608 1357.33 306.814C1357.17 306.02 1357.25 305.196 1357.57 304.447C1357.9 303.699 1358.44 303.059 1359.14 302.609C1359.85 302.159 1360.68 301.919 1361.51 301.919C1362.64 301.919 1363.73 302.35 1364.54 303.119C1365.33 303.887 1365.78 304.929 1365.78 306.015Z" stroke="#F87F28" stroke-miterlimit="10"/>
<path d="M1394.76 306.015C1394.76 306.825 1394.51 307.617 1394.04 308.291C1393.57 308.964 1392.9 309.489 1392.12 309.799C1391.34 310.109 1390.48 310.191 1389.66 310.033C1388.83 309.874 1388.07 309.484 1387.47 308.912C1386.88 308.339 1386.47 307.608 1386.3 306.814C1386.14 306.02 1386.23 305.196 1386.55 304.447C1386.86 303.699 1387.42 303.059 1388.12 302.609C1388.82 302.159 1389.65 301.919 1390.49 301.919C1391.62 301.919 1392.71 302.35 1393.5 303.119C1394.31 303.887 1394.76 304.929 1394.76 306.015Z" stroke="#F87F28" stroke-miterlimit="10"/>
<path d="M1423.72 306.015C1423.72 306.825 1423.47 307.617 1423 308.291C1422.53 308.965 1421.86 309.49 1421.09 309.8C1420.31 310.109 1419.45 310.19 1418.62 310.032C1417.8 309.874 1417.03 309.484 1416.44 308.911C1415.84 308.338 1415.43 307.607 1415.27 306.812C1415.1 306.018 1415.18 305.195 1415.51 304.446C1415.83 303.697 1416.39 303.058 1417.09 302.608C1417.79 302.158 1418.61 301.918 1419.46 301.919C1420.59 301.919 1421.67 302.35 1422.47 303.119C1423.27 303.887 1423.72 304.929 1423.72 306.015Z" stroke="#F87F28" stroke-miterlimit="10"/>
<g opacity="0.29">
<path opacity="0.29" d="M853.331 667.246C854.544 667.246 855.537 666.299 855.537 665.129C855.537 663.96 854.544 663.013 853.331 663.013C852.108 663.013 851.126 663.96 851.126 665.129C851.126 666.299 852.108 667.246 853.331 667.246Z" fill="#F89300"/>
<path opacity="0.29" d="M882.089 667.246C883.302 667.246 884.284 666.299 884.284 665.129C884.284 663.96 883.302 663.013 882.089 663.013C880.866 663.013 879.883 663.96 879.883 665.129C879.883 666.299 880.866 667.246 882.089 667.246Z" fill="#F89300"/>
<path opacity="0.29" d="M910.836 667.246C912.059 667.246 913.041 666.299 913.041 665.129C913.041 663.96 912.059 663.013 910.836 663.013C909.623 663.013 908.641 663.96 908.641 665.129C908.641 666.299 909.623 667.246 910.836 667.246Z" fill="#F89300"/>
<path opacity="0.29" d="M939.593 667.246C940.816 667.246 941.799 666.299 941.799 665.129C941.799 663.96 940.816 663.013 939.593 663.013C938.381 663.013 937.387 663.96 937.387 665.129C937.387 666.299 938.381 667.246 939.593 667.246Z" fill="#F89300"/>
<path opacity="0.29" d="M853.332 694.613C854.544 694.613 855.537 693.666 855.537 692.496C855.537 691.327 854.544 690.38 853.332 690.38C852.109 690.38 851.126 691.327 851.126 692.496C851.126 693.666 852.109 694.613 853.332 694.613Z" fill="#F89300"/>
<path opacity="0.29" d="M882.089 694.613C883.302 694.613 884.284 693.666 884.284 692.496C884.284 691.327 883.302 690.38 882.089 690.38C880.866 690.38 879.883 691.327 879.883 692.496C879.883 693.666 880.866 694.613 882.089 694.613Z" fill="#F89300"/>
<path opacity="0.29" d="M910.836 694.613C912.059 694.613 913.041 693.666 913.041 692.496C913.041 691.327 912.059 690.38 910.836 690.38C909.623 690.38 908.641 691.327 908.641 692.496C908.641 693.666 909.623 694.613 910.836 694.613Z" fill="#F89300"/>
<path opacity="0.29" d="M939.593 694.613C940.816 694.613 941.799 693.666 941.799 692.496C941.799 691.327 940.816 690.38 939.593 690.38C938.381 690.38 937.387 691.327 937.387 692.496C937.387 693.666 938.381 694.613 939.593 694.613Z" fill="#F89300"/>
<path opacity="0.29" d="M855.537 719.864C855.537 720.282 855.401 720.691 855.161 721.04C854.921 721.388 854.576 721.659 854.168 721.82C853.771 721.979 853.321 722.021 852.903 721.94C852.474 721.858 852.077 721.657 851.774 721.361C851.46 721.065 851.251 720.687 851.168 720.277C851.084 719.866 851.126 719.441 851.293 719.054C851.46 718.667 851.743 718.336 852.109 718.104C852.464 717.871 852.893 717.747 853.332 717.747C853.917 717.747 854.471 717.97 854.889 718.367C855.297 718.765 855.537 719.302 855.537 719.864Z" fill="#F89300"/>
<path opacity="0.29" d="M884.284 719.864C884.284 720.282 884.159 720.691 883.918 721.04C883.678 721.388 883.333 721.659 882.925 721.82C882.528 721.979 882.078 722.021 881.65 721.94C881.232 721.858 880.835 721.657 880.521 721.361C880.218 721.065 880.009 720.687 879.925 720.277C879.841 719.866 879.883 719.441 880.051 719.054C880.218 718.667 880.5 718.336 880.855 718.104C881.221 717.871 881.65 717.747 882.089 717.747C882.674 717.747 883.228 717.97 883.647 718.367C884.054 718.765 884.284 719.302 884.284 719.864Z" fill="#F89300"/>
<path opacity="0.29" d="M913.042 719.864C913.042 720.282 912.916 720.691 912.676 721.04C912.435 721.388 912.09 721.659 911.683 721.82C911.285 721.979 910.836 722.021 910.407 721.94C909.979 721.858 909.592 721.657 909.278 721.361C908.975 721.065 908.766 720.687 908.682 720.277C908.599 719.866 908.641 719.441 908.808 719.054C908.975 718.667 909.257 718.336 909.613 718.104C909.979 717.871 910.407 717.747 910.836 717.747C911.421 717.747 911.986 717.97 912.404 718.367C912.812 718.765 913.042 719.302 913.042 719.864Z" fill="#F89300"/>
<path opacity="0.29" d="M941.799 719.864C941.799 720.282 941.673 720.691 941.433 721.04C941.182 721.388 940.848 721.659 940.44 721.82C940.032 721.979 939.593 722.021 939.165 721.94C938.736 721.858 938.349 721.657 938.036 721.361C937.732 721.065 937.523 720.687 937.429 720.277C937.346 719.866 937.388 719.441 937.555 719.054C937.722 718.667 938.004 718.336 938.37 718.104C938.736 717.871 939.165 717.747 939.593 717.747C939.886 717.747 940.168 717.802 940.44 717.908C940.712 718.015 940.952 718.17 941.151 718.367C941.36 718.564 941.527 718.797 941.632 719.054C941.747 719.311 941.799 719.586 941.799 719.864Z" fill="#F89300"/>
<path opacity="0.29" d="M855.537 747.233C855.537 747.651 855.401 748.061 855.161 748.409C854.921 748.756 854.576 749.028 854.168 749.188C853.771 749.348 853.321 749.389 852.893 749.308C852.474 749.226 852.077 749.024 851.774 748.728C851.46 748.432 851.251 748.055 851.168 747.644C851.084 747.234 851.126 746.808 851.293 746.422C851.46 746.035 851.743 745.704 852.109 745.472C852.464 745.239 852.893 745.115 853.332 745.115C853.614 745.115 853.907 745.17 854.168 745.277C854.44 745.383 854.68 745.538 854.889 745.735C855.088 745.932 855.255 746.166 855.37 746.423C855.475 746.68 855.537 746.955 855.537 747.233Z" fill="#F89300"/>
<path opacity="0.29" d="M884.284 747.233C884.284 747.651 884.159 748.061 883.918 748.409C883.678 748.756 883.333 749.028 882.925 749.188C882.528 749.348 882.078 749.389 881.65 749.308C881.221 749.226 880.835 749.024 880.521 748.728C880.218 748.432 880.009 748.055 879.925 747.644C879.841 747.234 879.883 746.808 880.051 746.422C880.218 746.035 880.5 745.704 880.855 745.472C881.221 745.239 881.65 745.115 882.089 745.115C882.371 745.115 882.664 745.17 882.925 745.277C883.197 745.383 883.437 745.538 883.647 745.735C883.845 745.932 884.012 746.166 884.117 746.423C884.232 746.68 884.284 746.955 884.284 747.233Z" fill="#F89300"/>
<path opacity="0.29" d="M913.042 747.233C913.042 747.651 912.916 748.061 912.676 748.409C912.435 748.756 912.09 749.028 911.683 749.188C911.285 749.348 910.836 749.389 910.407 749.308C909.979 749.226 909.592 749.024 909.278 748.728C908.975 748.432 908.766 748.055 908.682 747.644C908.599 747.234 908.641 746.808 908.808 746.422C908.975 746.035 909.257 745.704 909.613 745.472C909.979 745.239 910.407 745.115 910.836 745.115C911.421 745.116 911.986 745.339 912.404 745.736C912.812 746.133 913.042 746.672 913.042 747.233Z" fill="#F89300"/>
<path opacity="0.29" d="M941.799 747.233C941.799 747.651 941.673 748.061 941.433 748.409C941.182 748.756 940.837 749.028 940.44 749.188C940.032 749.348 939.593 749.389 939.165 749.308C938.736 749.226 938.349 749.024 938.036 748.728C937.732 748.432 937.523 748.055 937.429 747.644C937.346 747.234 937.388 746.808 937.555 746.422C937.722 746.035 938.004 745.704 938.37 745.472C938.736 745.239 939.165 745.115 939.593 745.115C939.886 745.115 940.168 745.17 940.44 745.277C940.712 745.383 940.952 745.538 941.151 745.735C941.36 745.932 941.527 746.166 941.632 746.423C941.747 746.68 941.799 746.955 941.799 747.233Z" fill="#F89300"/>
</g>
<g opacity="0.29">
<path opacity="0.29" d="M965.184 667.246C966.396 667.246 967.39 666.299 967.39 665.129C967.39 663.96 966.396 663.013 965.184 663.013C963.961 663.013 962.978 663.96 962.978 665.129C962.978 666.299 963.961 667.246 965.184 667.246Z" fill="#F89300"/>
<path opacity="0.29" d="M993.94 667.246C995.153 667.246 996.136 666.299 996.136 665.129C996.136 663.96 995.153 663.013 993.94 663.013C992.717 663.013 991.735 663.96 991.735 665.129C991.735 666.299 992.717 667.246 993.94 667.246Z" fill="#F89300"/>
<path opacity="0.29" d="M1022.69 667.246C1023.91 667.246 1024.89 666.299 1024.89 665.129C1024.89 663.96 1023.91 663.013 1022.69 663.013C1021.47 663.013 1020.49 663.96 1020.49 665.129C1020.49 666.299 1021.47 667.246 1022.69 667.246Z" fill="#F89300"/>
<path opacity="0.29" d="M1051.44 667.246C1052.67 667.246 1053.65 666.299 1053.65 665.129C1053.65 663.96 1052.67 663.013 1051.44 663.013C1050.23 663.013 1049.24 663.96 1049.24 665.129C1049.24 666.299 1050.23 667.246 1051.44 667.246Z" fill="#F89300"/>
<path opacity="0.29" d="M965.183 694.613C966.396 694.613 967.389 693.666 967.389 692.496C967.389 691.327 966.396 690.38 965.183 690.38C963.96 690.38 962.978 691.327 962.978 692.496C962.978 693.666 963.96 694.613 965.183 694.613Z" fill="#F89300"/>
<path opacity="0.29" d="M993.94 694.613C995.153 694.613 996.136 693.666 996.136 692.496C996.136 691.327 995.153 690.38 993.94 690.38C992.717 690.38 991.735 691.327 991.735 692.496C991.735 693.666 992.717 694.613 993.94 694.613Z" fill="#F89300"/>
<path opacity="0.29" d="M1022.69 694.613C1023.91 694.613 1024.89 693.666 1024.89 692.496C1024.89 691.327 1023.91 690.38 1022.69 690.38C1021.47 690.38 1020.49 691.327 1020.49 692.496C1020.49 693.666 1021.47 694.613 1022.69 694.613Z" fill="#F89300"/>
<path opacity="0.29" d="M1051.44 694.613C1052.67 694.613 1053.65 693.666 1053.65 692.496C1053.65 691.327 1052.67 690.38 1051.44 690.38C1050.23 690.38 1049.24 691.327 1049.24 692.496C1049.24 693.666 1050.23 694.613 1051.44 694.613Z" fill="#F89300"/>
<path opacity="0.29" d="M967.389 719.864C967.389 720.282 967.253 720.691 967.012 721.04C966.772 721.388 966.427 721.659 966.019 721.82C965.622 721.979 965.173 722.021 964.754 721.94C964.326 721.858 963.929 721.657 963.626 721.361C963.312 721.065 963.103 720.687 963.019 720.277C962.936 719.866 962.978 719.441 963.145 719.054C963.312 718.667 963.594 718.336 963.96 718.104C964.315 717.871 964.744 717.747 965.183 717.747C965.768 717.747 966.322 717.97 966.741 718.367C967.148 718.765 967.389 719.302 967.389 719.864Z" fill="#F89300"/>
<path opacity="0.29" d="M996.136 719.864C996.136 720.282 996.01 720.691 995.77 721.04C995.529 721.388 995.184 721.659 994.777 721.82C994.38 721.979 993.93 722.021 993.501 721.94C993.083 721.858 992.686 721.657 992.372 721.361C992.069 721.065 991.86 720.687 991.777 720.277C991.693 719.866 991.735 719.441 991.902 719.054C992.069 718.667 992.351 718.336 992.707 718.104C993.073 717.871 993.501 717.747 993.94 717.747C994.526 717.747 995.08 717.97 995.498 718.367C995.906 718.765 996.136 719.302 996.136 719.864Z" fill="#F89300"/>
<path opacity="0.29" d="M1024.89 719.864C1024.89 720.282 1024.77 720.691 1024.53 721.04C1024.29 721.388 1023.94 721.659 1023.53 721.82C1023.14 721.979 1022.69 722.021 1022.26 721.94C1021.83 721.858 1021.44 721.657 1021.13 721.361C1020.83 721.065 1020.62 720.687 1020.53 720.277C1020.45 719.866 1020.49 719.441 1020.66 719.054C1020.83 718.667 1021.11 718.336 1021.46 718.104C1021.83 717.871 1022.26 717.747 1022.69 717.747C1023.27 717.747 1023.84 717.97 1024.26 718.367C1024.66 718.765 1024.89 719.302 1024.89 719.864Z" fill="#F89300"/>
<path opacity="0.29" d="M1053.65 719.864C1053.65 720.282 1053.53 720.691 1053.28 721.04C1053.03 721.388 1052.7 721.659 1052.29 721.82C1051.88 721.979 1051.44 722.021 1051.02 721.94C1050.59 721.858 1050.2 721.657 1049.89 721.361C1049.58 721.065 1049.38 720.687 1049.28 720.277C1049.2 719.866 1049.24 719.441 1049.41 719.054C1049.57 718.667 1049.86 718.336 1050.22 718.104C1050.59 717.871 1051.02 717.747 1051.44 717.747C1051.74 717.747 1052.02 717.802 1052.29 717.908C1052.56 718.015 1052.8 718.17 1053 718.367C1053.21 718.564 1053.38 718.797 1053.48 719.054C1053.6 719.311 1053.65 719.586 1053.65 719.864Z" fill="#F89300"/>
<path opacity="0.29" d="M967.389 747.233C967.389 747.651 967.253 748.061 967.012 748.409C966.772 748.756 966.427 749.028 966.019 749.188C965.622 749.348 965.173 749.389 964.744 749.308C964.326 749.226 963.929 749.024 963.626 748.728C963.312 748.432 963.103 748.055 963.019 747.644C962.936 747.234 962.978 746.808 963.145 746.422C963.312 746.035 963.594 745.704 963.96 745.472C964.315 745.239 964.744 745.115 965.183 745.115C965.465 745.115 965.758 745.17 966.019 745.277C966.291 745.383 966.532 745.538 966.741 745.735C966.939 745.932 967.106 746.166 967.221 746.423C967.326 746.68 967.389 746.955 967.389 747.233Z" fill="#F89300"/>
<path opacity="0.29" d="M996.136 747.233C996.136 747.651 996.01 748.061 995.77 748.409C995.529 748.756 995.184 749.028 994.777 749.188C994.38 749.348 993.93 749.389 993.501 749.308C993.073 749.226 992.686 749.024 992.372 748.728C992.069 748.432 991.86 748.055 991.777 747.644C991.693 747.234 991.735 746.808 991.902 746.422C992.069 746.035 992.351 745.704 992.707 745.472C993.073 745.239 993.501 745.115 993.94 745.115C994.223 745.115 994.515 745.17 994.777 745.277C995.049 745.383 995.289 745.538 995.498 745.735C995.697 745.932 995.864 746.166 995.968 746.423C996.083 746.68 996.136 746.955 996.136 747.233Z" fill="#F89300"/>
<path opacity="0.29" d="M1024.89 747.233C1024.89 747.651 1024.77 748.061 1024.53 748.409C1024.29 748.756 1023.94 749.028 1023.53 749.188C1023.14 749.348 1022.69 749.389 1022.26 749.308C1021.83 749.226 1021.44 749.024 1021.13 748.728C1020.83 748.432 1020.62 748.055 1020.53 747.644C1020.45 747.234 1020.49 746.808 1020.66 746.422C1020.83 746.035 1021.11 745.704 1021.46 745.472C1021.83 745.239 1022.26 745.115 1022.69 745.115C1023.27 745.116 1023.84 745.339 1024.26 745.736C1024.66 746.133 1024.89 746.672 1024.89 747.233Z" fill="#F89300"/>
<path opacity="0.29" d="M1053.65 747.233C1053.65 747.651 1053.53 748.061 1053.28 748.409C1053.03 748.756 1052.69 749.028 1052.29 749.188C1051.88 749.348 1051.44 749.389 1051.02 749.308C1050.59 749.226 1050.2 749.024 1049.89 748.728C1049.58 748.432 1049.38 748.055 1049.28 747.644C1049.2 747.234 1049.24 746.808 1049.41 746.422C1049.57 746.035 1049.86 745.704 1050.22 745.472C1050.59 745.239 1051.02 745.115 1051.44 745.115C1051.74 745.115 1052.02 745.17 1052.29 745.277C1052.56 745.383 1052.8 745.538 1053 745.735C1053.21 745.932 1053.38 746.166 1053.48 746.423C1053.6 746.68 1053.65 746.955 1053.65 747.233Z" fill="#F89300"/>
</g>
<g opacity="0.29">
<path opacity="0.29" d="M1077.04 667.246C1078.25 667.246 1079.24 666.299 1079.24 665.129C1079.24 663.96 1078.25 663.013 1077.04 663.013C1075.81 663.013 1074.83 663.96 1074.83 665.129C1074.83 666.299 1075.81 667.246 1077.04 667.246Z" fill="#F89300"/>
<path opacity="0.29" d="M1105.79 667.246C1107.01 667.246 1107.99 666.299 1107.99 665.129C1107.99 663.96 1107.01 663.013 1105.79 663.013C1104.57 663.013 1103.59 663.96 1103.59 665.129C1103.59 666.299 1104.57 667.246 1105.79 667.246Z" fill="#F89300"/>
<path opacity="0.29" d="M1134.54 667.246C1135.76 667.246 1136.74 666.299 1136.74 665.129C1136.74 663.96 1135.76 663.013 1134.54 663.013C1133.33 663.013 1132.34 663.96 1132.34 665.129C1132.34 666.299 1133.33 667.246 1134.54 667.246Z" fill="#F89300"/>
<path opacity="0.29" d="M1163.3 667.246C1164.52 667.246 1165.5 666.299 1165.5 665.129C1165.5 663.96 1164.52 663.013 1163.3 663.013C1162.08 663.013 1161.09 663.96 1161.09 665.129C1161.09 666.299 1162.08 667.246 1163.3 667.246Z" fill="#F89300"/>
<path opacity="0.29" d="M1077.04 694.613C1078.25 694.613 1079.24 693.666 1079.24 692.496C1079.24 691.327 1078.25 690.38 1077.04 690.38C1075.81 690.38 1074.83 691.327 1074.83 692.496C1074.83 693.666 1075.81 694.613 1077.04 694.613Z" fill="#F89300"/>
<path opacity="0.29" d="M1105.79 694.613C1107.01 694.613 1107.99 693.666 1107.99 692.496C1107.99 691.327 1107.01 690.38 1105.79 690.38C1104.57 690.38 1103.59 691.327 1103.59 692.496C1103.59 693.666 1104.57 694.613 1105.79 694.613Z" fill="#F89300"/>
<path opacity="0.29" d="M1134.54 694.613C1135.76 694.613 1136.74 693.666 1136.74 692.496C1136.74 691.327 1135.76 690.38 1134.54 690.38C1133.33 690.38 1132.34 691.327 1132.34 692.496C1132.34 693.666 1133.33 694.613 1134.54 694.613Z" fill="#F89300"/>
<path opacity="0.29" d="M1163.3 694.613C1164.52 694.613 1165.5 693.666 1165.5 692.496C1165.5 691.327 1164.52 690.38 1163.3 690.38C1162.08 690.38 1161.09 691.327 1161.09 692.496C1161.09 693.666 1162.08 694.613 1163.3 694.613Z" fill="#F89300"/>
<path opacity="0.29" d="M1079.24 719.864C1079.24 720.282 1079.1 720.691 1078.86 721.04C1078.62 721.388 1078.28 721.659 1077.87 721.82C1077.47 721.979 1077.02 722.021 1076.61 721.94C1076.18 721.858 1075.78 721.657 1075.48 721.361C1075.16 721.065 1074.95 720.687 1074.87 720.277C1074.79 719.866 1074.83 719.441 1075 719.054C1075.16 718.667 1075.45 718.336 1075.81 718.104C1076.17 717.871 1076.6 717.747 1077.04 717.747C1077.62 717.747 1078.17 717.97 1078.59 718.367C1079 718.765 1079.24 719.302 1079.24 719.864Z" fill="#F89300"/>
<path opacity="0.29" d="M1107.99 719.864C1107.99 720.282 1107.86 720.691 1107.62 721.04C1107.38 721.388 1107.04 721.659 1106.63 721.82C1106.23 721.979 1105.78 722.021 1105.35 721.94C1104.94 721.858 1104.54 721.657 1104.22 721.361C1103.92 721.065 1103.71 720.687 1103.63 720.277C1103.55 719.866 1103.59 719.441 1103.75 719.054C1103.92 718.667 1104.2 718.336 1104.56 718.104C1104.92 717.871 1105.35 717.747 1105.79 717.747C1106.38 717.747 1106.93 717.97 1107.35 718.367C1107.76 718.765 1107.99 719.302 1107.99 719.864Z" fill="#F89300"/>
<path opacity="0.29" d="M1136.75 719.864C1136.75 720.282 1136.62 720.691 1136.38 721.04C1136.14 721.388 1135.79 721.659 1135.39 721.82C1134.99 721.979 1134.54 722.021 1134.11 721.94C1133.68 721.858 1133.3 721.657 1132.98 721.361C1132.68 721.065 1132.47 720.687 1132.39 720.277C1132.3 719.866 1132.34 719.441 1132.51 719.054C1132.68 718.667 1132.96 718.336 1133.32 718.104C1133.68 717.871 1134.11 717.747 1134.54 717.747C1135.13 717.747 1135.69 717.97 1136.11 718.367C1136.52 718.765 1136.75 719.302 1136.75 719.864Z" fill="#F89300"/>
<path opacity="0.29" d="M1165.5 719.864C1165.5 720.282 1165.38 720.691 1165.14 721.04C1164.89 721.388 1164.55 721.659 1164.14 721.82C1163.74 721.979 1163.3 722.021 1162.87 721.94C1162.44 721.858 1162.05 721.657 1161.74 721.361C1161.44 721.065 1161.23 720.687 1161.13 720.277C1161.05 719.866 1161.09 719.441 1161.26 719.054C1161.43 718.667 1161.71 718.336 1162.07 718.104C1162.44 717.871 1162.87 717.747 1163.3 717.747C1163.59 717.747 1163.87 717.802 1164.14 717.908C1164.42 718.015 1164.66 718.17 1164.85 718.367C1165.06 718.564 1165.23 718.797 1165.34 719.054C1165.45 719.311 1165.5 719.586 1165.5 719.864Z" fill="#F89300"/>
<path opacity="0.29" d="M1079.24 747.233C1079.24 747.651 1079.1 748.061 1078.86 748.409C1078.62 748.756 1078.28 749.028 1077.87 749.188C1077.47 749.348 1077.02 749.389 1076.6 749.308C1076.18 749.226 1075.78 749.024 1075.48 748.728C1075.16 748.432 1074.95 748.055 1074.87 747.644C1074.79 747.234 1074.83 746.808 1075 746.422C1075.16 746.035 1075.45 745.704 1075.81 745.472C1076.17 745.239 1076.6 745.115 1077.04 745.115C1077.32 745.115 1077.61 745.17 1077.87 745.277C1078.14 745.383 1078.38 745.538 1078.59 745.735C1078.79 745.932 1078.96 746.166 1079.07 746.423C1079.18 746.68 1079.24 746.955 1079.24 747.233Z" fill="#F89300"/>
<path opacity="0.29" d="M1107.99 747.233C1107.99 747.651 1107.86 748.061 1107.62 748.409C1107.38 748.756 1107.04 749.028 1106.63 749.188C1106.23 749.348 1105.78 749.389 1105.35 749.308C1104.92 749.226 1104.54 749.024 1104.22 748.728C1103.92 748.432 1103.71 748.055 1103.63 747.644C1103.55 747.234 1103.59 746.808 1103.75 746.422C1103.92 746.035 1104.2 745.704 1104.56 745.472C1104.92 745.239 1105.35 745.115 1105.79 745.115C1106.07 745.115 1106.37 745.17 1106.63 745.277C1106.9 745.383 1107.14 745.538 1107.35 745.735C1107.55 745.932 1107.72 746.166 1107.82 746.423C1107.94 746.68 1107.99 746.955 1107.99 747.233Z" fill="#F89300"/>
<path opacity="0.29" d="M1136.75 747.233C1136.75 747.651 1136.62 748.061 1136.38 748.409C1136.14 748.756 1135.79 749.028 1135.39 749.188C1134.99 749.348 1134.54 749.389 1134.11 749.308C1133.68 749.226 1133.3 749.024 1132.98 748.728C1132.68 748.432 1132.47 748.055 1132.39 747.644C1132.3 747.234 1132.34 746.808 1132.51 746.422C1132.68 746.035 1132.96 745.704 1133.32 745.472C1133.68 745.239 1134.11 745.115 1134.54 745.115C1135.13 745.116 1135.69 745.339 1136.11 745.736C1136.52 746.133 1136.75 746.672 1136.75 747.233Z" fill="#F89300"/>
<path opacity="0.29" d="M1165.5 747.233C1165.5 747.651 1165.38 748.061 1165.14 748.409C1164.89 748.756 1164.54 749.028 1164.14 749.188C1163.74 749.348 1163.3 749.389 1162.87 749.308C1162.44 749.226 1162.05 749.024 1161.74 748.728C1161.44 748.432 1161.23 748.055 1161.13 747.644C1161.05 747.234 1161.09 746.808 1161.26 746.422C1161.43 746.035 1161.71 745.704 1162.07 745.472C1162.44 745.239 1162.87 745.115 1163.3 745.115C1163.59 745.115 1163.87 745.17 1164.14 745.277C1164.42 745.383 1164.66 745.538 1164.85 745.735C1165.06 745.932 1165.23 746.166 1165.34 746.423C1165.45 746.68 1165.5 746.955 1165.5 747.233Z" fill="#F89300"/>
</g>
<g opacity="0.29">
<path opacity="0.29" d="M853.331 774.631C854.544 774.631 855.537 773.683 855.537 772.514C855.537 771.345 854.544 770.398 853.331 770.398C852.108 770.398 851.126 771.345 851.126 772.514C851.126 773.683 852.108 774.631 853.331 774.631Z" fill="#F89300"/>
<path opacity="0.29" d="M882.089 774.631C883.302 774.631 884.284 773.683 884.284 772.514C884.284 771.345 883.302 770.398 882.089 770.398C880.866 770.398 879.883 771.345 879.883 772.514C879.883 773.683 880.866 774.631 882.089 774.631Z" fill="#F89300"/>
<path opacity="0.29" d="M910.836 774.631C912.059 774.631 913.041 773.683 913.041 772.514C913.041 771.345 912.059 770.398 910.836 770.398C909.623 770.398 908.641 771.345 908.641 772.514C908.641 773.683 909.623 774.631 910.836 774.631Z" fill="#F89300"/>
<path opacity="0.29" d="M939.593 774.631C940.816 774.631 941.799 773.683 941.799 772.514C941.799 771.345 940.816 770.398 939.593 770.398C938.381 770.398 937.387 771.345 937.387 772.514C937.387 773.683 938.381 774.631 939.593 774.631Z" fill="#F89300"/>
<path opacity="0.29" d="M853.332 801.998C854.544 801.998 855.537 801.051 855.537 799.881C855.537 798.712 854.544 797.765 853.332 797.765C852.109 797.765 851.126 798.712 851.126 799.881C851.126 801.051 852.109 801.998 853.332 801.998Z" fill="#F89300"/>
<path opacity="0.29" d="M882.089 801.998C883.302 801.998 884.284 801.051 884.284 799.881C884.284 798.712 883.302 797.765 882.089 797.765C880.866 797.765 879.883 798.712 879.883 799.881C879.883 801.051 880.866 801.998 882.089 801.998Z" fill="#F89300"/>
<path opacity="0.29" d="M910.836 801.998C912.059 801.998 913.041 801.051 913.041 799.881C913.041 798.712 912.059 797.765 910.836 797.765C909.623 797.765 908.641 798.712 908.641 799.881C908.641 801.051 909.623 801.998 910.836 801.998Z" fill="#F89300"/>
<path opacity="0.29" d="M939.593 801.998C940.816 801.998 941.799 801.051 941.799 799.881C941.799 798.712 940.816 797.765 939.593 797.765C938.381 797.765 937.387 798.712 937.387 799.881C937.387 801.051 938.381 801.998 939.593 801.998Z" fill="#F89300"/>
<path opacity="0.29" d="M855.537 827.248C855.537 827.667 855.401 828.076 855.161 828.424C854.921 828.773 854.576 829.044 854.168 829.204C853.771 829.364 853.321 829.406 852.903 829.325C852.474 829.242 852.077 829.042 851.774 828.746C851.46 828.45 851.251 828.072 851.168 827.662C851.084 827.251 851.126 826.826 851.293 826.438C851.46 826.052 851.743 825.721 852.109 825.489C852.464 825.256 852.893 825.132 853.332 825.132C853.917 825.132 854.471 825.354 854.889 825.752C855.297 826.149 855.537 826.687 855.537 827.248Z" fill="#F89300"/>
<path opacity="0.29" d="M884.284 827.248C884.284 827.667 884.159 828.076 883.918 828.424C883.678 828.773 883.333 829.044 882.925 829.204C882.528 829.364 882.078 829.406 881.65 829.325C881.232 829.242 880.835 829.042 880.521 828.746C880.218 828.45 880.009 828.072 879.925 827.662C879.841 827.251 879.883 826.826 880.051 826.438C880.218 826.052 880.5 825.721 880.855 825.489C881.221 825.256 881.65 825.132 882.089 825.132C882.674 825.132 883.228 825.354 883.647 825.752C884.054 826.149 884.284 826.687 884.284 827.248Z" fill="#F89300"/>
<path opacity="0.29" d="M913.042 827.248C913.042 827.667 912.916 828.076 912.676 828.424C912.435 828.773 912.09 829.044 911.683 829.204C911.285 829.364 910.836 829.406 910.407 829.325C909.979 829.242 909.592 829.042 909.278 828.746C908.975 828.45 908.766 828.072 908.682 827.662C908.599 827.251 908.641 826.826 908.808 826.438C908.975 826.052 909.257 825.721 909.613 825.489C909.979 825.256 910.407 825.132 910.836 825.132C911.421 825.132 911.986 825.354 912.404 825.752C912.812 826.149 913.042 826.687 913.042 827.248Z" fill="#F89300"/>
<path opacity="0.29" d="M941.799 827.248C941.799 827.667 941.673 828.076 941.433 828.424C941.182 828.773 940.848 829.044 940.44 829.204C940.032 829.364 939.593 829.406 939.165 829.325C938.736 829.242 938.349 829.042 938.036 828.746C937.732 828.45 937.523 828.072 937.429 827.662C937.346 827.251 937.388 826.826 937.555 826.438C937.722 826.052 938.004 825.721 938.37 825.489C938.736 825.256 939.165 825.132 939.593 825.132C939.886 825.132 940.168 825.187 940.44 825.293C940.712 825.4 940.952 825.555 941.151 825.752C941.36 825.949 941.527 826.181 941.632 826.438C941.747 826.695 941.799 826.97 941.799 827.248Z" fill="#F89300"/>
<path opacity="0.29" d="M855.537 854.617C855.537 855.036 855.401 855.445 855.161 855.794C854.921 856.141 854.576 856.413 854.168 856.572C853.771 856.733 853.321 856.774 852.893 856.693C852.474 856.611 852.077 856.409 851.774 856.113C851.46 855.817 851.251 855.439 851.168 855.029C851.084 854.619 851.126 854.193 851.293 853.807C851.46 853.42 851.743 853.089 852.109 852.857C852.464 852.624 852.893 852.5 853.332 852.5C853.614 852.5 853.907 852.555 854.168 852.662C854.44 852.768 854.68 852.923 854.889 853.12C855.088 853.317 855.255 853.551 855.37 853.808C855.475 854.064 855.537 854.339 855.537 854.617Z" fill="#F89300"/>
<path opacity="0.29" d="M884.284 854.617C884.284 855.036 884.159 855.445 883.918 855.794C883.678 856.141 883.333 856.413 882.925 856.572C882.528 856.733 882.078 856.774 881.65 856.693C881.221 856.611 880.835 856.409 880.521 856.113C880.218 855.817 880.009 855.439 879.925 855.029C879.841 854.619 879.883 854.193 880.051 853.807C880.218 853.42 880.5 853.089 880.855 852.857C881.221 852.624 881.65 852.5 882.089 852.5C882.371 852.5 882.664 852.555 882.925 852.662C883.197 852.768 883.437 852.923 883.647 853.12C883.845 853.317 884.012 853.551 884.117 853.808C884.232 854.064 884.284 854.339 884.284 854.617Z" fill="#F89300"/>
<path opacity="0.29" d="M913.042 854.617C913.042 855.036 912.916 855.445 912.676 855.794C912.435 856.141 912.09 856.413 911.683 856.572C911.285 856.733 910.836 856.774 910.407 856.693C909.979 856.611 909.592 856.409 909.278 856.113C908.975 855.817 908.766 855.439 908.682 855.029C908.599 854.619 908.641 854.193 908.808 853.807C908.975 853.42 909.257 853.089 909.613 852.857C909.979 852.624 910.407 852.5 910.836 852.5C911.421 852.501 911.986 852.724 912.404 853.121C912.812 853.518 913.042 854.056 913.042 854.617Z" fill="#F89300"/>
<path opacity="0.29" d="M941.799 854.617C941.799 855.036 941.673 855.445 941.433 855.794C941.182 856.141 940.837 856.413 940.44 856.572C940.032 856.733 939.593 856.774 939.165 856.693C938.736 856.611 938.349 856.409 938.036 856.113C937.732 855.817 937.523 855.439 937.429 855.029C937.346 854.619 937.388 854.193 937.555 853.807C937.722 853.42 938.004 853.089 938.37 852.857C938.736 852.624 939.165 852.5 939.593 852.5C939.886 852.5 940.168 852.555 940.44 852.662C940.712 852.768 940.952 852.923 941.151 853.12C941.36 853.317 941.527 853.551 941.632 853.808C941.747 854.064 941.799 854.339 941.799 854.617Z" fill="#F89300"/>
</g>
<g opacity="0.29">
<path opacity="0.29" d="M965.184 774.631C966.396 774.631 967.39 773.683 967.39 772.514C967.39 771.345 966.396 770.398 965.184 770.398C963.961 770.398 962.978 771.345 962.978 772.514C962.978 773.683 963.961 774.631 965.184 774.631Z" fill="#F89300"/>
<path opacity="0.29" d="M993.94 774.631C995.153 774.631 996.136 773.683 996.136 772.514C996.136 771.345 995.153 770.398 993.94 770.398C992.717 770.398 991.735 771.345 991.735 772.514C991.735 773.683 992.717 774.631 993.94 774.631Z" fill="#F89300"/>
<path opacity="0.29" d="M1022.69 774.631C1023.91 774.631 1024.89 773.683 1024.89 772.514C1024.89 771.345 1023.91 770.398 1022.69 770.398C1021.47 770.398 1020.49 771.345 1020.49 772.514C1020.49 773.683 1021.47 774.631 1022.69 774.631Z" fill="#F89300"/>
<path opacity="0.29" d="M1051.44 774.631C1052.67 774.631 1053.65 773.683 1053.65 772.514C1053.65 771.345 1052.67 770.398 1051.44 770.398C1050.23 770.398 1049.24 771.345 1049.24 772.514C1049.24 773.683 1050.23 774.631 1051.44 774.631Z" fill="#F89300"/>
<path opacity="0.29" d="M965.183 801.998C966.396 801.998 967.389 801.051 967.389 799.881C967.389 798.712 966.396 797.765 965.183 797.765C963.96 797.765 962.978 798.712 962.978 799.881C962.978 801.051 963.96 801.998 965.183 801.998Z" fill="#F89300"/>
<path opacity="0.29" d="M993.94 801.998C995.153 801.998 996.136 801.051 996.136 799.881C996.136 798.712 995.153 797.765 993.94 797.765C992.717 797.765 991.735 798.712 991.735 799.881C991.735 801.051 992.717 801.998 993.94 801.998Z" fill="#F89300"/>
<path opacity="0.29" d="M1022.69 801.998C1023.91 801.998 1024.89 801.051 1024.89 799.881C1024.89 798.712 1023.91 797.765 1022.69 797.765C1021.47 797.765 1020.49 798.712 1020.49 799.881C1020.49 801.051 1021.47 801.998 1022.69 801.998Z" fill="#F89300"/>
<path opacity="0.29" d="M1051.44 801.998C1052.67 801.998 1053.65 801.051 1053.65 799.881C1053.65 798.712 1052.67 797.765 1051.44 797.765C1050.23 797.765 1049.24 798.712 1049.24 799.881C1049.24 801.051 1050.23 801.998 1051.44 801.998Z" fill="#F89300"/>
<path opacity="0.29" d="M967.389 827.248C967.389 827.667 967.253 828.076 967.012 828.424C966.772 828.773 966.427 829.044 966.019 829.204C965.622 829.364 965.173 829.406 964.754 829.325C964.326 829.242 963.929 829.042 963.626 828.746C963.312 828.45 963.103 828.072 963.019 827.662C962.936 827.251 962.978 826.826 963.145 826.438C963.312 826.052 963.594 825.721 963.96 825.489C964.315 825.256 964.744 825.132 965.183 825.132C965.768 825.132 966.322 825.354 966.741 825.752C967.148 826.149 967.389 826.687 967.389 827.248Z" fill="#F89300"/>
<path opacity="0.29" d="M996.136 827.248C996.136 827.667 996.01 828.076 995.77 828.424C995.529 828.773 995.184 829.044 994.777 829.204C994.38 829.364 993.93 829.406 993.501 829.325C993.083 829.242 992.686 829.042 992.372 828.746C992.069 828.45 991.86 828.072 991.777 827.662C991.693 827.251 991.735 826.826 991.902 826.438C992.069 826.052 992.351 825.721 992.707 825.489C993.073 825.256 993.501 825.132 993.94 825.132C994.526 825.132 995.08 825.354 995.498 825.752C995.906 826.149 996.136 826.687 996.136 827.248Z" fill="#F89300"/>
<path opacity="0.29" d="M1024.89 827.248C1024.89 827.667 1024.77 828.076 1024.53 828.424C1024.29 828.773 1023.94 829.044 1023.53 829.204C1023.14 829.364 1022.69 829.406 1022.26 829.325C1021.83 829.242 1021.44 829.042 1021.13 828.746C1020.83 828.45 1020.62 828.072 1020.53 827.662C1020.45 827.251 1020.49 826.826 1020.66 826.438C1020.83 826.052 1021.11 825.721 1021.46 825.489C1021.83 825.256 1022.26 825.132 1022.69 825.132C1023.27 825.132 1023.84 825.354 1024.26 825.752C1024.66 826.149 1024.89 826.687 1024.89 827.248Z" fill="#F89300"/>
<path opacity="0.29" d="M1053.65 827.248C1053.65 827.667 1053.53 828.076 1053.28 828.424C1053.03 828.773 1052.7 829.044 1052.29 829.204C1051.88 829.364 1051.44 829.406 1051.02 829.325C1050.59 829.242 1050.2 829.042 1049.89 828.746C1049.58 828.45 1049.38 828.072 1049.28 827.662C1049.2 827.251 1049.24 826.826 1049.41 826.438C1049.57 826.052 1049.86 825.721 1050.22 825.489C1050.59 825.256 1051.02 825.132 1051.44 825.132C1051.74 825.132 1052.02 825.187 1052.29 825.293C1052.56 825.4 1052.8 825.555 1053 825.752C1053.21 825.949 1053.38 826.181 1053.48 826.438C1053.6 826.695 1053.65 826.97 1053.65 827.248Z" fill="#F89300"/>
<path opacity="0.29" d="M967.389 854.617C967.389 855.036 967.253 855.445 967.012 855.794C966.772 856.141 966.427 856.413 966.019 856.572C965.622 856.733 965.173 856.774 964.744 856.693C964.326 856.611 963.929 856.409 963.626 856.113C963.312 855.817 963.103 855.439 963.019 855.029C962.936 854.619 962.978 854.193 963.145 853.807C963.312 853.42 963.594 853.089 963.96 852.857C964.315 852.624 964.744 852.5 965.183 852.5C965.465 852.5 965.758 852.555 966.019 852.662C966.291 852.768 966.532 852.923 966.741 853.12C966.939 853.317 967.106 853.551 967.221 853.808C967.326 854.064 967.389 854.339 967.389 854.617Z" fill="#F89300"/>
<path opacity="0.29" d="M996.136 854.617C996.136 855.036 996.01 855.445 995.77 855.794C995.529 856.141 995.184 856.413 994.777 856.572C994.38 856.733 993.93 856.774 993.501 856.693C993.073 856.611 992.686 856.409 992.372 856.113C992.069 855.817 991.86 855.439 991.777 855.029C991.693 854.619 991.735 854.193 991.902 853.807C992.069 853.42 992.351 853.089 992.707 852.857C993.073 852.624 993.501 852.5 993.94 852.5C994.223 852.5 994.515 852.555 994.777 852.662C995.049 852.768 995.289 852.923 995.498 853.12C995.697 853.317 995.864 853.551 995.968 853.808C996.083 854.064 996.136 854.339 996.136 854.617Z" fill="#F89300"/>
<path opacity="0.29" d="M1024.89 854.617C1024.89 855.036 1024.77 855.445 1024.53 855.794C1024.29 856.141 1023.94 856.413 1023.53 856.572C1023.14 856.733 1022.69 856.774 1022.26 856.693C1021.83 856.611 1021.44 856.409 1021.13 856.113C1020.83 855.817 1020.62 855.439 1020.53 855.029C1020.45 854.619 1020.49 854.193 1020.66 853.807C1020.83 853.42 1021.11 853.089 1021.46 852.857C1021.83 852.624 1022.26 852.5 1022.69 852.5C1023.27 852.501 1023.84 852.724 1024.26 853.121C1024.66 853.518 1024.89 854.056 1024.89 854.617Z" fill="#F89300"/>
<path opacity="0.29" d="M1053.65 854.617C1053.65 855.036 1053.53 855.445 1053.28 855.794C1053.03 856.141 1052.69 856.413 1052.29 856.572C1051.88 856.733 1051.44 856.774 1051.02 856.693C1050.59 856.611 1050.2 856.409 1049.89 856.113C1049.58 855.817 1049.38 855.439 1049.28 855.029C1049.2 854.619 1049.24 854.193 1049.41 853.807C1049.57 853.42 1049.86 853.089 1050.22 852.857C1050.59 852.624 1051.02 852.5 1051.44 852.5C1051.74 852.5 1052.02 852.555 1052.29 852.662C1052.56 852.768 1052.8 852.923 1053 853.12C1053.21 853.317 1053.38 853.551 1053.48 853.808C1053.6 854.064 1053.65 854.339 1053.65 854.617Z" fill="#F89300"/>
</g>
<g opacity="0.29">
<path opacity="0.29" d="M1077.04 774.631C1078.25 774.631 1079.24 773.683 1079.24 772.514C1079.24 771.345 1078.25 770.398 1077.04 770.398C1075.81 770.398 1074.83 771.345 1074.83 772.514C1074.83 773.683 1075.81 774.631 1077.04 774.631Z" fill="#F89300"/>
<path opacity="0.29" d="M1105.79 774.631C1107.01 774.631 1107.99 773.683 1107.99 772.514C1107.99 771.345 1107.01 770.398 1105.79 770.398C1104.57 770.398 1103.59 771.345 1103.59 772.514C1103.59 773.683 1104.57 774.631 1105.79 774.631Z" fill="#F89300"/>
<path opacity="0.29" d="M1134.54 774.631C1135.76 774.631 1136.74 773.683 1136.74 772.514C1136.74 771.345 1135.76 770.398 1134.54 770.398C1133.33 770.398 1132.34 771.345 1132.34 772.514C1132.34 773.683 1133.33 774.631 1134.54 774.631Z" fill="#F89300"/>
<path opacity="0.29" d="M1163.3 774.631C1164.52 774.631 1165.5 773.683 1165.5 772.514C1165.5 771.345 1164.52 770.398 1163.3 770.398C1162.08 770.398 1161.09 771.345 1161.09 772.514C1161.09 773.683 1162.08 774.631 1163.3 774.631Z" fill="#F89300"/>
<path opacity="0.29" d="M1077.04 801.998C1078.25 801.998 1079.24 801.051 1079.24 799.881C1079.24 798.712 1078.25 797.765 1077.04 797.765C1075.81 797.765 1074.83 798.712 1074.83 799.881C1074.83 801.051 1075.81 801.998 1077.04 801.998Z" fill="#F89300"/>
<path opacity="0.29" d="M1105.79 801.998C1107.01 801.998 1107.99 801.051 1107.99 799.881C1107.99 798.712 1107.01 797.765 1105.79 797.765C1104.57 797.765 1103.59 798.712 1103.59 799.881C1103.59 801.051 1104.57 801.998 1105.79 801.998Z" fill="#F89300"/>
<path opacity="0.29" d="M1134.54 801.998C1135.76 801.998 1136.74 801.051 1136.74 799.881C1136.74 798.712 1135.76 797.765 1134.54 797.765C1133.33 797.765 1132.34 798.712 1132.34 799.881C1132.34 801.051 1133.33 801.998 1134.54 801.998Z" fill="#F89300"/>
<path opacity="0.29" d="M1163.3 801.998C1164.52 801.998 1165.5 801.051 1165.5 799.881C1165.5 798.712 1164.52 797.765 1163.3 797.765C1162.08 797.765 1161.09 798.712 1161.09 799.881C1161.09 801.051 1162.08 801.998 1163.3 801.998Z" fill="#F89300"/>
<path opacity="0.29" d="M1079.24 827.248C1079.24 827.667 1079.1 828.076 1078.86 828.424C1078.62 828.773 1078.28 829.044 1077.87 829.204C1077.47 829.364 1077.02 829.406 1076.61 829.325C1076.18 829.242 1075.78 829.042 1075.48 828.746C1075.16 828.45 1074.95 828.072 1074.87 827.662C1074.79 827.251 1074.83 826.826 1075 826.438C1075.16 826.052 1075.45 825.721 1075.81 825.489C1076.17 825.256 1076.6 825.132 1077.04 825.132C1077.62 825.132 1078.17 825.354 1078.59 825.752C1079 826.149 1079.24 826.687 1079.24 827.248Z" fill="#F89300"/>
<path opacity="0.29" d="M1107.99 827.248C1107.99 827.667 1107.86 828.076 1107.62 828.424C1107.38 828.773 1107.04 829.044 1106.63 829.204C1106.23 829.364 1105.78 829.406 1105.35 829.325C1104.94 829.242 1104.54 829.042 1104.22 828.746C1103.92 828.45 1103.71 828.072 1103.63 827.662C1103.55 827.251 1103.59 826.826 1103.75 826.438C1103.92 826.052 1104.2 825.721 1104.56 825.489C1104.92 825.256 1105.35 825.132 1105.79 825.132C1106.38 825.132 1106.93 825.354 1107.35 825.752C1107.76 826.149 1107.99 826.687 1107.99 827.248Z" fill="#F89300"/>
<path opacity="0.29" d="M1136.75 827.248C1136.75 827.667 1136.62 828.076 1136.38 828.424C1136.14 828.773 1135.79 829.044 1135.39 829.204C1134.99 829.364 1134.54 829.406 1134.11 829.325C1133.68 829.242 1133.3 829.042 1132.98 828.746C1132.68 828.45 1132.47 828.072 1132.39 827.662C1132.3 827.251 1132.34 826.826 1132.51 826.438C1132.68 826.052 1132.96 825.721 1133.32 825.489C1133.68 825.256 1134.11 825.132 1134.54 825.132C1135.13 825.132 1135.69 825.354 1136.11 825.752C1136.52 826.149 1136.75 826.687 1136.75 827.248Z" fill="#F89300"/>
<path opacity="0.29" d="M1165.5 827.248C1165.5 827.667 1165.38 828.076 1165.14 828.424C1164.89 828.773 1164.55 829.044 1164.14 829.204C1163.74 829.364 1163.3 829.406 1162.87 829.325C1162.44 829.242 1162.05 829.042 1161.74 828.746C1161.44 828.45 1161.23 828.072 1161.13 827.662C1161.05 827.251 1161.09 826.826 1161.26 826.438C1161.43 826.052 1161.71 825.721 1162.07 825.489C1162.44 825.256 1162.87 825.132 1163.3 825.132C1163.59 825.132 1163.87 825.187 1164.14 825.293C1164.42 825.4 1164.66 825.555 1164.85 825.752C1165.06 825.949 1165.23 826.181 1165.34 826.438C1165.45 826.695 1165.5 826.97 1165.5 827.248Z" fill="#F89300"/>
<path opacity="0.29" d="M1079.24 854.617C1079.24 855.036 1079.1 855.445 1078.86 855.794C1078.62 856.141 1078.28 856.413 1077.87 856.572C1077.47 856.733 1077.02 856.774 1076.6 856.693C1076.18 856.611 1075.78 856.409 1075.48 856.113C1075.16 855.817 1074.95 855.439 1074.87 855.029C1074.79 854.619 1074.83 854.193 1075 853.807C1075.16 853.42 1075.45 853.089 1075.81 852.857C1076.17 852.624 1076.6 852.5 1077.04 852.5C1077.32 852.5 1077.61 852.555 1077.87 852.662C1078.14 852.768 1078.38 852.923 1078.59 853.12C1078.79 853.317 1078.96 853.551 1079.07 853.808C1079.18 854.064 1079.24 854.339 1079.24 854.617Z" fill="#F89300"/>
<path opacity="0.29" d="M1107.99 854.617C1107.99 855.036 1107.86 855.445 1107.62 855.794C1107.38 856.141 1107.04 856.413 1106.63 856.572C1106.23 856.733 1105.78 856.774 1105.35 856.693C1104.92 856.611 1104.54 856.409 1104.22 856.113C1103.92 855.817 1103.71 855.439 1103.63 855.029C1103.55 854.619 1103.59 854.193 1103.75 853.807C1103.92 853.42 1104.2 853.089 1104.56 852.857C1104.92 852.624 1105.35 852.5 1105.79 852.5C1106.07 852.5 1106.37 852.555 1106.63 852.662C1106.9 852.768 1107.14 852.923 1107.35 853.12C1107.55 853.317 1107.72 853.551 1107.82 853.808C1107.94 854.064 1107.99 854.339 1107.99 854.617Z" fill="#F89300"/>
<path opacity="0.29" d="M1136.75 854.617C1136.75 855.036 1136.62 855.445 1136.38 855.794C1136.14 856.141 1135.79 856.413 1135.39 856.572C1134.99 856.733 1134.54 856.774 1134.11 856.693C1133.68 856.611 1133.3 856.409 1132.98 856.113C1132.68 855.817 1132.47 855.439 1132.39 855.029C1132.3 854.619 1132.34 854.193 1132.51 853.807C1132.68 853.42 1132.96 853.089 1133.32 852.857C1133.68 852.624 1134.11 852.5 1134.54 852.5C1135.13 852.501 1135.69 852.724 1136.11 853.121C1136.52 853.518 1136.75 854.056 1136.75 854.617Z" fill="#F89300"/>
<path opacity="0.29" d="M1165.5 854.617C1165.5 855.036 1165.38 855.445 1165.14 855.794C1164.89 856.141 1164.54 856.413 1164.14 856.572C1163.74 856.733 1163.3 856.774 1162.87 856.693C1162.44 856.611 1162.05 856.409 1161.74 856.113C1161.44 855.817 1161.23 855.439 1161.13 855.029C1161.05 854.619 1161.09 854.193 1161.26 853.807C1161.43 853.42 1161.71 853.089 1162.07 852.857C1162.44 852.624 1162.87 852.5 1163.3 852.5C1163.59 852.5 1163.87 852.555 1164.14 852.662C1164.42 852.768 1164.66 852.923 1164.85 853.12C1165.06 853.317 1165.23 853.551 1165.34 853.808C1165.45 854.064 1165.5 854.339 1165.5 854.617Z" fill="#F89300"/>
</g>
<path opacity="0.16" fill-rule="evenodd" clip-rule="evenodd" d="M1324.93 517.737C1225.32 473.143 1106.91 514.519 1060.46 610.15C1014.01 705.783 1057.1 819.459 1156.71 864.053C1256.32 908.647 1374.73 867.272 1421.18 771.639C1467.63 676.007 1424.53 562.331 1324.93 517.737ZM1059.51 609.727C1106.2 513.591 1225.23 471.999 1325.37 516.828C1425.5 561.656 1468.82 675.929 1422.12 772.063C1375.43 868.198 1256.41 909.791 1156.27 864.962C1056.14 820.135 1012.82 705.861 1059.51 609.727ZM1319.62 528.666C1226.29 486.887 1115.36 525.651 1071.84 615.247C1028.32 704.843 1068.7 811.343 1162.02 853.123C1255.35 894.902 1366.28 856.139 1409.8 766.543C1453.32 676.947 1412.94 570.446 1319.62 528.666ZM1070.89 614.822C1114.66 524.723 1226.21 485.744 1320.06 527.757C1413.9 569.771 1454.51 676.868 1410.74 766.967C1366.98 857.065 1255.42 896.046 1161.58 854.032C1067.73 812.019 1027.13 704.921 1070.89 614.822ZM1314.31 539.595C1227.27 500.631 1123.81 536.782 1083.22 620.342C1042.64 703.902 1080.3 803.228 1167.33 842.193C1254.37 881.157 1357.82 845.006 1398.42 761.445C1439 677.886 1401.34 578.56 1314.31 539.595ZM1082.28 619.918C1123.11 535.856 1227.19 499.487 1314.75 538.686C1402.3 577.885 1440.19 677.808 1399.36 761.87C1358.53 845.932 1254.45 882.3 1166.89 843.102C1079.33 803.904 1041.45 703.981 1082.28 619.918ZM1309 550.526C1228.24 514.375 1132.26 547.916 1094.61 625.44C1056.95 702.964 1091.89 795.115 1172.64 831.265C1253.38 867.415 1349.38 833.874 1387.03 756.35C1424.68 678.826 1389.75 586.675 1309 550.526ZM1093.67 625.016C1131.56 546.989 1228.17 513.232 1309.44 549.615C1390.71 586 1425.88 678.748 1387.97 756.775C1350.08 834.8 1253.47 868.558 1172.2 832.175C1090.93 795.79 1055.76 703.042 1093.67 625.016ZM1303.69 561.455C1229.23 528.119 1140.72 559.048 1105.99 630.535C1071.28 702.024 1103.48 786.999 1177.95 820.334C1252.41 853.67 1340.92 822.741 1375.65 751.254C1410.36 679.766 1378.15 594.789 1303.69 561.455ZM1105.05 630.112C1140.01 558.121 1229.14 526.975 1304.13 560.545C1379.12 594.115 1411.56 679.687 1376.59 751.677C1341.62 823.667 1252.5 854.814 1177.5 821.245C1102.52 787.674 1070.08 702.102 1105.05 630.112ZM1298.38 572.384C1230.21 541.863 1149.16 570.18 1117.37 635.632C1085.59 701.083 1115.09 778.884 1183.26 809.404C1251.43 839.925 1332.46 811.608 1364.26 746.157C1396.05 680.705 1366.55 602.904 1298.38 572.384ZM1116.43 635.207C1148.46 569.254 1230.13 540.72 1298.83 571.474C1367.52 602.229 1397.24 680.627 1365.2 746.58C1333.18 812.535 1251.51 841.069 1182.81 810.314C1114.12 779.559 1084.39 701.161 1116.43 635.207Z" fill="#3680EE"/>
</svg>
