<svg width="1838" height="862" viewBox="0 0 1838 862" fill="none" xmlns="http://www.w3.org/2000/svg">
<path d="M1710.59 800.541H1723.99" stroke="#A2BADD" stroke-width="2" stroke-linecap="round" stroke-linejoin="round"/>
<path d="M1717.29 793.843V807.244" stroke="#A2BADD" stroke-width="2" stroke-linecap="round" stroke-linejoin="round"/>
<path d="M1710.59 771.569H1723.99" stroke="#A2BADD" stroke-width="2" stroke-linecap="round" stroke-linejoin="round"/>
<path d="M1717.29 764.867V778.268" stroke="#A2BADD" stroke-width="2" stroke-linecap="round" stroke-linejoin="round"/>
<path d="M1710.59 742.594H1723.99" stroke="#A2BADD" stroke-width="2" stroke-linecap="round" stroke-linejoin="round"/>
<path d="M1717.29 735.894V749.295" stroke="#A2BADD" stroke-width="2" stroke-linecap="round" stroke-linejoin="round"/>
<path d="M1072.07 127.143V140.544" stroke="#A2BADD" stroke-width="2" stroke-linecap="round" stroke-linejoin="round"/>
<path d="M1078.77 133.843H1065.38" stroke="#A2BADD" stroke-width="2" stroke-linecap="round" stroke-linejoin="round"/>
<path d="M617.676 377.106V390.508" stroke="#EAF1FD" stroke-width="2" stroke-linecap="round" stroke-linejoin="round"/>
<path d="M624.376 383.805H610.978" stroke="#EAF1FD" stroke-width="2" stroke-linecap="round" stroke-linejoin="round"/>
<path d="M519.595 638.252V651.654" stroke="#F87F28" stroke-width="2" stroke-linecap="round" stroke-linejoin="round"/>
<path d="M526.295 644.953H512.897" stroke="#F87F28" stroke-width="2" stroke-linecap="round" stroke-linejoin="round"/>
<path d="M926.254 483.172V496.574" stroke="#F87F28" stroke-width="2" stroke-linecap="round" stroke-linejoin="round"/>
<path d="M932.954 489.872H919.556" stroke="#F87F28" stroke-width="2" stroke-linecap="round" stroke-linejoin="round"/>
<path d="M1195.89 321.743V335.145" stroke="#F87F28" stroke-width="2" stroke-linecap="round" stroke-linejoin="round"/>
<path d="M1202.59 328.442H1189.19" stroke="#F87F28" stroke-width="2" stroke-linecap="round" stroke-linejoin="round"/>
<path d="M1554.4 51.1328V64.5346" stroke="#F87F28" stroke-width="2" stroke-linecap="round" stroke-linejoin="round"/>
<path d="M1561.1 57.8322H1547.7" stroke="#F87F28" stroke-width="2" stroke-linecap="round" stroke-linejoin="round"/>
<path d="M401.928 286.2V299.602" stroke="#F87F28" stroke-width="2" stroke-linecap="round" stroke-linejoin="round"/>
<path d="M408.628 292.9H395.23" stroke="#F87F28" stroke-width="2" stroke-linecap="round" stroke-linejoin="round"/>
<path d="M610.978 84.5255V97.9265" stroke="#BDD7FE" stroke-width="2" stroke-linecap="round" stroke-linejoin="round"/>
<path d="M617.676 91.2251H604.278" stroke="#BDD7FE" stroke-width="2" stroke-linecap="round" stroke-linejoin="round"/>
<path d="M994.6 844.388V857.789" stroke="#FAFAFA" stroke-opacity="0.28" stroke-width="2" stroke-linecap="round" stroke-linejoin="round"/>
<path d="M1001.3 851.088H987.906" stroke="#FAFAFA" stroke-opacity="0.28" stroke-width="2" stroke-linecap="round" stroke-linejoin="round"/>
<path d="M1023.58 844.388V857.789" stroke="#FAFAFA" stroke-opacity="0.28" stroke-width="2" stroke-linecap="round" stroke-linejoin="round"/>
<path d="M1030.27 851.088H1016.87" stroke="#FAFAFA" stroke-opacity="0.28" stroke-width="2" stroke-linecap="round" stroke-linejoin="round"/>
<path d="M1052.54 844.388V857.789" stroke="#FAFAFA" stroke-opacity="0.28" stroke-width="2" stroke-linecap="round" stroke-linejoin="round"/>
<path d="M1059.24 851.088H1045.84" stroke="#FAFAFA" stroke-opacity="0.28" stroke-width="2" stroke-linecap="round" stroke-linejoin="round"/>
<path d="M213.109 243V256.4" stroke="#F87F28" stroke-width="2" stroke-linecap="round" stroke-linejoin="round"/>
<path d="M219.808 249.699H206.411" stroke="#F87F28" stroke-width="2" stroke-linecap="round" stroke-linejoin="round"/>
<path d="M86.804 184.625H73.4062" stroke="#EAF1FD" stroke-width="2" stroke-linecap="round" stroke-linejoin="round"/>
<path d="M80.1062 191.326V177.925" stroke="#EAF1FD" stroke-width="2" stroke-linecap="round" stroke-linejoin="round"/>
<path d="M86.804 213.6H73.4062" stroke="#EAF1FD" stroke-width="2" stroke-linecap="round" stroke-linejoin="round"/>
<path d="M80.1062 220.3V206.898" stroke="#EAF1FD" stroke-width="2" stroke-linecap="round" stroke-linejoin="round"/>
<path d="M86.804 242.573H73.4062" stroke="#EAF1FD" stroke-width="2" stroke-linecap="round" stroke-linejoin="round"/>
<path d="M80.1062 249.275V235.874" stroke="#EAF1FD" stroke-width="2" stroke-linecap="round" stroke-linejoin="round"/>
<path d="M388.918 481.462C388.918 481.912 388.786 482.351 388.536 482.725C388.286 483.099 387.931 483.39 387.516 483.562C387.101 483.734 386.644 483.779 386.203 483.69C385.762 483.603 385.357 483.386 385.039 483.069C384.723 482.751 384.506 482.346 384.418 481.905C384.331 481.464 384.376 481.007 384.548 480.592C384.721 480.177 385.011 479.821 385.385 479.572C385.759 479.323 386.198 479.19 386.648 479.19C386.946 479.19 387.241 479.249 387.516 479.363C387.793 479.477 388.043 479.644 388.254 479.855C388.465 480.067 388.632 480.317 388.746 480.593C388.86 480.869 388.918 481.164 388.918 481.462Z" fill="#A2BADD"/>
<path d="M404.341 481.462C404.341 481.912 404.207 482.351 403.958 482.725C403.708 483.099 403.354 483.39 402.938 483.562C402.523 483.734 402.066 483.779 401.625 483.69C401.185 483.603 400.78 483.386 400.462 483.069C400.144 482.751 399.928 482.346 399.841 481.905C399.753 481.464 399.798 481.007 399.971 480.592C400.142 480.177 400.434 479.821 400.808 479.572C401.182 479.323 401.621 479.19 402.07 479.19C402.368 479.19 402.664 479.249 402.939 479.363C403.215 479.477 403.465 479.644 403.676 479.855C403.887 480.067 404.054 480.317 404.168 480.593C404.283 480.869 404.341 481.164 404.341 481.462Z" fill="#A2BADD"/>
<path d="M419.769 481.462C419.769 481.912 419.636 482.351 419.387 482.725C419.137 483.099 418.782 483.39 418.367 483.562C417.952 483.734 417.495 483.779 417.054 483.691C416.613 483.603 416.209 483.387 415.891 483.07C415.574 482.751 415.357 482.347 415.269 481.905C415.181 481.464 415.227 481.008 415.398 480.593C415.571 480.177 415.861 479.822 416.235 479.572C416.609 479.324 417.048 479.19 417.498 479.19C417.796 479.19 418.091 479.248 418.367 479.362C418.643 479.477 418.894 479.644 419.104 479.855C419.315 480.067 419.483 480.316 419.597 480.593C419.71 480.869 419.769 481.164 419.769 481.462Z" fill="#A2BADD"/>
<path d="M388.918 496.888C388.918 497.337 388.786 497.776 388.536 498.15C388.287 498.524 387.932 498.816 387.516 498.988C387.101 499.161 386.645 499.205 386.204 499.118C385.763 499.03 385.358 498.814 385.04 498.496C384.723 498.177 384.506 497.772 384.418 497.332C384.331 496.891 384.376 496.434 384.548 496.019C384.72 495.603 385.011 495.249 385.385 494.999C385.759 494.749 386.198 494.616 386.648 494.616C387.25 494.616 387.827 494.856 388.254 495.282C388.679 495.707 388.918 496.285 388.918 496.888Z" fill="#A2BADD"/>
<path d="M404.341 496.888C404.341 497.337 404.208 497.776 403.958 498.15C403.709 498.524 403.354 498.816 402.939 498.988C402.523 499.161 402.067 499.205 401.626 499.118C401.186 499.03 400.781 498.814 400.463 498.496C400.145 498.177 399.928 497.772 399.841 497.332C399.753 496.891 399.798 496.434 399.971 496.019C400.142 495.603 400.434 495.249 400.808 494.999C401.182 494.749 401.621 494.616 402.07 494.616C402.673 494.616 403.25 494.856 403.676 495.282C404.102 495.707 404.341 496.285 404.341 496.888Z" fill="#A2BADD"/>
<path d="M419.769 496.888C419.769 497.337 419.637 497.776 419.387 498.15C419.138 498.524 418.782 498.816 418.368 498.988C417.953 499.161 417.496 499.205 417.055 499.118C416.614 499.03 416.209 498.814 415.891 498.496C415.574 498.178 415.357 497.773 415.269 497.333C415.181 496.892 415.227 496.435 415.398 496.019C415.571 495.604 415.861 495.249 416.235 494.999C416.608 494.75 417.048 494.616 417.498 494.616C417.796 494.616 418.091 494.674 418.367 494.789C418.643 494.903 418.893 495.071 419.104 495.281C419.315 495.492 419.482 495.743 419.596 496.018C419.71 496.294 419.769 496.59 419.769 496.888Z" fill="#A2BADD"/>
<path d="M388.918 512.314C388.918 512.764 388.786 513.204 388.536 513.577C388.287 513.95 387.932 514.242 387.516 514.414C387.101 514.587 386.645 514.631 386.204 514.544C385.763 514.456 385.358 514.24 385.04 513.922C384.723 513.605 384.506 513.199 384.418 512.758C384.331 512.317 384.376 511.86 384.548 511.445C384.72 511.03 385.011 510.675 385.385 510.425C385.759 510.175 386.198 510.043 386.648 510.043C387.25 510.043 387.827 510.282 388.254 510.708C388.679 511.134 388.918 511.712 388.918 512.314Z" fill="#A2BADD"/>
<path d="M404.341 512.314C404.341 512.764 404.208 513.204 403.958 513.577C403.709 513.95 403.354 514.242 402.939 514.414C402.523 514.587 402.067 514.631 401.626 514.544C401.186 514.456 400.781 514.24 400.463 513.922C400.145 513.605 399.928 513.199 399.841 512.758C399.753 512.317 399.798 511.86 399.971 511.445C400.142 511.03 400.434 510.675 400.808 510.425C401.182 510.175 401.621 510.043 402.07 510.043C402.673 510.043 403.25 510.282 403.676 510.708C404.102 511.134 404.341 511.712 404.341 512.314Z" fill="#A2BADD"/>
<path d="M419.769 512.314C419.769 512.764 419.637 513.203 419.387 513.577C419.138 513.95 418.782 514.242 418.368 514.414C417.953 514.587 417.496 514.631 417.055 514.544C416.614 514.456 416.209 514.24 415.891 513.922C415.574 513.605 415.357 513.2 415.269 512.759C415.181 512.318 415.227 511.861 415.398 511.445C415.571 511.031 415.861 510.675 416.235 510.426C416.608 510.176 417.048 510.043 417.498 510.043C417.796 510.043 418.091 510.102 418.367 510.215C418.643 510.329 418.893 510.497 419.104 510.707C419.315 510.918 419.482 511.169 419.596 511.444C419.71 511.721 419.769 512.016 419.769 512.314Z" fill="#A2BADD"/>
<path d="M84.6922 2.90799C84.6919 3.3535 84.5597 3.78892 84.3122 4.15926C84.0645 4.52949 83.7128 4.81817 83.3013 4.98846C82.8897 5.15886 82.4369 5.20342 82.0001 5.11643C81.5633 5.02944 81.1622 4.81497 80.8472 4.49995C80.5323 4.18493 80.3178 3.7836 80.2308 3.34662C80.1439 2.90974 80.1884 2.45687 80.3588 2.04517C80.5291 1.63357 80.8176 1.28174 81.1878 1.03405C81.558 0.786448 81.9934 0.654125 82.4387 0.653931C82.7346 0.653737 83.0278 0.711956 83.3013 0.825197C83.5747 0.938437 83.8232 1.10447 84.0325 1.31381C84.2417 1.52314 84.4078 1.77171 84.5209 2.04517C84.6342 2.31873 84.6923 2.61196 84.6922 2.90799Z" fill="#A2BADD"/>
<path d="M97.7363 5.16204C98.9812 5.16204 99.9906 4.15285 99.9906 2.90799C99.9906 1.66312 98.9812 0.653931 97.7363 0.653931C96.4925 0.653931 95.483 1.66312 95.483 2.90799C95.483 4.15285 96.4925 5.16204 97.7363 5.16204Z" fill="#A2BADD"/>
<path d="M115.286 2.90799C115.286 3.35378 115.154 3.78959 114.907 4.16022C114.659 4.53094 114.307 4.8198 113.895 4.99039C113.483 5.16107 113.03 5.20563 112.593 5.11874C112.156 5.03175 111.754 4.81709 111.439 4.50178C111.124 4.18657 110.909 3.78495 110.822 3.34768C110.735 2.91051 110.781 2.45725 110.951 2.04537C111.122 1.63348 111.41 1.28145 111.78 1.03385C112.151 0.786158 112.587 0.653931 113.033 0.653931C113.631 0.653931 114.203 0.891454 114.626 1.3141C115.049 1.73683 115.286 2.31021 115.286 2.90799Z" fill="#A2BADD"/>
<path d="M130.587 2.90799C130.587 3.35378 130.454 3.78959 130.207 4.16022C129.959 4.53094 129.607 4.8198 129.196 4.99039C128.784 5.16107 128.33 5.20563 127.894 5.11874C127.457 5.03175 127.055 4.81709 126.74 4.50178C126.424 4.18657 126.21 3.78495 126.123 3.34768C126.035 2.91051 126.08 2.45725 126.252 2.04537C126.422 1.63348 126.711 1.28145 127.081 1.03385C127.452 0.786158 127.888 0.653931 128.333 0.653931C128.629 0.653931 128.922 0.712247 129.196 0.825488C129.469 0.938825 129.717 1.10486 129.926 1.3141C130.135 1.52343 130.302 1.7719 130.415 2.04537C130.529 2.31883 130.587 2.61195 130.587 2.90799Z" fill="#A2BADD"/>
<path d="M143.631 5.16204C144.876 5.16204 145.884 4.15285 145.884 2.90799C145.884 1.66312 144.876 0.653931 143.631 0.653931C142.387 0.653931 141.378 1.66312 141.378 2.90799C141.378 4.15285 142.387 5.16204 143.631 5.16204Z" fill="#A2BADD"/>
<path d="M161.182 2.90799C161.182 3.35378 161.049 3.78959 160.802 4.16022C160.554 4.53094 160.202 4.8198 159.791 4.99039C159.379 5.16107 158.926 5.20563 158.489 5.11874C158.051 5.03175 157.65 4.81709 157.335 4.50178C157.019 4.18657 156.805 3.78495 156.718 3.34768C156.631 2.91051 156.675 2.45725 156.846 2.04537C157.016 1.63348 157.306 1.28145 157.676 1.03385C158.047 0.786158 158.482 0.653931 158.928 0.653931C159.224 0.653737 159.517 0.711956 159.791 0.825196C160.064 0.938437 160.313 1.10447 160.522 1.3138C160.731 1.52314 160.897 1.77171 161.01 2.04517C161.124 2.31873 161.182 2.61195 161.182 2.90799Z" fill="#A2BADD"/>
<path d="M176.478 2.90799C176.478 3.35378 176.346 3.78959 176.098 4.16022C175.851 4.53094 175.499 4.8198 175.087 4.99039C174.675 5.16107 174.222 5.20563 173.785 5.11874C173.348 5.03175 172.947 4.81709 172.631 4.50178C172.316 4.18657 172.101 3.78495 172.015 3.34768C171.928 2.91051 171.973 2.45725 172.143 2.04537C172.314 1.63348 172.602 1.28145 172.973 1.03385C173.343 0.786158 173.779 0.653931 174.225 0.653931C174.521 0.653737 174.814 0.711956 175.087 0.825196C175.361 0.938437 175.609 1.10447 175.819 1.3138C176.028 1.52314 176.194 1.77171 176.307 2.04517C176.42 2.31873 176.478 2.61195 176.478 2.90799Z" fill="#A2BADD"/>
<path d="M84.6922 18.2101C84.6919 18.6556 84.5597 19.0911 84.3122 19.4614C84.0645 19.8317 83.7128 20.1203 83.3013 20.2907C82.8897 20.4611 82.4369 20.5055 82.0001 20.4186C81.5633 20.3317 81.1622 20.1171 80.8472 19.8021C80.5323 19.4871 80.3178 19.0857 80.2308 18.6488C80.1439 18.2119 80.1884 17.759 80.3588 17.3474C80.5291 16.9358 80.8176 16.5839 81.1878 16.3363C81.558 16.0886 81.9934 15.9563 82.4387 15.9561C83.0364 15.9561 83.6095 16.1936 84.0322 16.6163C84.4548 17.039 84.6922 17.6123 84.6922 18.2101Z" fill="#A2BADD"/>
<path d="M99.9906 18.2101C99.9906 18.6559 99.8579 19.0917 99.6109 19.4624C99.3629 19.8331 99.0112 20.122 98.5995 20.2926C98.1878 20.4632 97.7344 20.5079 97.2975 20.4209C96.8596 20.3339 96.4586 20.1192 96.1437 19.804C95.8279 19.4888 95.6138 19.0871 95.5266 18.6499C95.4395 18.2126 95.484 17.7594 95.6545 17.3476C95.825 16.9357 96.1147 16.5837 96.4847 16.336C96.8558 16.0883 97.2907 15.9561 97.7364 15.9561C98.3341 15.9563 98.9076 16.194 99.33 16.6166C99.7523 17.0393 99.9897 17.6124 99.9906 18.2101Z" fill="#A2BADD"/>
<path d="M115.286 18.2101C115.286 18.6559 115.154 19.0917 114.907 19.4624C114.659 19.8331 114.307 20.122 113.895 20.2926C113.483 20.4632 113.03 20.5079 112.593 20.4209C112.156 20.3339 111.754 20.1192 111.439 19.804C111.124 19.4888 110.909 19.0871 110.822 18.6499C110.735 18.2126 110.781 17.7594 110.951 17.3476C111.122 16.9357 111.41 16.5837 111.78 16.336C112.151 16.0883 112.587 15.9561 113.033 15.9561C113.63 15.9563 114.203 16.194 114.626 16.6166C115.048 17.0393 115.285 17.6124 115.286 18.2101Z" fill="#A2BADD"/>
<path d="M130.587 18.2101C130.587 18.6559 130.454 19.0917 130.207 19.4624C129.959 19.8331 129.607 20.122 129.196 20.2926C128.784 20.4632 128.33 20.5079 127.894 20.4209C127.457 20.3339 127.055 20.1192 126.74 19.804C126.424 19.4888 126.21 19.0871 126.123 18.6499C126.035 18.2126 126.08 17.7594 126.252 17.3476C126.422 16.9357 126.711 16.5837 127.081 16.336C127.452 16.0883 127.888 15.9561 128.333 15.9561C128.93 15.9563 129.504 16.194 129.926 16.6166C130.348 17.0393 130.586 17.6124 130.587 18.2101Z" fill="#A2BADD"/>
<path d="M145.883 18.2101C145.883 18.656 145.752 19.0918 145.504 19.4625C145.256 19.8333 144.904 20.1221 144.492 20.2927C144.08 20.4633 143.627 20.5079 143.19 20.4208C142.752 20.3337 142.351 20.1189 142.036 19.8036C141.721 19.4882 141.506 19.0865 141.419 18.6492C141.333 18.2119 141.378 17.7586 141.548 17.3468C141.719 16.9349 142.008 16.583 142.378 16.3354C142.749 16.0879 143.185 15.9559 143.631 15.9561C144.229 15.9563 144.801 16.194 145.224 16.6167C145.646 17.0393 145.883 17.6125 145.883 18.2101Z" fill="#A2BADD"/>
<path d="M161.182 18.2101C161.182 18.6559 161.049 19.0917 160.802 19.4624C160.554 19.8331 160.202 20.122 159.791 20.2926C159.379 20.4632 158.926 20.5079 158.489 20.4209C158.051 20.3339 157.65 20.1192 157.335 19.804C157.019 19.4888 156.805 19.0871 156.718 18.6499C156.631 18.2126 156.675 17.7594 156.846 17.3476C157.016 16.9357 157.306 16.5837 157.676 16.336C158.047 16.0883 158.482 15.9561 158.928 15.9561C159.525 15.9561 160.099 16.1936 160.521 16.6163C160.944 17.039 161.182 17.6123 161.182 18.2101Z" fill="#A2BADD"/>
<path d="M176.478 18.2101C176.478 18.6559 176.346 19.0917 176.098 19.4624C175.851 19.8331 175.499 20.122 175.087 20.2926C174.675 20.4632 174.222 20.5079 173.785 20.4209C173.348 20.3339 172.947 20.1192 172.631 19.804C172.316 19.4888 172.101 19.0871 172.015 18.6499C171.928 18.2126 171.973 17.7594 172.143 17.3476C172.314 16.9357 172.602 16.5837 172.973 16.336C173.343 16.0883 173.779 15.9561 174.225 15.9561C174.823 15.9561 175.396 16.1936 175.819 16.6163C176.241 17.039 176.478 17.6123 176.478 18.2101Z" fill="#A2BADD"/>
<path d="M84.6922 33.5122C84.691 33.9575 84.558 34.3925 84.3099 34.7622C84.0618 35.1319 83.7097 35.4198 83.2982 35.5895C82.8865 35.7593 82.4339 35.8031 81.9974 35.7157C81.5609 35.6282 81.1601 35.4132 80.8456 35.098C80.5311 34.7829 80.3171 34.3816 80.2305 33.9448C80.1439 33.5079 80.1887 33.0553 80.3592 32.6439C80.5297 32.2325 80.8182 31.881 81.1882 31.6335C81.5584 31.3861 81.9935 31.254 82.4387 31.2537C82.735 31.2537 83.0284 31.3122 83.3021 31.4257C83.5758 31.5392 83.8244 31.7057 84.0337 31.9155C84.2431 32.1253 84.4089 32.3742 84.5219 32.6483C84.6349 32.9222 84.6928 33.2159 84.6922 33.5122Z" fill="#A2BADD"/>
<path d="M99.9906 33.5122C99.9896 33.9579 99.8559 34.3932 99.6079 34.7633C99.3599 35.1334 99.0083 35.4216 98.5956 35.5915C98.1839 35.7614 97.7315 35.8054 97.2946 35.7179C96.8577 35.6304 96.4566 35.4154 96.1418 35.1C95.8269 34.7846 95.6129 34.3829 95.5266 33.9459C95.4394 33.5087 95.485 33.0557 95.6555 32.6441C95.826 32.2325 96.1147 31.8807 96.4857 31.6333C96.8557 31.3858 97.2917 31.2537 97.7363 31.2537C98.0328 31.2539 98.3263 31.3124 98.6005 31.426C98.8736 31.5396 99.1226 31.706 99.3319 31.9158C99.5411 32.1256 99.7068 32.3745 99.8201 32.6484C99.9325 32.9223 99.9906 33.2159 99.9906 33.5122Z" fill="#A2BADD"/>
<path d="M115.286 33.5122C115.285 33.958 115.153 34.3934 114.904 34.7635C114.656 35.1337 114.303 35.4219 113.891 35.5917C113.48 35.7616 113.026 35.8054 112.589 35.7177C112.152 35.6301 111.751 35.4148 111.436 35.0992C111.123 34.7836 110.908 34.3817 110.822 33.9444C110.735 33.5071 110.781 33.0541 110.952 32.6426C111.123 32.231 111.412 31.8793 111.782 31.6321C112.153 31.3849 112.589 31.2533 113.035 31.2537C113.331 31.2541 113.624 31.3128 113.897 31.4267C114.17 31.5404 114.419 31.7068 114.628 31.9165C114.837 32.1264 115.002 32.3751 115.116 32.649C115.228 32.9227 115.286 33.216 115.286 33.5122Z" fill="#A2BADD"/>
<path d="M130.587 33.5122C130.586 33.9579 130.453 34.3932 130.204 34.7633C129.956 35.1334 129.604 35.4216 129.193 35.5915C128.78 35.7614 128.328 35.8054 127.891 35.7179C127.454 35.6304 127.053 35.4154 126.738 35.1C126.423 34.7846 126.209 34.3829 126.123 33.9459C126.036 33.5087 126.081 33.0557 126.252 32.6441C126.422 32.2325 126.711 31.8807 127.082 31.6333C127.452 31.3858 127.888 31.2537 128.333 31.2537C128.629 31.2539 128.922 31.3124 129.197 31.426C129.47 31.5396 129.719 31.706 129.928 31.9158C130.137 32.1256 130.303 32.3745 130.416 32.6484C130.529 32.9223 130.587 33.2159 130.587 33.5122Z" fill="#A2BADD"/>
<path d="M145.883 33.5122C145.882 33.9579 145.75 34.3933 145.502 34.7633C145.253 35.1335 144.901 35.4217 144.489 35.5916C144.077 35.7615 143.624 35.8054 143.187 35.7178C142.75 35.6302 142.349 35.4151 142.034 35.0996C141.72 34.7841 141.505 34.3823 141.419 33.9451C141.333 33.5079 141.378 33.055 141.549 32.6434C141.72 32.2318 142.008 31.88 142.379 31.6327C142.749 31.3854 143.185 31.2535 143.631 31.2537C143.927 31.2539 144.221 31.3124 144.494 31.426C144.767 31.5396 145.016 31.7061 145.225 31.9159C145.435 32.1256 145.6 32.3746 145.713 32.6485C145.826 32.9224 145.884 33.2159 145.883 33.5122Z" fill="#A2BADD"/>
<path d="M161.182 33.5123C161.182 33.9582 161.049 34.3939 160.802 34.7646C160.554 35.1352 160.202 35.4242 159.791 35.5948C159.379 35.7654 158.926 35.81 158.489 35.723C158.051 35.6361 157.65 35.4214 157.335 35.1062C157.019 34.791 156.805 34.3893 156.718 33.9521C156.631 33.5148 156.675 33.0616 156.846 32.6497C157.016 32.2379 157.306 31.8858 157.676 31.6381C158.047 31.3904 158.482 31.2583 158.928 31.2583C159.525 31.2583 160.099 31.4957 160.521 31.9185C160.944 32.3412 161.182 32.9145 161.182 33.5123Z" fill="#A2BADD"/>
<path d="M176.478 33.5123C176.478 33.9582 176.346 34.3939 176.098 34.7646C175.851 35.1352 175.499 35.4242 175.087 35.5948C174.675 35.7654 174.222 35.81 173.785 35.723C173.348 35.6361 172.947 35.4214 172.631 35.1062C172.316 34.791 172.101 34.3893 172.015 33.9521C171.928 33.5148 171.973 33.0616 172.143 32.6497C172.314 32.2379 172.602 31.8858 172.973 31.6381C173.343 31.3904 173.779 31.2583 174.225 31.2583C174.823 31.2583 175.396 31.4957 175.819 31.9185C176.241 32.3412 176.478 32.9145 176.478 33.5123Z" fill="#A2BADD"/>
<path d="M84.6922 48.8143C84.6919 49.2598 84.5597 49.6953 84.3122 50.0651C84.0645 50.4361 83.7128 50.7248 83.3013 50.8953C82.8897 51.0648 82.4369 51.1094 82.0001 51.0232C81.5633 50.936 81.1622 50.7209 80.8472 50.4061C80.5323 50.0913 80.3178 49.6899 80.2308 49.253C80.1439 48.8161 80.1884 48.3632 80.3588 47.9515C80.5291 47.5399 80.8176 47.1881 81.1878 46.9404C81.558 46.6928 81.9934 46.5605 82.4387 46.5603C82.7346 46.5601 83.0278 46.6183 83.3013 46.7316C83.5747 46.8448 83.8232 47.0108 84.0325 47.2202C84.2417 47.4295 84.4078 47.6781 84.5209 47.9515C84.6342 48.2251 84.6923 48.5183 84.6922 48.8143Z" fill="#A2BADD"/>
<path d="M99.9906 48.8144C99.9906 49.2602 99.8579 49.696 99.6109 50.0671C99.3629 50.4371 99.0112 50.7258 98.5995 50.8973C98.1878 51.0677 97.7344 51.1123 97.2975 51.0251C96.8596 50.9379 96.4586 50.7239 96.1437 50.4081C95.8279 50.0932 95.6138 49.6913 95.5266 49.2541C95.4395 48.8169 95.484 48.3636 95.6545 47.9517C95.825 47.5399 96.1147 47.1878 96.4847 46.9401C96.8558 46.6925 97.2907 46.5603 97.7364 46.5603C98.3341 46.5603 98.9076 46.7977 99.33 47.2205C99.7533 47.6432 99.9906 48.2166 99.9906 48.8144Z" fill="#A2BADD"/>
<path d="M115.286 48.8144C115.286 49.2602 115.154 49.696 114.907 50.0671C114.659 50.4371 114.307 50.7258 113.895 50.8973C113.483 51.0677 113.03 51.1123 112.593 51.0251C112.156 50.9379 111.754 50.7239 111.439 50.4081C111.124 50.0932 110.909 49.6913 110.822 49.2541C110.735 48.8169 110.781 48.3636 110.951 47.9517C111.122 47.5399 111.41 47.1878 111.78 46.9401C112.151 46.6925 112.587 46.5603 113.033 46.5603C113.631 46.5603 114.203 46.7977 114.626 47.2205C115.049 47.6432 115.286 48.2166 115.286 48.8144Z" fill="#A2BADD"/>
<path d="M130.587 48.8144C130.587 49.2602 130.454 49.696 130.207 50.0671C129.959 50.4371 129.607 50.7258 129.196 50.8973C128.784 51.0677 128.33 51.1123 127.894 51.0251C127.457 50.9379 127.055 50.7239 126.74 50.4081C126.424 50.0932 126.21 49.6913 126.123 49.2541C126.035 48.8169 126.08 48.3636 126.252 47.9517C126.422 47.5399 126.711 47.1878 127.081 46.9401C127.452 46.6925 127.888 46.5603 128.333 46.5603C128.629 46.5603 128.922 46.6186 129.196 46.7319C129.469 46.8452 129.717 47.0112 129.926 47.2205C130.135 47.4298 130.302 47.6783 130.415 47.9517C130.529 48.2252 130.587 48.5183 130.587 48.8144Z" fill="#A2BADD"/>
<path d="M145.883 48.8144C145.883 49.2602 145.752 49.6961 145.504 50.0671C145.256 50.4371 144.904 50.7268 144.492 50.8973C144.08 51.0677 143.627 51.1123 143.19 51.0251C142.752 50.9379 142.351 50.7229 142.036 50.4081C141.721 50.0923 141.506 49.6907 141.419 49.2534C141.333 48.8161 141.378 48.3629 141.548 47.951C141.719 47.5391 142.008 47.1871 142.378 46.9396C142.749 46.692 143.185 46.5601 143.631 46.5603C143.926 46.5603 144.22 46.6186 144.493 46.7319C144.766 46.8452 145.015 47.0112 145.224 47.2206C145.433 47.4299 145.599 47.6784 145.712 47.9518C145.825 48.2253 145.883 48.5184 145.883 48.8144Z" fill="#A2BADD"/>
<path d="M161.182 48.8144C161.182 49.2602 161.049 49.696 160.802 50.0671C160.554 50.4371 160.202 50.7258 159.791 50.8973C159.379 51.0677 158.926 51.1123 158.489 51.0251C158.051 50.9379 157.65 50.7239 157.335 50.4081C157.019 50.0932 156.805 49.6913 156.718 49.2541C156.631 48.8169 156.675 48.3636 156.846 47.9517C157.016 47.5399 157.306 47.1878 157.676 46.9401C158.047 46.6925 158.482 46.5603 158.928 46.5603C159.224 46.5601 159.517 46.6183 159.791 46.7316C160.064 46.8448 160.313 47.0108 160.522 47.2202C160.731 47.4295 160.897 47.6781 161.01 47.9515C161.124 48.2251 161.182 48.5183 161.182 48.8144Z" fill="#A2BADD"/>
<path d="M176.478 48.8144C176.478 49.2602 176.346 49.696 176.098 50.0671C175.851 50.4371 175.499 50.7258 175.087 50.8973C174.675 51.0677 174.222 51.1123 173.785 51.0251C173.348 50.9379 172.947 50.7239 172.631 50.4081C172.316 50.0932 172.101 49.6913 172.015 49.2541C171.928 48.8169 171.973 48.3636 172.143 47.9517C172.314 47.5399 172.602 47.1878 172.973 46.9401C173.343 46.6925 173.779 46.5603 174.225 46.5603C174.521 46.5601 174.814 46.6183 175.087 46.7316C175.361 46.8448 175.609 47.0108 175.819 47.2202C176.028 47.4295 176.194 47.6781 176.307 47.9515C176.42 48.2251 176.478 48.5183 176.478 48.8144Z" fill="#A2BADD"/>
<path d="M84.6922 64.1152C84.6922 64.5608 84.56 64.9967 84.3126 65.3667C84.0652 65.7377 83.7135 66.0264 83.302 66.1969C82.8905 66.3674 82.4377 66.4119 82.0008 66.3248C81.564 66.2385 81.1626 66.0235 80.8476 65.7087C80.5326 65.3938 80.318 64.9928 80.2309 64.5559C80.1439 64.119 80.1884 63.6657 80.3586 63.254C80.5289 62.8423 80.8175 62.4906 81.1876 62.2427C81.5579 61.9947 81.9932 61.8629 82.4387 61.8629C82.7345 61.862 83.0276 61.9201 83.301 62.0334C83.5743 62.1468 83.8228 62.3124 84.0321 62.5216C84.2413 62.7309 84.4074 62.9798 84.5206 63.253C84.6339 63.5262 84.6922 63.8197 84.6922 64.1152Z" fill="#A2BADD"/>
<path d="M97.7363 66.3703C98.9812 66.3703 99.9906 65.3619 99.9906 64.1161C99.9906 62.8713 98.9812 61.8629 97.7363 61.8629C96.4925 61.8629 95.483 62.8713 95.483 64.1161C95.483 65.3619 96.4925 66.3703 97.7363 66.3703Z" fill="#A2BADD"/>
<path d="M115.286 64.1151C115.286 64.5617 115.154 64.9976 114.906 65.3677C114.659 65.7387 114.308 66.0283 113.896 66.1988C113.484 66.3693 113.031 66.4139 112.594 66.3276C112.156 66.2405 111.755 66.0264 111.439 65.7106C111.124 65.3958 110.909 64.9938 110.822 64.5569C110.735 64.119 110.78 63.6657 110.95 63.254C111.121 62.8423 111.41 62.4897 111.78 62.2427C112.151 61.9947 112.587 61.8629 113.033 61.8629C113.63 61.8629 114.203 62.1002 114.626 62.5226C115.048 62.945 115.285 63.5175 115.286 64.1151Z" fill="#A2BADD"/>
<path d="M130.587 64.1151C130.587 64.5617 130.455 64.9976 130.207 65.3677C129.96 65.7387 129.608 66.0283 129.197 66.1988C128.785 66.3693 128.331 66.4139 127.894 66.3276C127.457 66.2405 127.056 66.0264 126.74 65.7106C126.425 65.3958 126.21 64.9938 126.123 64.5569C126.036 64.119 126.08 63.6657 126.251 63.254C126.421 62.8423 126.711 62.4897 127.081 62.2427C127.452 61.9947 127.887 61.8629 128.333 61.8629C128.93 61.8629 129.504 62.1002 129.926 62.5226C130.348 62.945 130.586 63.5175 130.587 64.1151Z" fill="#A2BADD"/>
<path d="M143.631 66.3703C144.876 66.3703 145.884 65.3619 145.884 64.1161C145.884 62.8713 144.876 61.8629 143.631 61.8629C142.387 61.8629 141.378 62.8713 141.378 64.1161C141.378 65.3619 142.387 66.3703 143.631 66.3703Z" fill="#A2BADD"/>
<path d="M161.182 64.1152C161.182 64.5617 161.05 64.9976 160.802 65.3677C160.555 65.7387 160.203 66.0283 159.792 66.1988C159.38 66.3693 158.927 66.4139 158.49 66.3277C158.052 66.2405 157.651 66.0264 157.335 65.7106C157.02 65.3958 156.805 64.9938 156.718 64.5569C156.631 64.119 156.675 63.6657 156.846 63.254C157.016 62.8423 157.306 62.4897 157.676 62.2427C158.047 61.9947 158.482 61.8629 158.928 61.8629C159.224 61.862 159.517 61.9201 159.791 62.0334C160.064 62.1468 160.312 62.3124 160.521 62.5216C160.73 62.7309 160.897 62.9798 161.01 63.253C161.124 63.5262 161.182 63.8197 161.182 64.1152Z" fill="#A2BADD"/>
<path d="M176.478 64.1152C176.478 64.5617 176.346 64.9976 176.099 65.3677C175.851 65.7387 175.5 66.0283 175.088 66.1988C174.676 66.3693 174.223 66.4139 173.786 66.3277C173.349 66.2405 172.947 66.0264 172.632 65.7106C172.316 65.3958 172.102 64.9938 172.015 64.5569C171.928 64.119 171.973 63.6657 172.143 63.254C172.314 62.8423 172.602 62.4897 172.973 62.2427C173.343 61.9947 173.779 61.8629 174.225 61.8629C174.52 61.862 174.814 61.9201 175.087 62.0334C175.36 62.1468 175.609 62.3124 175.819 62.5216C176.028 62.7309 176.193 62.9798 176.307 63.253C176.42 63.5262 176.478 63.8197 176.478 64.1152Z" fill="#A2BADD"/>
<path d="M1300 259.375C1300 259.774 1299.88 260.165 1299.66 260.496C1299.44 260.827 1299.13 261.086 1298.76 261.239C1298.39 261.391 1297.98 261.432 1297.6 261.353C1297.2 261.276 1296.84 261.084 1296.56 260.801C1296.28 260.519 1296.08 260.16 1296.01 259.769C1295.93 259.377 1295.97 258.972 1296.12 258.603C1296.28 258.235 1296.53 257.92 1296.87 257.698C1297.2 257.477 1297.59 257.358 1297.98 257.358C1298.52 257.358 1299.03 257.571 1299.41 257.949C1299.79 258.327 1300 258.84 1300 259.375Z" fill="#A2BADD"/>
<path d="M1311.67 261.392C1312.79 261.392 1313.69 260.489 1313.69 259.375C1313.69 258.261 1312.79 257.358 1311.67 257.358C1310.56 257.358 1309.66 258.261 1309.66 259.375C1309.66 260.489 1310.56 261.392 1311.67 261.392Z" fill="#A2BADD"/>
<path d="M1327.38 259.375C1327.38 259.774 1327.26 260.165 1327.04 260.496C1326.81 260.828 1326.5 261.086 1326.14 261.239C1325.77 261.392 1325.36 261.432 1324.97 261.353C1324.58 261.276 1324.22 261.083 1323.94 260.801C1323.66 260.519 1323.46 260.16 1323.38 259.769C1323.31 259.377 1323.35 258.971 1323.5 258.603C1323.66 258.234 1323.91 257.919 1324.25 257.697C1324.58 257.477 1324.96 257.358 1325.36 257.358C1325.63 257.358 1325.89 257.411 1326.14 257.512C1326.38 257.613 1326.6 257.762 1326.78 257.949C1326.98 258.136 1327.12 258.359 1327.23 258.603C1327.33 258.848 1327.38 259.111 1327.38 259.375Z" fill="#A2BADD"/>
<path d="M1341.06 259.375C1341.06 259.774 1340.95 260.165 1340.72 260.496C1340.5 260.827 1340.19 261.086 1339.82 261.239C1339.46 261.391 1339.05 261.432 1338.66 261.353C1338.26 261.276 1337.91 261.084 1337.63 260.801C1337.34 260.519 1337.15 260.16 1337.07 259.769C1337 259.377 1337.03 258.972 1337.19 258.603C1337.34 258.235 1337.6 257.92 1337.93 257.698C1338.26 257.477 1338.65 257.358 1339.05 257.358C1339.32 257.358 1339.58 257.411 1339.82 257.511C1340.07 257.613 1340.29 257.761 1340.48 257.949C1340.67 258.136 1340.81 258.359 1340.92 258.603C1341.02 258.848 1341.06 259.111 1341.06 259.375Z" fill="#A2BADD"/>
<path d="M1352.74 261.392C1353.85 261.392 1354.76 260.489 1354.76 259.375C1354.76 258.261 1353.85 257.358 1352.74 257.358C1351.62 257.358 1350.72 258.261 1350.72 259.375C1350.72 260.489 1351.62 261.392 1352.74 261.392Z" fill="#A2BADD"/>
<path d="M1368.45 259.375C1368.45 259.774 1368.32 260.165 1368.11 260.496C1367.89 260.827 1367.57 261.086 1367.2 261.239C1366.83 261.391 1366.43 261.432 1366.04 261.353C1365.64 261.276 1365.28 261.084 1365 260.801C1364.72 260.519 1364.53 260.16 1364.45 259.769C1364.37 259.377 1364.41 258.972 1364.57 258.603C1364.72 258.235 1364.98 257.92 1365.31 257.698C1365.64 257.477 1366.03 257.358 1366.43 257.358C1366.97 257.358 1367.48 257.571 1367.86 257.949C1368.24 258.327 1368.45 258.84 1368.45 259.375Z" fill="#A2BADD"/>
<path d="M1382.14 259.375C1382.14 259.774 1382.01 260.165 1381.8 260.496C1381.58 260.827 1381.26 261.086 1380.89 261.239C1380.52 261.391 1380.11 261.432 1379.73 261.353C1379.34 261.276 1378.97 261.084 1378.69 260.801C1378.41 260.519 1378.22 260.16 1378.14 259.769C1378.06 259.377 1378.1 258.972 1378.25 258.603C1378.41 258.235 1378.67 257.92 1379 257.698C1379.33 257.477 1379.72 257.358 1380.12 257.358C1380.66 257.358 1381.17 257.571 1381.55 257.949C1381.93 258.327 1382.14 258.84 1382.14 259.375Z" fill="#A2BADD"/>
<path d="M1313.69 273.069C1313.69 273.467 1313.57 273.857 1313.35 274.189C1313.13 274.521 1312.82 274.78 1312.45 274.932C1312.08 275.085 1311.67 275.124 1311.28 275.047C1310.89 274.969 1310.53 274.777 1310.25 274.495C1309.97 274.213 1309.77 273.853 1309.7 273.462C1309.62 273.071 1309.66 272.665 1309.81 272.297C1309.97 271.928 1310.22 271.613 1310.56 271.391C1310.89 271.17 1311.27 271.051 1311.67 271.051C1312.2 271.052 1312.72 271.264 1313.1 271.643C1313.47 272.021 1313.69 272.534 1313.69 273.069Z" fill="#A2BADD"/>
<path d="M1327.38 273.069C1327.38 273.468 1327.26 273.857 1327.04 274.19C1326.81 274.521 1326.5 274.78 1326.14 274.932C1325.77 275.085 1325.36 275.124 1324.97 275.047C1324.58 274.968 1324.22 274.777 1323.94 274.495C1323.66 274.212 1323.46 273.852 1323.38 273.461C1323.31 273.07 1323.35 272.665 1323.5 272.296C1323.66 271.928 1323.91 271.613 1324.25 271.391C1324.58 271.169 1324.96 271.051 1325.36 271.051C1325.9 271.052 1326.41 271.264 1326.78 271.643C1327.16 272.021 1327.38 272.534 1327.38 273.069Z" fill="#A2BADD"/>
<path d="M1341.06 273.069C1341.06 273.467 1340.95 273.857 1340.72 274.189C1340.5 274.521 1340.19 274.78 1339.82 274.932C1339.46 275.085 1339.05 275.124 1338.66 275.047C1338.26 274.969 1337.91 274.777 1337.63 274.495C1337.34 274.213 1337.15 273.853 1337.07 273.462C1337 273.071 1337.03 272.665 1337.19 272.297C1337.34 271.928 1337.6 271.613 1337.93 271.391C1338.26 271.17 1338.65 271.051 1339.05 271.051C1339.58 271.051 1340.1 271.264 1340.47 271.642C1340.86 272.021 1341.06 272.533 1341.06 273.069Z" fill="#A2BADD"/>
<path d="M1354.76 273.069C1354.76 273.467 1354.64 273.857 1354.41 274.189C1354.2 274.521 1353.88 274.78 1353.51 274.932C1353.14 275.085 1352.74 275.124 1352.35 275.047C1351.95 274.969 1351.59 274.777 1351.31 274.495C1351.03 274.213 1350.84 273.853 1350.76 273.462C1350.68 273.071 1350.72 272.665 1350.88 272.297C1351.03 271.928 1351.29 271.613 1351.62 271.391C1351.95 271.17 1352.34 271.051 1352.74 271.051C1353.28 271.051 1353.79 271.264 1354.17 271.642C1354.55 272.021 1354.76 272.533 1354.76 273.069Z" fill="#A2BADD"/>
<path d="M1368.45 273.069C1368.45 273.467 1368.32 273.857 1368.11 274.189C1367.89 274.521 1367.57 274.78 1367.2 274.932C1366.83 275.085 1366.43 275.124 1366.04 275.047C1365.64 274.969 1365.28 274.777 1365 274.495C1364.72 274.213 1364.53 273.853 1364.45 273.462C1364.37 273.071 1364.41 272.665 1364.57 272.297C1364.72 271.928 1364.98 271.613 1365.31 271.391C1365.64 271.17 1366.03 271.051 1366.43 271.051C1366.97 271.052 1367.48 271.264 1367.86 271.643C1368.24 272.021 1368.45 272.534 1368.45 273.069Z" fill="#A2BADD"/>
<path d="M1382.14 273.069C1382.14 273.467 1382.01 273.857 1381.8 274.189C1381.58 274.521 1381.26 274.78 1380.89 274.932C1380.52 275.085 1380.11 275.124 1379.73 275.047C1379.34 274.969 1378.97 274.777 1378.69 274.495C1378.41 274.213 1378.22 273.853 1378.14 273.462C1378.06 273.071 1378.1 272.665 1378.25 272.297C1378.41 271.928 1378.67 271.613 1379 271.391C1379.33 271.17 1379.72 271.051 1380.12 271.051C1380.66 271.052 1381.17 271.264 1381.55 271.643C1381.93 272.021 1382.14 272.534 1382.14 273.069Z" fill="#A2BADD"/>
<path d="M1395.83 273.069C1395.83 273.468 1395.7 273.857 1395.49 274.19C1395.27 274.521 1394.95 274.78 1394.58 274.932C1394.21 275.085 1393.8 275.124 1393.42 275.047C1393.03 274.968 1392.66 274.777 1392.38 274.495C1392.1 274.212 1391.9 273.852 1391.83 273.461C1391.75 273.07 1391.8 272.665 1391.94 272.296C1392.1 271.928 1392.36 271.613 1392.69 271.391C1393.02 271.169 1393.41 271.051 1393.81 271.051C1394.35 271.052 1394.86 271.264 1395.24 271.643C1395.61 272.021 1395.83 272.534 1395.83 273.069Z" fill="#A2BADD"/>
<path d="M1399.28 804.501C1399.28 805.616 1398.95 806.706 1398.33 807.633C1397.71 808.56 1396.83 809.283 1395.79 809.709C1394.76 810.135 1393.63 810.247 1392.53 810.029C1391.44 809.811 1390.44 809.274 1389.65 808.486C1388.86 807.696 1388.33 806.692 1388.11 805.598C1387.89 804.504 1388 803.371 1388.43 802.34C1388.85 801.31 1389.58 800.429 1390.51 799.81C1391.43 799.19 1392.52 798.86 1393.64 798.86C1394.37 798.86 1395.11 799.006 1395.8 799.289C1396.48 799.573 1397.1 799.988 1397.62 800.512C1398.15 801.036 1398.56 801.658 1398.85 802.342C1399.13 803.027 1399.28 803.76 1399.28 804.501Z" stroke="#DFEAFC" stroke-miterlimit="10"/>
<path d="M1437.56 804.501C1437.56 805.616 1437.23 806.707 1436.61 807.635C1435.99 808.563 1435.11 809.286 1434.07 809.713C1433.05 810.14 1431.91 810.251 1430.82 810.034C1429.72 809.816 1428.72 809.279 1427.93 808.489C1427.14 807.701 1426.6 806.695 1426.39 805.602C1426.17 804.507 1426.28 803.373 1426.71 802.342C1427.14 801.311 1427.85 800.43 1428.78 799.81C1429.71 799.191 1430.8 798.86 1431.92 798.86C1433.41 798.86 1434.85 799.455 1435.9 800.512C1436.96 801.57 1437.56 803.005 1437.56 804.501Z" stroke="#DFEAFC" stroke-miterlimit="10"/>
<path d="M1475.84 804.501C1475.84 805.616 1475.51 806.707 1474.89 807.635C1474.27 808.563 1473.39 809.286 1472.36 809.713C1471.33 810.14 1470.19 810.251 1469.1 810.034C1468.01 809.816 1467 809.279 1466.21 808.489C1465.42 807.701 1464.89 806.695 1464.67 805.602C1464.45 804.507 1464.56 803.373 1464.99 802.342C1465.41 801.311 1466.14 800.43 1467.07 799.81C1467.99 799.191 1469.08 798.86 1470.2 798.86C1470.94 798.86 1471.67 799.005 1472.36 799.289C1473.05 799.572 1473.67 799.987 1474.19 800.511C1474.71 801.035 1475.13 801.657 1475.41 802.342C1475.69 803.026 1475.84 803.76 1475.84 804.501Z" stroke="#DFEAFC" stroke-miterlimit="10"/>
<path d="M1399.28 842.792C1399.28 843.908 1398.95 844.998 1398.33 845.925C1397.71 846.852 1396.83 847.575 1395.79 848.001C1394.76 848.427 1393.63 848.538 1392.53 848.32C1391.44 848.102 1390.44 847.566 1389.65 846.776C1388.86 845.988 1388.33 844.983 1388.11 843.89C1387.89 842.796 1388 841.662 1388.43 840.632C1388.85 839.601 1389.58 838.721 1390.51 838.102C1391.43 837.482 1392.52 837.151 1393.64 837.151C1394.37 837.151 1395.11 837.297 1395.8 837.58C1396.48 837.864 1397.1 838.28 1397.62 838.804C1398.15 839.327 1398.56 839.949 1398.85 840.634C1399.13 841.318 1399.28 842.052 1399.28 842.792Z" stroke="#DFEAFC" stroke-miterlimit="10"/>
<path d="M1437.56 842.792C1437.56 843.908 1437.23 844.999 1436.61 845.927C1435.99 846.854 1435.11 847.577 1434.07 848.005C1433.05 848.431 1431.91 848.543 1430.82 848.325C1429.72 848.107 1428.72 847.571 1427.93 846.781C1427.14 845.993 1426.6 844.987 1426.39 843.892C1426.17 842.799 1426.28 841.664 1426.71 840.634C1427.14 839.603 1427.85 838.722 1428.78 838.102C1429.71 837.482 1430.8 837.151 1431.92 837.151C1433.41 837.151 1434.85 837.745 1435.9 838.803C1436.96 839.862 1437.56 841.296 1437.56 842.792Z" stroke="#DFEAFC" stroke-miterlimit="10"/>
<path d="M1475.84 842.792C1475.84 843.908 1475.51 844.999 1474.89 845.927C1474.27 846.854 1473.39 847.577 1472.36 848.005C1471.33 848.431 1470.19 848.543 1469.1 848.325C1468.01 848.107 1467 847.571 1466.21 846.781C1465.42 845.993 1464.89 844.987 1464.67 843.892C1464.45 842.799 1464.56 841.664 1464.99 840.634C1465.41 839.603 1466.14 838.722 1467.07 838.102C1467.99 837.482 1469.08 837.151 1470.2 837.151C1470.94 837.151 1471.67 837.297 1472.36 837.579C1473.05 837.863 1473.67 838.279 1474.19 838.803C1474.71 839.327 1475.13 839.949 1475.41 840.633C1475.69 841.318 1475.84 842.051 1475.84 842.792Z" stroke="#DFEAFC" stroke-miterlimit="10"/>
<path d="M1.61365 701.876C2.3841 701.876 3.00869 701.25 3.00869 700.48C3.00869 699.709 2.3841 699.084 1.61365 699.084C0.8432 699.084 0.218628 699.709 0.218628 700.48C0.218628 701.25 0.8432 701.876 1.61365 701.876Z" fill="#F87F28"/>
<path d="M19.8098 701.876C20.5802 701.876 21.2048 701.25 21.2048 700.48C21.2048 699.709 20.5802 699.084 19.8098 699.084C19.0393 699.084 18.4147 699.709 18.4147 700.48C18.4147 701.25 19.0393 701.876 19.8098 701.876Z" fill="#F87F28"/>
<path d="M1.61365 719.921C2.3841 719.921 3.00869 719.296 3.00869 718.526C3.00869 717.755 2.3841 717.13 1.61365 717.13C0.8432 717.13 0.218628 717.755 0.218628 718.526C0.218628 719.296 0.8432 719.921 1.61365 719.921Z" fill="#F87F28"/>
<path d="M19.8098 719.921C20.5802 719.921 21.2048 719.296 21.2048 718.526C21.2048 717.755 20.5802 717.13 19.8098 717.13C19.0393 717.13 18.4147 717.755 18.4147 718.526C18.4147 719.296 19.0393 719.921 19.8098 719.921Z" fill="#F87F28"/>
<path d="M3.00869 736.571C3.00869 736.847 2.92683 737.117 2.77357 737.346C2.62029 737.576 2.40242 737.755 2.14751 737.861C1.8926 737.966 1.6121 737.993 1.34149 737.94C1.07089 737.886 0.822328 737.753 0.627222 737.559C0.432125 737.363 0.299261 737.114 0.245437 736.844C0.191604 736.572 0.219233 736.292 0.324817 736.037C0.430401 735.782 0.609203 735.564 0.838613 735.411C1.06802 735.257 1.33774 735.176 1.61365 735.176C1.98364 735.176 2.33847 735.323 2.60008 735.584C2.86173 735.846 3.00869 736.201 3.00869 736.571Z" fill="#F87F28"/>
<path d="M21.2041 736.571C21.2041 736.847 21.1222 737.117 20.969 737.346C20.8157 737.576 20.5978 737.755 20.3429 737.861C20.088 737.966 19.8075 737.993 19.5369 737.94C19.2663 737.886 19.0177 737.753 18.8226 737.559C18.6275 737.363 18.4947 737.114 18.4408 736.844C18.3871 736.572 18.4147 736.292 18.5203 736.037C18.6259 735.782 18.8046 735.564 19.034 735.411C19.2635 735.257 19.5332 735.176 19.8091 735.176C19.9923 735.176 20.1736 735.211 20.3429 735.282C20.5122 735.352 20.6659 735.455 20.7955 735.584C20.925 735.714 21.0278 735.868 21.0979 736.037C21.168 736.206 21.2041 736.388 21.2041 736.571Z" fill="#F87F28"/>
<path d="M3.00869 754.618C3.00849 754.894 2.92663 755.164 2.77328 755.393C2.61988 755.623 2.40196 755.802 2.14704 755.908C1.89212 756.013 1.61165 756.04 1.34109 755.986C1.07052 755.933 0.822024 755.799 0.626986 755.604C0.431957 755.409 0.299151 755.161 0.245386 754.89C0.19161 754.619 0.219278 754.338 0.324882 754.084C0.430485 753.829 0.609287 753.611 0.838687 753.457C1.06808 753.304 1.33777 753.222 1.61365 753.222C1.98369 753.222 2.33852 753.37 2.60012 753.631C2.86173 753.893 3.00869 754.248 3.00869 754.618Z" fill="#F87F28"/>
<path d="M21.2041 754.618C21.204 754.894 21.122 755.164 20.9687 755.393C20.8153 755.623 20.5974 755.802 20.3425 755.908C20.0875 756.013 19.8071 756.04 19.5365 755.986C19.2659 755.933 19.0174 755.799 18.8224 755.604C18.6274 755.409 18.4946 755.161 18.4408 754.89C18.3871 754.619 18.4147 754.338 18.5203 754.084C18.6259 753.829 18.8047 753.611 19.0341 753.457C19.2635 753.304 19.5332 753.222 19.8091 753.222C19.9923 753.222 20.1737 753.258 20.3431 753.328C20.5124 753.399 20.6661 753.501 20.7958 753.631C20.9253 753.761 21.0281 753.915 21.0981 754.084C21.1681 754.253 21.2042 754.435 21.2041 754.618Z" fill="#F87F28"/>
<path d="M35.8291 701.876C36.5995 701.876 37.2241 701.25 37.2241 700.48C37.2241 699.709 36.5995 699.084 35.8291 699.084C35.0586 699.084 34.434 699.709 34.434 700.48C34.434 701.25 35.0586 701.876 35.8291 701.876Z" fill="#F87F28"/>
<path d="M54.0252 701.876C54.7957 701.876 55.4202 701.25 55.4202 700.48C55.4202 699.709 54.7957 699.084 54.0252 699.084C53.2548 699.084 52.6301 699.709 52.6301 700.48C52.6301 701.25 53.2548 701.876 54.0252 701.876Z" fill="#F87F28"/>
<path d="M72.2213 701.876C72.9917 701.876 73.6162 701.25 73.6162 700.48C73.6162 699.709 72.9917 699.084 72.2213 699.084C71.4508 699.084 70.8262 699.709 70.8262 700.48C70.8262 701.25 71.4508 701.876 72.2213 701.876Z" fill="#F87F28"/>
<path d="M90.4174 701.876C91.1876 701.876 91.8124 701.25 91.8124 700.48C91.8124 699.709 91.1876 699.084 90.4174 699.084C89.647 699.084 89.0223 699.709 89.0223 700.48C89.0223 701.25 89.647 701.876 90.4174 701.876Z" fill="#F87F28"/>
<path d="M35.8291 719.921C36.5995 719.921 37.2241 719.296 37.2241 718.526C37.2241 717.755 36.5995 717.13 35.8291 717.13C35.0586 717.13 34.434 717.755 34.434 718.526C34.434 719.296 35.0586 719.921 35.8291 719.921Z" fill="#F87F28"/>
<path d="M54.0252 719.921C54.7957 719.921 55.4202 719.296 55.4202 718.526C55.4202 717.755 54.7957 717.13 54.0252 717.13C53.2548 717.13 52.6301 717.755 52.6301 718.526C52.6301 719.296 53.2548 719.921 54.0252 719.921Z" fill="#F87F28"/>
<path d="M72.2213 719.921C72.9917 719.921 73.6162 719.296 73.6162 718.526C73.6162 717.755 72.9917 717.13 72.2213 717.13C71.4508 717.13 70.8262 717.755 70.8262 718.526C70.8262 719.296 71.4508 719.921 72.2213 719.921Z" fill="#F87F28"/>
<path d="M90.4174 719.921C91.1876 719.921 91.8124 719.296 91.8124 718.526C91.8124 717.755 91.1876 717.13 90.4174 717.13C89.647 717.13 89.0223 717.755 89.0223 718.526C89.0223 719.296 89.647 719.921 90.4174 719.921Z" fill="#F87F28"/>
<path d="M37.2241 736.571C37.2241 736.847 37.1423 737.117 36.989 737.346C36.8357 737.576 36.6179 737.755 36.3629 737.861C36.108 737.966 35.8276 737.993 35.5569 737.94C35.2863 737.886 35.0377 737.753 34.8426 737.559C34.6475 737.363 34.5147 737.114 34.4608 736.844C34.4071 736.572 34.4347 736.292 34.5403 736.037C34.6459 735.782 34.8246 735.564 35.054 735.411C35.2834 735.257 35.5532 735.176 35.8291 735.176C36.1991 735.176 36.5539 735.323 36.8155 735.584C37.0772 735.846 37.2241 736.201 37.2241 736.571Z" fill="#F87F28"/>
<path d="M55.4202 736.571C55.4202 736.847 55.3383 737.117 55.185 737.346C55.0318 737.576 54.8139 737.755 54.5589 737.861C54.3041 737.966 54.0236 737.993 53.7529 737.94C53.4824 737.886 53.2338 737.753 53.0387 737.559C52.8436 737.363 52.7108 737.114 52.6569 736.844C52.6031 736.572 52.6307 736.292 52.7363 736.037C52.8419 735.782 53.0207 735.564 53.2501 735.411C53.4795 735.257 53.7493 735.176 54.0252 735.176C54.3951 735.176 54.75 735.323 55.0115 735.584C55.2732 735.846 55.4202 736.201 55.4202 736.571Z" fill="#F87F28"/>
<path d="M73.6163 736.571C73.6163 736.847 73.5345 737.117 73.3812 737.346C73.2279 737.576 73.0101 737.755 72.7552 737.861C72.5002 737.966 72.2198 737.993 71.9491 737.94C71.6785 737.886 71.4299 737.753 71.2348 737.559C71.0397 737.363 70.9069 737.114 70.8531 736.844C70.7993 736.572 70.8269 736.292 70.9325 736.037C71.0381 735.782 71.2168 735.564 71.4462 735.411C71.6757 735.257 71.9454 735.176 72.2213 735.176C72.5913 735.176 72.9461 735.323 73.2077 735.584C73.4694 735.846 73.6163 736.201 73.6163 736.571Z" fill="#F87F28"/>
<path d="M91.8114 736.571C91.8114 736.847 91.7301 737.117 91.577 737.346C91.423 737.576 91.206 737.755 90.9502 737.861C90.6954 737.966 90.4155 737.993 90.1442 737.94C89.8739 737.886 89.6254 737.753 89.4302 737.559C89.2352 737.363 89.1023 737.114 89.0486 736.844C88.9947 736.572 89.0223 736.292 89.1279 736.037C89.2335 735.782 89.4122 735.564 89.6417 735.411C89.8711 735.257 90.1403 735.176 90.4164 735.176C90.5995 735.176 90.7816 735.211 90.9502 735.282C91.1197 735.352 91.2738 735.455 91.4036 735.584C91.5324 735.714 91.6351 735.868 91.7058 736.037C91.7756 736.206 91.8114 736.388 91.8114 736.571Z" fill="#F87F28"/>
<path d="M37.2241 754.618C37.224 754.894 37.1421 755.164 36.9887 755.393C36.8354 755.623 36.6174 755.802 36.3625 755.908C36.1075 756.013 35.8271 756.04 35.5565 755.986C35.2859 755.933 35.0374 755.799 34.8424 755.604C34.6474 755.409 34.5146 755.161 34.4608 754.89C34.4071 754.619 34.4347 754.338 34.5403 754.084C34.6459 753.829 34.8247 753.611 35.0541 753.457C35.2835 753.304 35.5532 753.222 35.8291 753.222C36.0123 753.222 36.1938 753.258 36.3631 753.328C36.5324 753.399 36.6862 753.501 36.8158 753.631C36.9453 753.761 37.048 753.915 37.1181 754.084C37.1882 754.253 37.2242 754.435 37.2241 754.618Z" fill="#F87F28"/>
<path d="M55.4202 754.618C55.4201 754.894 55.3381 755.164 55.1847 755.393C55.0314 755.623 54.8134 755.802 54.5585 755.908C54.3036 756.013 54.0231 756.04 53.7525 755.986C53.482 755.933 53.2335 755.799 53.0385 755.604C52.8435 755.409 52.7107 755.161 52.6569 754.89C52.6031 754.619 52.6307 754.338 52.7363 754.084C52.8419 753.829 53.0208 753.611 53.2502 753.457C53.4796 753.304 53.7493 753.222 54.0252 753.222C54.2083 753.222 54.3898 753.258 54.5591 753.328C54.7285 753.399 54.8822 753.501 55.0118 753.631C55.1413 753.761 55.244 753.915 55.3142 754.084C55.3842 754.253 55.4203 754.435 55.4202 754.618Z" fill="#F87F28"/>
<path d="M73.6163 754.618C73.6162 754.894 73.5343 755.164 73.3809 755.393C73.2276 755.623 73.0096 755.802 72.7547 755.908C72.4997 756.013 72.2193 756.04 71.9487 755.986C71.6781 755.933 71.4297 755.799 71.2346 755.604C71.0396 755.409 70.9068 755.161 70.8531 754.89C70.7993 754.619 70.8269 754.338 70.9325 754.084C71.0381 753.829 71.2169 753.611 71.4463 753.457C71.6757 753.304 71.9454 753.222 72.2213 753.222C72.5914 753.222 72.9461 753.37 73.2078 753.631C73.4694 753.893 73.6163 754.248 73.6163 754.618Z" fill="#F87F28"/>
<path d="M91.8115 754.618C91.8115 754.894 91.7301 755.164 91.5761 755.393C91.423 755.623 91.205 755.802 90.9503 755.908C90.6955 756.013 90.4145 756.04 90.1443 755.986C89.8736 755.933 89.6251 755.799 89.4301 755.604C89.2351 755.409 89.1023 755.161 89.0485 754.89C88.9947 754.619 89.0223 754.338 89.1279 754.084C89.2336 753.829 89.4124 753.611 89.6418 753.457C89.8712 753.304 90.1413 753.222 90.4165 753.222C90.5996 753.222 90.7817 753.258 90.9512 753.328C91.1198 753.399 91.2738 753.501 91.4036 753.631C91.5334 753.761 91.6361 753.915 91.7059 754.084C91.7756 754.253 91.8115 754.435 91.8115 754.618Z" fill="#F87F28"/>
<path d="M35.8291 772.702C36.5995 772.702 37.2241 772.077 37.2241 771.306C37.2241 770.535 36.5995 769.91 35.8291 769.91C35.0586 769.91 34.434 770.535 34.434 771.306C34.434 772.077 35.0586 772.702 35.8291 772.702Z" fill="#F87F28"/>
<path d="M54.0252 772.702C54.7957 772.702 55.4202 772.077 55.4202 771.306C55.4202 770.535 54.7957 769.91 54.0252 769.91C53.2548 769.91 52.6301 770.535 52.6301 771.306C52.6301 772.077 53.2548 772.702 54.0252 772.702Z" fill="#F87F28"/>
<path d="M72.2213 772.702C72.9917 772.702 73.6162 772.077 73.6162 771.306C73.6162 770.535 72.9917 769.91 72.2213 769.91C71.4508 769.91 70.8262 770.535 70.8262 771.306C70.8262 772.077 71.4508 772.702 72.2213 772.702Z" fill="#F87F28"/>
<path d="M90.4174 772.702C91.1876 772.702 91.8124 772.077 91.8124 771.306C91.8124 770.535 91.1876 769.91 90.4174 769.91C89.647 769.91 89.0223 770.535 89.0223 771.306C89.0223 772.077 89.647 772.702 90.4174 772.702Z" fill="#F87F28"/>
<path d="M35.8291 790.748C36.5995 790.748 37.2241 790.123 37.2241 789.352C37.2241 788.581 36.5995 787.956 35.8291 787.956C35.0586 787.956 34.434 788.581 34.434 789.352C34.434 790.123 35.0586 790.748 35.8291 790.748Z" fill="#F87F28"/>
<path d="M54.0252 790.748C54.7957 790.748 55.4202 790.123 55.4202 789.352C55.4202 788.581 54.7957 787.956 54.0252 787.956C53.2548 787.956 52.6301 788.581 52.6301 789.352C52.6301 790.123 53.2548 790.748 54.0252 790.748Z" fill="#F87F28"/>
<path d="M72.2213 790.748C72.9917 790.748 73.6162 790.123 73.6162 789.352C73.6162 788.581 72.9917 787.956 72.2213 787.956C71.4508 787.956 70.8262 788.581 70.8262 789.352C70.8262 790.123 71.4508 790.748 72.2213 790.748Z" fill="#F87F28"/>
<path d="M90.4174 790.748C91.1876 790.748 91.8124 790.123 91.8124 789.352C91.8124 788.581 91.1876 787.956 90.4174 787.956C89.647 787.956 89.0223 788.581 89.0223 789.352C89.0223 790.123 89.647 790.748 90.4174 790.748Z" fill="#F87F28"/>
<path d="M37.224 807.398C37.224 807.674 37.1422 807.944 36.9889 808.174C36.8357 808.403 36.6178 808.581 36.3628 808.687C36.1079 808.793 35.8275 808.821 35.5568 808.766C35.2862 808.713 35.0377 808.579 34.8426 808.385C34.6475 808.189 34.5146 807.941 34.4608 807.67C34.4069 807.4 34.4346 807.119 34.5401 806.864C34.6457 806.609 34.8245 806.391 35.0539 806.237C35.2833 806.084 35.5531 806.002 35.829 806.002C36.199 806.002 36.5539 806.149 36.8154 806.411C37.0771 806.673 37.224 807.028 37.224 807.398Z" fill="#F87F28"/>
<path d="M55.4202 807.398C55.4202 807.674 55.3383 807.944 55.1851 808.174C55.0318 808.403 54.8139 808.581 54.559 808.687C54.3041 808.793 54.0236 808.821 53.753 808.766C53.4824 808.713 53.2338 808.579 53.0387 808.385C52.8436 808.189 52.7108 807.941 52.6569 807.67C52.6031 807.4 52.6308 807.119 52.7364 806.864C52.8419 806.609 53.0207 806.391 53.2501 806.237C53.4795 806.084 53.7492 806.002 54.0252 806.002C54.3952 806.002 54.7499 806.149 55.0116 806.411C55.2732 806.673 55.4202 807.028 55.4202 807.398Z" fill="#F87F28"/>
<path d="M73.6163 807.398C73.6163 807.674 73.5345 807.944 73.3812 808.174C73.228 808.403 73.0101 808.581 72.7551 808.687C72.5002 808.793 72.2198 808.821 71.9491 808.766C71.6785 808.713 71.43 808.579 71.2348 808.385C71.0397 808.189 70.9069 807.941 70.8531 807.67C70.7993 807.4 70.8269 807.119 70.9324 806.864C71.038 806.609 71.2168 806.391 71.4462 806.237C71.6756 806.084 71.9454 806.002 72.2213 806.002C72.5913 806.002 72.9462 806.149 73.2077 806.411C73.4694 806.673 73.6163 807.028 73.6163 807.398Z" fill="#F87F28"/>
<path d="M91.8115 807.398C91.8115 807.674 91.7301 807.944 91.577 808.174C91.423 808.403 91.205 808.581 90.9503 808.687C90.6955 808.793 90.4155 808.821 90.1443 808.766C89.874 808.713 89.6254 808.579 89.4303 808.385C89.2352 808.189 89.1024 807.941 89.0485 807.67C88.9947 807.4 89.0223 807.119 89.1279 806.864C89.2335 806.609 89.4123 806.391 89.6418 806.237C89.8712 806.084 90.1404 806.002 90.4165 806.002C90.5996 806.002 90.7817 806.039 90.9503 806.108C91.1198 806.178 91.2738 806.282 91.4036 806.411C91.5325 806.54 91.6352 806.694 91.7059 806.864C91.7756 807.033 91.8115 807.215 91.8115 807.398Z" fill="#F87F28"/>
<path d="M37.224 825.445C37.2238 825.721 37.142 825.991 36.9886 826.22C36.8352 826.45 36.6173 826.628 36.3624 826.734C36.1074 826.84 35.827 826.867 35.5564 826.813C35.2858 826.759 35.0374 826.626 34.8424 826.431C34.6473 826.236 34.5145 825.987 34.4608 825.717C34.4069 825.445 34.4346 825.166 34.5402 824.91C34.6458 824.655 34.8246 824.437 35.054 824.284C35.2834 824.131 35.5531 824.049 35.829 824.049C36.0122 824.049 36.1937 824.084 36.363 824.155C36.5322 824.225 36.6861 824.328 36.8156 824.457C36.9452 824.587 37.0479 824.741 37.118 824.911C37.1881 825.08 37.2241 825.261 37.224 825.445Z" fill="#F87F28"/>
<path d="M55.4202 825.445C55.42 825.721 55.3381 825.991 55.1848 826.22C55.0313 826.45 54.8135 826.628 54.5586 826.734C54.3036 826.84 54.0232 826.867 53.7526 826.813C53.482 826.759 53.2335 826.626 53.0385 826.431C52.8434 826.236 52.7107 825.987 52.6569 825.717C52.6031 825.445 52.6308 825.166 52.7364 824.91C52.842 824.655 53.0208 824.437 53.2502 824.284C53.4796 824.131 53.7493 824.049 54.0252 824.049C54.2084 824.049 54.3898 824.084 54.5592 824.155C54.7284 824.225 54.8822 824.328 55.0119 824.457C55.1414 824.587 55.2441 824.741 55.3142 824.911C55.3842 825.08 55.4203 825.261 55.4202 825.445Z" fill="#F87F28"/>
<path d="M73.6164 825.445C73.6162 825.721 73.5343 825.991 73.381 826.22C73.2276 826.45 73.0096 826.628 72.7548 826.734C72.4998 826.84 72.2193 826.867 71.9488 826.813C71.6782 826.759 71.4297 826.626 71.2347 826.431C71.0397 826.236 70.9069 825.987 70.8531 825.717C70.7992 825.445 70.8269 825.166 70.9325 824.91C71.0381 824.655 71.217 824.437 71.4464 824.284C71.6758 824.131 71.9455 824.049 72.2214 824.049C72.5914 824.049 72.9462 824.196 73.2077 824.457C73.4694 824.72 73.6164 825.074 73.6164 825.445Z" fill="#F87F28"/>
<path d="M91.8115 825.445C91.8115 825.721 91.7301 825.991 91.5761 826.22C91.423 826.45 91.205 826.628 90.9503 826.734C90.6955 826.84 90.4145 826.867 90.1443 826.813C89.8736 826.759 89.6251 826.626 89.4301 826.431C89.2351 826.236 89.1023 825.987 89.0485 825.717C88.9947 825.445 89.0223 825.166 89.1279 824.91C89.2336 824.655 89.4124 824.437 89.6418 824.284C89.8712 824.131 90.1413 824.049 90.4165 824.049C90.5996 824.049 90.7817 824.084 90.9512 824.155C91.1198 824.225 91.2738 824.328 91.4036 824.457C91.5334 824.587 91.6361 824.741 91.7059 824.911C91.7756 825.08 91.8115 825.261 91.8115 825.445Z" fill="#F87F28"/>
<path d="M1.61365 772.702C2.3841 772.702 3.00869 772.077 3.00869 771.306C3.00869 770.535 2.3841 769.91 1.61365 769.91C0.8432 769.91 0.218628 770.535 0.218628 771.306C0.218628 772.077 0.8432 772.702 1.61365 772.702Z" fill="#F87F28"/>
<path d="M19.8098 772.702C20.5802 772.702 21.2048 772.077 21.2048 771.306C21.2048 770.535 20.5802 769.91 19.8098 769.91C19.0393 769.91 18.4147 770.535 18.4147 771.306C18.4147 772.077 19.0393 772.702 19.8098 772.702Z" fill="#F87F28"/>
<path d="M1.61365 790.748C2.3841 790.748 3.00869 790.123 3.00869 789.352C3.00869 788.581 2.3841 787.956 1.61365 787.956C0.8432 787.956 0.218628 788.581 0.218628 789.352C0.218628 790.123 0.8432 790.748 1.61365 790.748Z" fill="#F87F28"/>
<path d="M19.8098 790.748C20.5802 790.748 21.2048 790.123 21.2048 789.352C21.2048 788.581 20.5802 787.956 19.8098 787.956C19.0393 787.956 18.4147 788.581 18.4147 789.352C18.4147 790.123 19.0393 790.748 19.8098 790.748Z" fill="#F87F28"/>
<path d="M3.00869 807.398C3.00869 807.674 2.92683 807.944 2.77357 808.174C2.62029 808.403 2.40242 808.581 2.14751 808.687C1.8926 808.793 1.6121 808.821 1.34149 808.766C1.07089 808.713 0.822328 808.579 0.627222 808.385C0.432125 808.189 0.299261 807.941 0.245437 807.67C0.191604 807.4 0.219233 807.119 0.324817 806.864C0.430401 806.609 0.609203 806.391 0.838613 806.237C1.06802 806.084 1.33774 806.002 1.61365 806.002C1.98364 806.002 2.33847 806.149 2.60008 806.411C2.86173 806.673 3.00869 807.028 3.00869 807.398Z" fill="#F87F28"/>
<path d="M21.2041 807.398C21.2041 807.674 21.1222 807.944 20.969 808.174C20.8157 808.403 20.5978 808.581 20.3429 808.687C20.088 808.793 19.8075 808.821 19.5369 808.766C19.2663 808.713 19.0177 808.579 18.8226 808.385C18.6275 808.189 18.4947 807.941 18.4408 807.67C18.3871 807.4 18.4147 807.119 18.5203 806.864C18.6259 806.609 18.8046 806.391 19.034 806.237C19.2635 806.084 19.5332 806.002 19.8091 806.002C19.9923 806.002 20.1736 806.039 20.3429 806.108C20.5122 806.178 20.6659 806.282 20.7955 806.411C20.925 806.54 21.0278 806.694 21.0979 806.864C21.168 807.033 21.2041 807.215 21.2041 807.398Z" fill="#F87F28"/>
<path d="M3.00869 825.445C3.00849 825.721 2.92663 825.991 2.77328 826.22C2.61988 826.45 2.40196 826.628 2.14704 826.734C1.89212 826.84 1.61165 826.867 1.34109 826.813C1.07052 826.759 0.822024 826.626 0.626986 826.431C0.431957 826.236 0.299151 825.987 0.245386 825.717C0.19161 825.445 0.219278 825.166 0.324882 824.91C0.430485 824.655 0.609287 824.437 0.838687 824.284C1.06808 824.131 1.33777 824.049 1.61365 824.049C1.98369 824.049 2.33852 824.196 2.60012 824.457C2.86173 824.72 3.00869 825.074 3.00869 825.445Z" fill="#F87F28"/>
<path d="M21.2041 825.445C21.204 825.721 21.122 825.991 20.9687 826.22C20.8153 826.45 20.5974 826.628 20.3425 826.734C20.0875 826.84 19.8071 826.867 19.5365 826.813C19.2659 826.759 19.0174 826.626 18.8224 826.431C18.6274 826.236 18.4946 825.987 18.4408 825.717C18.3871 825.445 18.4147 825.166 18.5203 824.91C18.6259 824.655 18.8047 824.437 19.0341 824.284C19.2635 824.131 19.5332 824.049 19.8091 824.049C19.9923 824.049 20.1737 824.084 20.3431 824.155C20.5124 824.225 20.6661 824.328 20.7958 824.457C20.9253 824.587 21.0281 824.741 21.0981 824.911C21.1681 825.08 21.2042 825.261 21.2041 825.445Z" fill="#F87F28"/>
<path d="M1.61365 843.528C2.3841 843.528 3.00869 842.903 3.00869 842.133C3.00869 841.362 2.3841 840.737 1.61365 840.737C0.8432 840.737 0.218628 841.362 0.218628 842.133C0.218628 842.903 0.8432 843.528 1.61365 843.528Z" fill="#F87F28"/>
<path d="M19.8098 843.528C20.5802 843.528 21.2048 842.903 21.2048 842.133C21.2048 841.362 20.5802 840.737 19.8098 840.737C19.0393 840.737 18.4147 841.362 18.4147 842.133C18.4147 842.903 19.0393 843.528 19.8098 843.528Z" fill="#F87F28"/>
<path d="M1.61365 861.574C2.3841 861.574 3.00869 860.949 3.00869 860.179C3.00869 859.408 2.3841 858.783 1.61365 858.783C0.8432 858.783 0.218628 859.408 0.218628 860.179C0.218628 860.949 0.8432 861.574 1.61365 861.574Z" fill="#F87F28"/>
<path d="M19.8098 861.574C20.5802 861.574 21.2048 860.949 21.2048 860.179C21.2048 859.408 20.5802 858.783 19.8098 858.783C19.0393 858.783 18.4147 859.408 18.4147 860.179C18.4147 860.949 19.0393 861.574 19.8098 861.574Z" fill="#F87F28"/>
<path d="M35.8291 843.528C36.5995 843.528 37.2241 842.903 37.2241 842.133C37.2241 841.362 36.5995 840.737 35.8291 840.737C35.0586 840.737 34.434 841.362 34.434 842.133C34.434 842.903 35.0586 843.528 35.8291 843.528Z" fill="#F87F28"/>
<path d="M54.0252 843.528C54.7957 843.528 55.4202 842.903 55.4202 842.133C55.4202 841.362 54.7957 840.737 54.0252 840.737C53.2548 840.737 52.6301 841.362 52.6301 842.133C52.6301 842.903 53.2548 843.528 54.0252 843.528Z" fill="#F87F28"/>
<path d="M72.2213 843.528C72.9917 843.528 73.6162 842.903 73.6162 842.133C73.6162 841.362 72.9917 840.737 72.2213 840.737C71.4508 840.737 70.8262 841.362 70.8262 842.133C70.8262 842.903 71.4508 843.528 72.2213 843.528Z" fill="#F87F28"/>
<path d="M90.4174 843.528C91.1876 843.528 91.8124 842.903 91.8124 842.133C91.8124 841.362 91.1876 840.737 90.4174 840.737C89.647 840.737 89.0223 841.362 89.0223 842.133C89.0223 842.903 89.647 843.528 90.4174 843.528Z" fill="#F87F28"/>
<path d="M35.8291 861.574C36.5995 861.574 37.2241 860.949 37.2241 860.179C37.2241 859.408 36.5995 858.783 35.8291 858.783C35.0586 858.783 34.434 859.408 34.434 860.179C34.434 860.949 35.0586 861.574 35.8291 861.574Z" fill="#F87F28"/>
<path d="M54.0252 861.574C54.7957 861.574 55.4202 860.949 55.4202 860.179C55.4202 859.408 54.7957 858.783 54.0252 858.783C53.2548 858.783 52.6301 859.408 52.6301 860.179C52.6301 860.949 53.2548 861.574 54.0252 861.574Z" fill="#F87F28"/>
<path d="M72.2213 861.574C72.9917 861.574 73.6162 860.949 73.6162 860.179C73.6162 859.408 72.9917 858.783 72.2213 858.783C71.4508 858.783 70.8262 859.408 70.8262 860.179C70.8262 860.949 71.4508 861.574 72.2213 861.574Z" fill="#F87F28"/>
<path d="M90.4174 861.574C91.1876 861.574 91.8124 860.949 91.8124 860.179C91.8124 859.408 91.1876 858.783 90.4174 858.783C89.647 858.783 89.0223 859.408 89.0223 860.179C89.0223 860.949 89.647 861.574 90.4174 861.574Z" fill="#F87F28"/>
<path d="M1782.14 261.444C1783.27 261.444 1784.18 260.53 1784.18 259.401C1784.18 258.273 1783.27 257.358 1782.14 257.358C1781.01 257.358 1780.1 258.273 1780.1 259.401C1780.1 260.53 1781.01 261.444 1782.14 261.444Z" fill="#4181E0" fill-opacity="0.34"/>
<path d="M1808.79 261.444C1809.92 261.444 1810.83 260.53 1810.83 259.401C1810.83 258.273 1809.92 257.358 1808.79 257.358C1807.66 257.358 1806.74 258.273 1806.74 259.401C1806.74 260.53 1807.66 261.444 1808.79 261.444Z" fill="#4181E0" fill-opacity="0.34"/>
<path d="M1835.44 261.444C1836.57 261.444 1837.48 260.53 1837.48 259.401C1837.48 258.273 1836.57 257.358 1835.44 257.358C1834.31 257.358 1833.39 258.273 1833.39 259.401C1833.39 260.53 1834.31 261.444 1835.44 261.444Z" fill="#4181E0" fill-opacity="0.34"/>
<path d="M1782.14 287.86C1783.27 287.86 1784.18 286.945 1784.18 285.817C1784.18 284.688 1783.27 283.774 1782.14 283.774C1781.01 283.774 1780.1 284.688 1780.1 285.817C1780.1 286.945 1781.01 287.86 1782.14 287.86Z" fill="#4181E0" fill-opacity="0.34"/>
<path d="M1808.79 287.86C1809.92 287.86 1810.83 286.945 1810.83 285.817C1810.83 284.688 1809.92 283.774 1808.79 283.774C1807.66 283.774 1806.74 284.688 1806.74 285.817C1806.74 286.945 1807.66 287.86 1808.79 287.86Z" fill="#4181E0" fill-opacity="0.34"/>
<path d="M1835.44 287.86C1836.57 287.86 1837.48 286.945 1837.48 285.817C1837.48 284.688 1836.57 283.774 1835.44 283.774C1834.31 283.774 1833.39 284.688 1833.39 285.817C1833.39 286.945 1834.31 287.86 1835.44 287.86Z" fill="#4181E0" fill-opacity="0.34"/>
<path d="M1784.18 312.232C1784.18 312.636 1784.06 313.031 1783.84 313.367C1783.62 313.704 1783.3 313.965 1782.92 314.119C1782.55 314.274 1782.14 314.315 1781.74 314.235C1781.34 314.157 1780.98 313.962 1780.69 313.677C1780.41 313.391 1780.22 313.028 1780.14 312.63C1780.05 312.234 1780.1 311.823 1780.26 311.45C1780.41 311.078 1780.67 310.758 1781 310.533C1781.34 310.309 1781.74 310.189 1782.14 310.189C1782.68 310.189 1783.2 310.404 1783.59 310.788C1783.97 311.171 1784.18 311.691 1784.18 312.232Z" fill="#4181E0" fill-opacity="0.34"/>
<path d="M1810.83 312.232C1810.83 312.636 1810.71 313.031 1810.49 313.367C1810.26 313.704 1809.95 313.965 1809.57 314.119C1809.19 314.274 1808.79 314.315 1808.39 314.235C1807.99 314.157 1807.63 313.962 1807.34 313.677C1807.06 313.391 1806.87 313.028 1806.78 312.63C1806.7 312.234 1806.74 311.823 1806.9 311.45C1807.05 311.078 1807.31 310.758 1807.65 310.533C1807.99 310.309 1808.39 310.189 1808.79 310.189C1809.33 310.189 1809.85 310.404 1810.23 310.788C1810.62 311.171 1810.83 311.691 1810.83 312.232Z" fill="#4181E0" fill-opacity="0.34"/>
<path d="M1837.48 312.232C1837.48 312.636 1837.36 313.031 1837.14 313.367C1836.91 313.704 1836.59 313.965 1836.22 314.119C1835.84 314.274 1835.44 314.315 1835.04 314.235C1834.64 314.157 1834.28 313.962 1833.99 313.677C1833.71 313.391 1833.51 313.028 1833.43 312.63C1833.35 312.234 1833.39 311.823 1833.55 311.45C1833.7 311.078 1833.96 310.758 1834.3 310.533C1834.64 310.309 1835.03 310.189 1835.44 310.189C1835.98 310.189 1836.5 310.404 1836.88 310.788C1837.27 311.171 1837.48 311.691 1837.48 312.232Z" fill="#4181E0" fill-opacity="0.34"/>
<path d="M1784.18 338.65C1784.18 339.053 1784.06 339.449 1783.84 339.784C1783.62 340.12 1783.3 340.382 1782.92 340.536C1782.55 340.691 1782.14 340.731 1781.74 340.652C1781.34 340.573 1780.98 340.379 1780.69 340.093C1780.41 339.807 1780.22 339.443 1780.14 339.047C1780.05 338.65 1780.1 338.24 1780.26 337.867C1780.41 337.493 1780.67 337.174 1781 336.949C1781.34 336.726 1781.74 336.606 1782.14 336.606C1782.41 336.606 1782.68 336.659 1782.92 336.762C1783.17 336.864 1783.4 337.014 1783.59 337.204C1783.77 337.394 1783.93 337.62 1784.03 337.868C1784.13 338.116 1784.18 338.381 1784.18 338.65Z" fill="#4181E0" fill-opacity="0.34"/>
<path d="M1810.83 338.65C1810.83 339.053 1810.71 339.449 1810.49 339.784C1810.26 340.12 1809.94 340.382 1809.57 340.536C1809.19 340.691 1808.79 340.731 1808.39 340.652C1807.99 340.573 1807.63 340.379 1807.34 340.093C1807.06 339.807 1806.87 339.443 1806.78 339.047C1806.7 338.65 1806.74 338.24 1806.9 337.867C1807.05 337.493 1807.31 337.174 1807.65 336.949C1807.99 336.726 1808.39 336.606 1808.79 336.606C1809.06 336.606 1809.32 336.659 1809.57 336.762C1809.82 336.864 1810.05 337.014 1810.23 337.204C1810.42 337.394 1810.58 337.62 1810.68 337.868C1810.78 338.116 1810.83 338.381 1810.83 338.65Z" fill="#4181E0" fill-opacity="0.34"/>
<path d="M1837.48 338.65C1837.48 339.053 1837.36 339.449 1837.14 339.784C1836.91 340.12 1836.59 340.382 1836.22 340.536C1835.84 340.691 1835.44 340.731 1835.04 340.652C1834.64 340.573 1834.28 340.379 1833.99 340.093C1833.71 339.807 1833.51 339.443 1833.43 339.047C1833.35 338.65 1833.39 338.24 1833.55 337.867C1833.7 337.493 1833.96 337.174 1834.3 336.949C1834.64 336.726 1835.03 336.606 1835.44 336.606C1835.98 336.606 1836.5 336.822 1836.88 337.204C1837.27 337.588 1837.48 338.108 1837.48 338.65Z" fill="#4181E0" fill-opacity="0.34"/>
<path d="M1678.73 261.444C1679.86 261.444 1680.78 260.53 1680.78 259.401C1680.78 258.273 1679.86 257.358 1678.73 257.358C1677.6 257.358 1676.69 258.273 1676.69 259.401C1676.69 260.53 1677.6 261.444 1678.73 261.444Z" fill="#4181E0" fill-opacity="0.34"/>
<path d="M1705.38 261.444C1706.51 261.444 1707.43 260.53 1707.43 259.401C1707.43 258.273 1706.51 257.358 1705.38 257.358C1704.25 257.358 1703.34 258.273 1703.34 259.401C1703.34 260.53 1704.25 261.444 1705.38 261.444Z" fill="#4181E0" fill-opacity="0.34"/>
<path d="M1732.03 261.444C1733.16 261.444 1734.08 260.53 1734.08 259.401C1734.08 258.273 1733.16 257.358 1732.03 257.358C1730.9 257.358 1729.99 258.273 1729.99 259.401C1729.99 260.53 1730.9 261.444 1732.03 261.444Z" fill="#4181E0" fill-opacity="0.34"/>
<path d="M1758.68 261.444C1759.81 261.444 1760.73 260.53 1760.73 259.401C1760.73 258.273 1759.81 257.358 1758.68 257.358C1757.55 257.358 1756.64 258.273 1756.64 259.401C1756.64 260.53 1757.55 261.444 1758.68 261.444Z" fill="#4181E0" fill-opacity="0.34"/>
<path d="M1678.73 287.86C1679.86 287.86 1680.78 286.945 1680.78 285.817C1680.78 284.688 1679.86 283.774 1678.73 283.774C1677.6 283.774 1676.69 284.688 1676.69 285.817C1676.69 286.945 1677.6 287.86 1678.73 287.86Z" fill="#4181E0" fill-opacity="0.34"/>
<path d="M1705.38 287.86C1706.51 287.86 1707.43 286.945 1707.43 285.817C1707.43 284.688 1706.51 283.774 1705.38 283.774C1704.25 283.774 1703.34 284.688 1703.34 285.817C1703.34 286.945 1704.25 287.86 1705.38 287.86Z" fill="#4181E0" fill-opacity="0.34"/>
<path d="M1732.03 287.86C1733.16 287.86 1734.08 286.945 1734.08 285.817C1734.08 284.688 1733.16 283.774 1732.03 283.774C1730.9 283.774 1729.99 284.688 1729.99 285.817C1729.99 286.945 1730.9 287.86 1732.03 287.86Z" fill="#4181E0" fill-opacity="0.34"/>
<path d="M1758.68 287.86C1759.81 287.86 1760.73 286.945 1760.73 285.817C1760.73 284.688 1759.81 283.774 1758.68 283.774C1757.55 283.774 1756.64 284.688 1756.64 285.817C1756.64 286.945 1757.55 287.86 1758.68 287.86Z" fill="#4181E0" fill-opacity="0.34"/>
<path d="M1680.78 312.232C1680.78 312.636 1680.65 313.031 1680.43 313.367C1680.2 313.704 1679.88 313.965 1679.52 314.119C1679.14 314.274 1678.73 314.315 1678.33 314.235C1677.94 314.157 1677.57 313.962 1677.29 313.677C1677 313.391 1676.8 313.028 1676.73 312.63C1676.65 312.234 1676.69 311.823 1676.84 311.45C1677 311.078 1677.26 310.758 1677.6 310.533C1677.93 310.309 1678.32 310.189 1678.73 310.189C1679.27 310.189 1679.79 310.404 1680.17 310.788C1680.56 311.171 1680.78 311.691 1680.78 312.232Z" fill="#4181E0" fill-opacity="0.34"/>
<path d="M1707.43 312.232C1707.43 312.636 1707.3 313.031 1707.08 313.367C1706.85 313.704 1706.53 313.965 1706.17 314.119C1705.79 314.274 1705.38 314.315 1704.98 314.235C1704.59 314.157 1704.22 313.962 1703.94 313.677C1703.65 313.391 1703.45 313.028 1703.38 312.63C1703.3 312.234 1703.34 311.823 1703.49 311.45C1703.65 311.078 1703.91 310.758 1704.25 310.533C1704.58 310.309 1704.97 310.189 1705.38 310.189C1705.92 310.189 1706.44 310.404 1706.83 310.788C1707.2 311.171 1707.43 311.691 1707.43 312.232Z" fill="#4181E0" fill-opacity="0.34"/>
<path d="M1734.08 312.232C1734.08 312.636 1733.95 313.031 1733.73 313.367C1733.5 313.704 1733.19 313.965 1732.81 314.119C1732.44 314.274 1732.02 314.315 1731.64 314.235C1731.24 314.157 1730.87 313.962 1730.59 313.677C1730.3 313.391 1730.1 313.028 1730.03 312.63C1729.95 312.234 1729.99 311.823 1730.14 311.45C1730.3 311.078 1730.56 310.758 1730.9 310.533C1731.23 310.309 1731.63 310.189 1732.03 310.189C1732.57 310.189 1733.09 310.404 1733.48 310.788C1733.85 311.171 1734.08 311.691 1734.08 312.232Z" fill="#4181E0" fill-opacity="0.34"/>
<path d="M1760.72 312.232C1760.72 312.636 1760.6 313.031 1760.38 313.367C1760.16 313.704 1759.84 313.965 1759.46 314.119C1759.09 314.274 1758.67 314.315 1758.28 314.235C1757.88 314.157 1757.52 313.962 1757.23 313.677C1756.95 313.391 1756.75 313.028 1756.68 312.63C1756.6 312.234 1756.64 311.823 1756.79 311.45C1756.95 311.078 1757.21 310.758 1757.54 310.533C1757.88 310.309 1758.28 310.189 1758.67 310.189C1758.94 310.189 1759.22 310.242 1759.46 310.345C1759.71 310.448 1759.93 310.598 1760.13 310.788C1760.31 310.978 1760.47 311.202 1760.56 311.45C1760.67 311.698 1760.72 311.964 1760.72 312.232Z" fill="#4181E0" fill-opacity="0.34"/>
<path d="M1680.78 338.65C1680.78 339.053 1680.65 339.449 1680.43 339.784C1680.2 340.12 1679.88 340.382 1679.52 340.536C1679.14 340.691 1678.73 340.731 1678.33 340.652C1677.94 340.573 1677.57 340.379 1677.29 340.093C1677 339.807 1676.8 339.443 1676.73 339.047C1676.65 338.65 1676.69 338.24 1676.84 337.867C1677 337.493 1677.26 337.174 1677.6 336.949C1677.93 336.726 1678.32 336.606 1678.73 336.606C1679 336.606 1679.26 336.659 1679.52 336.762C1679.76 336.864 1679.98 337.014 1680.17 337.204C1680.37 337.394 1680.51 337.62 1680.62 337.868C1680.72 338.116 1680.78 338.381 1680.78 338.65Z" fill="#4181E0" fill-opacity="0.34"/>
<path d="M1707.43 338.65C1707.43 339.053 1707.3 339.449 1707.08 339.784C1706.85 340.12 1706.53 340.382 1706.16 340.536C1705.79 340.691 1705.37 340.731 1704.98 340.652C1704.59 340.573 1704.22 340.379 1703.94 340.093C1703.65 339.807 1703.45 339.443 1703.38 339.047C1703.3 338.65 1703.34 338.24 1703.49 337.867C1703.65 337.493 1703.91 337.174 1704.25 336.949C1704.58 336.726 1704.97 336.606 1705.38 336.606C1705.65 336.606 1705.91 336.659 1706.17 336.762C1706.41 336.864 1706.63 337.014 1706.83 337.204C1707.02 337.394 1707.16 337.62 1707.27 337.868C1707.37 338.116 1707.43 338.381 1707.43 338.65Z" fill="#4181E0" fill-opacity="0.34"/>
<path d="M1734.08 338.65C1734.08 339.053 1733.95 339.449 1733.73 339.784C1733.5 340.12 1733.19 340.382 1732.81 340.536C1732.44 340.691 1732.02 340.731 1731.63 340.652C1731.24 340.573 1730.87 340.379 1730.59 340.093C1730.3 339.807 1730.1 339.443 1730.03 339.047C1729.95 338.65 1729.99 338.24 1730.14 337.867C1730.3 337.493 1730.56 337.174 1730.9 336.949C1731.23 336.726 1731.63 336.606 1732.03 336.606C1732.57 336.606 1733.09 336.822 1733.48 337.204C1733.85 337.588 1734.08 338.108 1734.08 338.65Z" fill="#4181E0" fill-opacity="0.34"/>
<path d="M1760.72 338.65C1760.72 339.053 1760.6 339.449 1760.38 339.784C1760.16 340.12 1759.84 340.382 1759.46 340.536C1759.09 340.691 1758.67 340.731 1758.28 340.652C1757.88 340.573 1757.52 340.379 1757.23 340.093C1756.95 339.807 1756.75 339.443 1756.68 339.047C1756.6 338.65 1756.64 338.24 1756.79 337.867C1756.95 337.493 1757.21 337.174 1757.54 336.949C1757.88 336.726 1758.28 336.606 1758.68 336.606C1758.94 336.606 1759.22 336.659 1759.46 336.762C1759.71 336.864 1759.93 337.014 1760.13 337.204C1760.31 337.394 1760.47 337.62 1760.56 337.868C1760.67 338.116 1760.72 338.381 1760.72 338.65Z" fill="#4181E0" fill-opacity="0.34"/>
<path d="M1678.73 365.12C1679.86 365.12 1680.78 364.206 1680.78 363.077C1680.78 361.949 1679.86 361.034 1678.73 361.034C1677.6 361.034 1676.69 361.949 1676.69 363.077C1676.69 364.206 1677.6 365.12 1678.73 365.12Z" fill="#4181E0" fill-opacity="0.34"/>
<path d="M1705.38 365.12C1706.51 365.12 1707.43 364.206 1707.43 363.077C1707.43 361.949 1706.51 361.034 1705.38 361.034C1704.25 361.034 1703.34 361.949 1703.34 363.077C1703.34 364.206 1704.25 365.12 1705.38 365.12Z" fill="#4181E0" fill-opacity="0.34"/>
<path d="M1732.03 365.12C1733.16 365.12 1734.08 364.206 1734.08 363.077C1734.08 361.949 1733.16 361.034 1732.03 361.034C1730.9 361.034 1729.99 361.949 1729.99 363.077C1729.99 364.206 1730.9 365.12 1732.03 365.12Z" fill="#4181E0" fill-opacity="0.34"/>
<path d="M1758.68 365.12C1759.81 365.12 1760.73 364.206 1760.73 363.077C1760.73 361.949 1759.81 361.034 1758.68 361.034C1757.55 361.034 1756.64 361.949 1756.64 363.077C1756.64 364.206 1757.55 365.12 1758.68 365.12Z" fill="#4181E0" fill-opacity="0.34"/>
<path d="M1678.73 391.535C1679.86 391.535 1680.78 390.621 1680.78 389.492C1680.78 388.364 1679.86 387.449 1678.73 387.449C1677.6 387.449 1676.69 388.364 1676.69 389.492C1676.69 390.621 1677.6 391.535 1678.73 391.535Z" fill="#4181E0" fill-opacity="0.34"/>
<path d="M1705.38 391.535C1706.51 391.535 1707.43 390.621 1707.43 389.492C1707.43 388.364 1706.51 387.449 1705.38 387.449C1704.25 387.449 1703.34 388.364 1703.34 389.492C1703.34 390.621 1704.25 391.535 1705.38 391.535Z" fill="#4181E0" fill-opacity="0.34"/>
<path d="M1732.03 391.535C1733.16 391.535 1734.08 390.621 1734.08 389.492C1734.08 388.364 1733.16 387.449 1732.03 387.449C1730.9 387.449 1729.99 388.364 1729.99 389.492C1729.99 390.621 1730.9 391.535 1732.03 391.535Z" fill="#4181E0" fill-opacity="0.34"/>
<path d="M1758.68 391.535C1759.81 391.535 1760.73 390.621 1760.73 389.492C1760.73 388.364 1759.81 387.449 1758.68 387.449C1757.55 387.449 1756.64 388.364 1756.64 389.492C1756.64 390.621 1757.55 391.535 1758.68 391.535Z" fill="#4181E0" fill-opacity="0.34"/>
<path d="M1680.78 415.908C1680.78 416.312 1680.65 416.707 1680.43 417.043C1680.2 417.379 1679.88 417.641 1679.52 417.795C1679.14 417.95 1678.73 417.991 1678.33 417.911C1677.94 417.833 1677.57 417.638 1677.29 417.352C1677 417.066 1676.8 416.703 1676.73 416.306C1676.65 415.91 1676.69 415.499 1676.84 415.126C1677 414.753 1677.26 414.434 1677.6 414.209C1677.93 413.985 1678.32 413.865 1678.73 413.865C1679.27 413.865 1679.79 414.08 1680.17 414.464C1680.56 414.846 1680.78 415.366 1680.78 415.908Z" fill="#4181E0" fill-opacity="0.34"/>
<path d="M1707.43 415.908C1707.43 416.312 1707.3 416.707 1707.08 417.043C1706.85 417.379 1706.53 417.641 1706.17 417.795C1705.79 417.95 1705.38 417.991 1704.98 417.911C1704.59 417.833 1704.22 417.638 1703.94 417.352C1703.65 417.066 1703.45 416.703 1703.38 416.306C1703.3 415.91 1703.34 415.499 1703.49 415.126C1703.65 414.753 1703.91 414.434 1704.25 414.209C1704.58 413.985 1704.97 413.865 1705.38 413.865C1705.92 413.865 1706.44 414.08 1706.83 414.464C1707.2 414.846 1707.43 415.366 1707.43 415.908Z" fill="#4181E0" fill-opacity="0.34"/>
<path d="M1734.08 415.908C1734.08 416.312 1733.95 416.707 1733.73 417.043C1733.5 417.379 1733.19 417.641 1732.81 417.795C1732.44 417.95 1732.02 417.991 1731.64 417.911C1731.24 417.833 1730.87 417.638 1730.59 417.352C1730.3 417.066 1730.1 416.703 1730.03 416.306C1729.95 415.91 1729.99 415.499 1730.14 415.126C1730.3 414.753 1730.56 414.434 1730.9 414.209C1731.23 413.985 1731.63 413.865 1732.03 413.865C1732.57 413.865 1733.09 414.08 1733.48 414.464C1733.85 414.846 1734.08 415.366 1734.08 415.908Z" fill="#4181E0" fill-opacity="0.34"/>
<path d="M1760.72 415.908C1760.72 416.312 1760.6 416.707 1760.38 417.043C1760.16 417.379 1759.84 417.641 1759.46 417.795C1759.09 417.95 1758.67 417.991 1758.28 417.911C1757.88 417.833 1757.52 417.638 1757.23 417.352C1756.95 417.066 1756.75 416.703 1756.68 416.306C1756.6 415.91 1756.64 415.499 1756.79 415.126C1756.95 414.753 1757.21 414.434 1757.54 414.209C1757.88 413.985 1758.28 413.865 1758.67 413.865C1758.94 413.865 1759.22 413.918 1759.46 414.021C1759.71 414.124 1759.93 414.274 1760.13 414.464C1760.31 414.653 1760.47 414.878 1760.56 415.126C1760.67 415.374 1760.72 415.64 1760.72 415.908Z" fill="#4181E0" fill-opacity="0.34"/>
<path d="M1680.78 442.325C1680.78 442.729 1680.65 443.124 1680.43 443.46C1680.2 443.796 1679.88 444.057 1679.52 444.212C1679.14 444.366 1678.73 444.407 1678.33 444.327C1677.94 444.249 1677.57 444.054 1677.29 443.769C1677 443.483 1676.8 443.119 1676.73 442.722C1676.65 442.326 1676.69 441.915 1676.84 441.542C1677 441.169 1677.26 440.85 1677.6 440.625C1677.93 440.401 1678.32 440.281 1678.73 440.281C1679 440.281 1679.26 440.335 1679.52 440.437C1679.76 440.54 1679.98 440.69 1680.17 440.88C1680.37 441.07 1680.51 441.295 1680.62 441.543C1680.72 441.791 1680.78 442.057 1680.78 442.325Z" fill="#4181E0" fill-opacity="0.34"/>
<path d="M1707.43 442.325C1707.43 442.729 1707.3 443.124 1707.08 443.46C1706.85 443.796 1706.53 444.057 1706.16 444.212C1705.79 444.366 1705.37 444.407 1704.98 444.327C1704.59 444.249 1704.22 444.054 1703.94 443.769C1703.65 443.483 1703.45 443.119 1703.38 442.722C1703.3 442.326 1703.34 441.915 1703.49 441.542C1703.65 441.169 1703.91 440.85 1704.25 440.625C1704.58 440.401 1704.97 440.281 1705.38 440.281C1705.65 440.281 1705.91 440.335 1706.17 440.437C1706.41 440.54 1706.63 440.69 1706.83 440.88C1707.02 441.07 1707.16 441.295 1707.27 441.543C1707.37 441.791 1707.43 442.057 1707.43 442.325Z" fill="#4181E0" fill-opacity="0.34"/>
<path d="M1734.08 442.325C1734.08 442.729 1733.95 443.124 1733.73 443.46C1733.5 443.796 1733.19 444.057 1732.81 444.212C1732.44 444.366 1732.02 444.407 1731.63 444.327C1731.24 444.249 1730.87 444.054 1730.59 443.769C1730.3 443.483 1730.1 443.119 1730.03 442.722C1729.95 442.326 1729.99 441.915 1730.14 441.542C1730.3 441.169 1730.56 440.85 1730.9 440.625C1731.23 440.401 1731.63 440.281 1732.03 440.281C1732.57 440.281 1733.09 440.497 1733.48 440.88C1733.85 441.263 1734.08 441.784 1734.08 442.325Z" fill="#4181E0" fill-opacity="0.34"/>
<path d="M1760.72 442.325C1760.72 442.729 1760.6 443.124 1760.38 443.46C1760.16 443.796 1759.84 444.057 1759.46 444.212C1759.09 444.366 1758.67 444.407 1758.28 444.327C1757.88 444.249 1757.52 444.054 1757.23 443.769C1756.95 443.483 1756.75 443.119 1756.68 442.722C1756.6 442.326 1756.64 441.915 1756.79 441.542C1756.95 441.169 1757.21 440.85 1757.54 440.625C1757.88 440.401 1758.28 440.281 1758.68 440.281C1758.94 440.281 1759.22 440.335 1759.46 440.437C1759.71 440.54 1759.93 440.69 1760.13 440.88C1760.31 441.07 1760.47 441.295 1760.56 441.543C1760.67 441.791 1760.72 442.057 1760.72 442.325Z" fill="#4181E0" fill-opacity="0.34"/>
<path d="M1782.14 365.12C1783.27 365.12 1784.18 364.206 1784.18 363.077C1784.18 361.949 1783.27 361.034 1782.14 361.034C1781.01 361.034 1780.1 361.949 1780.1 363.077C1780.1 364.206 1781.01 365.12 1782.14 365.12Z" fill="#4181E0" fill-opacity="0.34"/>
<path d="M1808.79 365.12C1809.92 365.12 1810.83 364.206 1810.83 363.077C1810.83 361.949 1809.92 361.034 1808.79 361.034C1807.66 361.034 1806.74 361.949 1806.74 363.077C1806.74 364.206 1807.66 365.12 1808.79 365.12Z" fill="#4181E0" fill-opacity="0.34"/>
<path d="M1835.44 365.12C1836.57 365.12 1837.48 364.206 1837.48 363.077C1837.48 361.949 1836.57 361.034 1835.44 361.034C1834.31 361.034 1833.39 361.949 1833.39 363.077C1833.39 364.206 1834.31 365.12 1835.44 365.12Z" fill="#4181E0" fill-opacity="0.34"/>
<path d="M1782.14 391.535C1783.27 391.535 1784.18 390.621 1784.18 389.492C1784.18 388.364 1783.27 387.449 1782.14 387.449C1781.01 387.449 1780.1 388.364 1780.1 389.492C1780.1 390.621 1781.01 391.535 1782.14 391.535Z" fill="#4181E0" fill-opacity="0.34"/>
<path d="M1808.79 391.535C1809.92 391.535 1810.83 390.621 1810.83 389.492C1810.83 388.364 1809.92 387.449 1808.79 387.449C1807.66 387.449 1806.74 388.364 1806.74 389.492C1806.74 390.621 1807.66 391.535 1808.79 391.535Z" fill="#4181E0" fill-opacity="0.34"/>
<path d="M1835.44 391.535C1836.57 391.535 1837.48 390.621 1837.48 389.492C1837.48 388.364 1836.57 387.449 1835.44 387.449C1834.31 387.449 1833.39 388.364 1833.39 389.492C1833.39 390.621 1834.31 391.535 1835.44 391.535Z" fill="#4181E0" fill-opacity="0.34"/>
<path d="M1784.18 415.908C1784.18 416.312 1784.06 416.707 1783.84 417.043C1783.62 417.379 1783.3 417.641 1782.92 417.795C1782.55 417.95 1782.14 417.991 1781.74 417.911C1781.34 417.833 1780.98 417.638 1780.69 417.352C1780.41 417.066 1780.22 416.703 1780.14 416.306C1780.05 415.91 1780.1 415.499 1780.26 415.126C1780.41 414.753 1780.67 414.434 1781 414.209C1781.34 413.985 1781.74 413.865 1782.14 413.865C1782.68 413.865 1783.2 414.08 1783.59 414.464C1783.97 414.846 1784.18 415.366 1784.18 415.908Z" fill="#4181E0" fill-opacity="0.34"/>
<path d="M1810.83 415.908C1810.83 416.312 1810.71 416.707 1810.49 417.043C1810.26 417.379 1809.95 417.641 1809.57 417.795C1809.19 417.95 1808.79 417.991 1808.39 417.911C1807.99 417.833 1807.63 417.638 1807.34 417.352C1807.06 417.066 1806.87 416.703 1806.78 416.306C1806.7 415.91 1806.74 415.499 1806.9 415.126C1807.05 414.753 1807.31 414.434 1807.65 414.209C1807.99 413.985 1808.39 413.865 1808.79 413.865C1809.33 413.865 1809.85 414.08 1810.23 414.464C1810.62 414.846 1810.83 415.366 1810.83 415.908Z" fill="#4181E0" fill-opacity="0.34"/>
<path d="M1837.48 415.908C1837.48 416.312 1837.36 416.707 1837.14 417.043C1836.91 417.379 1836.59 417.641 1836.22 417.795C1835.84 417.95 1835.44 417.991 1835.04 417.911C1834.64 417.833 1834.28 417.638 1833.99 417.352C1833.71 417.066 1833.51 416.703 1833.43 416.306C1833.35 415.91 1833.39 415.499 1833.55 415.126C1833.7 414.753 1833.96 414.434 1834.3 414.209C1834.64 413.985 1835.03 413.865 1835.44 413.865C1835.98 413.865 1836.5 414.08 1836.88 414.464C1837.27 414.846 1837.48 415.366 1837.48 415.908Z" fill="#4181E0" fill-opacity="0.34"/>
<path d="M1784.18 442.325C1784.18 442.729 1784.06 443.124 1783.84 443.46C1783.62 443.796 1783.3 444.057 1782.92 444.212C1782.55 444.366 1782.14 444.407 1781.74 444.327C1781.34 444.249 1780.98 444.054 1780.69 443.769C1780.41 443.483 1780.22 443.119 1780.14 442.722C1780.05 442.326 1780.1 441.915 1780.26 441.542C1780.41 441.169 1780.67 440.85 1781 440.625C1781.34 440.401 1781.74 440.281 1782.14 440.281C1782.41 440.281 1782.68 440.335 1782.92 440.437C1783.17 440.54 1783.4 440.69 1783.59 440.88C1783.77 441.07 1783.93 441.295 1784.03 441.543C1784.13 441.791 1784.18 442.057 1784.18 442.325Z" fill="#4181E0" fill-opacity="0.34"/>
<path d="M1810.83 442.325C1810.83 442.729 1810.71 443.124 1810.49 443.46C1810.26 443.796 1809.94 444.057 1809.57 444.212C1809.19 444.366 1808.79 444.407 1808.39 444.327C1807.99 444.249 1807.63 444.054 1807.34 443.769C1807.06 443.483 1806.87 443.119 1806.78 442.722C1806.7 442.326 1806.74 441.915 1806.9 441.542C1807.05 441.169 1807.31 440.85 1807.65 440.625C1807.99 440.401 1808.39 440.281 1808.79 440.281C1809.06 440.281 1809.32 440.335 1809.57 440.437C1809.82 440.54 1810.05 440.69 1810.23 440.88C1810.42 441.07 1810.58 441.295 1810.68 441.543C1810.78 441.791 1810.83 442.057 1810.83 442.325Z" fill="#4181E0" fill-opacity="0.34"/>
<path d="M1837.48 442.325C1837.48 442.729 1837.36 443.124 1837.14 443.46C1836.91 443.796 1836.59 444.057 1836.22 444.212C1835.84 444.366 1835.44 444.407 1835.04 444.327C1834.64 444.249 1834.28 444.054 1833.99 443.769C1833.71 443.483 1833.51 443.119 1833.43 442.722C1833.35 442.326 1833.39 441.915 1833.55 441.542C1833.7 441.169 1833.96 440.85 1834.3 440.625C1834.64 440.401 1835.03 440.281 1835.44 440.281C1835.98 440.281 1836.5 440.497 1836.88 440.88C1837.27 441.263 1837.48 441.784 1837.48 442.325Z" fill="#4181E0" fill-opacity="0.34"/>
<path d="M1678.73 468.796C1679.86 468.796 1680.78 467.881 1680.78 466.753C1680.78 465.624 1679.86 464.71 1678.73 464.71C1677.6 464.71 1676.69 465.624 1676.69 466.753C1676.69 467.881 1677.6 468.796 1678.73 468.796Z" fill="#4181E0" fill-opacity="0.34"/>
<path d="M1705.38 468.796C1706.51 468.796 1707.43 467.881 1707.43 466.753C1707.43 465.624 1706.51 464.71 1705.38 464.71C1704.25 464.71 1703.34 465.624 1703.34 466.753C1703.34 467.881 1704.25 468.796 1705.38 468.796Z" fill="#4181E0" fill-opacity="0.34"/>
<path d="M1732.03 468.796C1733.16 468.796 1734.08 467.881 1734.08 466.753C1734.08 465.624 1733.16 464.71 1732.03 464.71C1730.9 464.71 1729.99 465.624 1729.99 466.753C1729.99 467.881 1730.9 468.796 1732.03 468.796Z" fill="#4181E0" fill-opacity="0.34"/>
<path d="M1758.68 468.796C1759.81 468.796 1760.73 467.881 1760.73 466.753C1760.73 465.624 1759.81 464.71 1758.68 464.71C1757.55 464.71 1756.64 465.624 1756.64 466.753C1756.64 467.881 1757.55 468.796 1758.68 468.796Z" fill="#4181E0" fill-opacity="0.34"/>
<path d="M1678.73 495.211C1679.86 495.211 1680.78 494.297 1680.78 493.168C1680.78 492.039 1679.86 491.125 1678.73 491.125C1677.6 491.125 1676.69 492.039 1676.69 493.168C1676.69 494.297 1677.6 495.211 1678.73 495.211Z" fill="#4181E0" fill-opacity="0.34"/>
<path d="M1705.38 495.211C1706.51 495.211 1707.43 494.297 1707.43 493.168C1707.43 492.039 1706.51 491.125 1705.38 491.125C1704.25 491.125 1703.34 492.039 1703.34 493.168C1703.34 494.297 1704.25 495.211 1705.38 495.211Z" fill="#4181E0" fill-opacity="0.34"/>
<path d="M1732.03 495.211C1733.16 495.211 1734.08 494.297 1734.08 493.168C1734.08 492.039 1733.16 491.125 1732.03 491.125C1730.9 491.125 1729.99 492.039 1729.99 493.168C1729.99 494.297 1730.9 495.211 1732.03 495.211Z" fill="#4181E0" fill-opacity="0.34"/>
<path d="M1758.68 495.211C1759.81 495.211 1760.73 494.297 1760.73 493.168C1760.73 492.039 1759.81 491.125 1758.68 491.125C1757.55 491.125 1756.64 492.039 1756.64 493.168C1756.64 494.297 1757.55 495.211 1758.68 495.211Z" fill="#4181E0" fill-opacity="0.34"/>
<path d="M1680.78 519.583C1680.78 519.987 1680.65 520.383 1680.43 520.719C1680.2 521.055 1679.88 521.316 1679.52 521.47C1679.14 521.625 1678.73 521.666 1678.33 521.587C1677.94 521.508 1677.57 521.314 1677.29 521.028C1677 520.742 1676.8 520.379 1676.73 519.982C1676.65 519.585 1676.69 519.175 1676.84 518.802C1677 518.429 1677.26 518.109 1677.6 517.884C1677.93 517.661 1678.32 517.541 1678.73 517.541C1679.27 517.541 1679.79 517.756 1680.17 518.139C1680.56 518.522 1680.78 519.042 1680.78 519.583Z" fill="#4181E0" fill-opacity="0.34"/>
<path d="M1707.43 519.583C1707.43 519.987 1707.3 520.383 1707.08 520.719C1706.85 521.055 1706.53 521.316 1706.17 521.47C1705.79 521.625 1705.38 521.666 1704.98 521.587C1704.59 521.508 1704.22 521.314 1703.94 521.028C1703.65 520.742 1703.45 520.379 1703.38 519.982C1703.3 519.585 1703.34 519.175 1703.49 518.802C1703.65 518.429 1703.91 518.109 1704.25 517.884C1704.58 517.661 1704.97 517.541 1705.38 517.541C1705.92 517.541 1706.44 517.756 1706.83 518.139C1707.2 518.522 1707.43 519.042 1707.43 519.583Z" fill="#4181E0" fill-opacity="0.34"/>
<path d="M1734.08 519.583C1734.08 519.987 1733.95 520.383 1733.73 520.719C1733.5 521.055 1733.19 521.316 1732.81 521.47C1732.44 521.625 1732.02 521.666 1731.64 521.587C1731.24 521.508 1730.87 521.314 1730.59 521.028C1730.3 520.742 1730.1 520.379 1730.03 519.982C1729.95 519.585 1729.99 519.175 1730.14 518.802C1730.3 518.429 1730.56 518.109 1730.9 517.884C1731.23 517.661 1731.63 517.541 1732.03 517.541C1732.57 517.541 1733.09 517.756 1733.48 518.139C1733.85 518.522 1734.08 519.042 1734.08 519.583Z" fill="#4181E0" fill-opacity="0.34"/>
<path d="M1760.72 519.583C1760.72 519.987 1760.6 520.383 1760.38 520.719C1760.16 521.055 1759.84 521.316 1759.46 521.47C1759.09 521.625 1758.67 521.666 1758.28 521.587C1757.88 521.508 1757.52 521.314 1757.23 521.028C1756.95 520.742 1756.75 520.379 1756.68 519.982C1756.6 519.585 1756.64 519.175 1756.79 518.802C1756.95 518.429 1757.21 518.109 1757.54 517.884C1757.88 517.661 1758.28 517.541 1758.67 517.541C1758.94 517.541 1759.22 517.594 1759.46 517.696C1759.71 517.799 1759.93 517.949 1760.13 518.139C1760.31 518.329 1760.47 518.554 1760.56 518.802C1760.67 519.05 1760.72 519.315 1760.72 519.583Z" fill="#4181E0" fill-opacity="0.34"/>
<path d="M1680.78 546.001C1680.78 546.405 1680.65 546.8 1680.43 547.135C1680.2 547.471 1679.88 547.733 1679.52 547.888C1679.14 548.042 1678.73 548.083 1678.33 548.003C1677.94 547.925 1677.57 547.73 1677.29 547.444C1677 547.158 1676.8 546.794 1676.73 546.398C1676.65 546.002 1676.69 545.591 1676.84 545.218C1677 544.844 1677.26 544.526 1677.6 544.301C1677.93 544.077 1678.32 543.957 1678.73 543.957C1679 543.957 1679.26 544.01 1679.52 544.113C1679.76 544.216 1679.98 544.366 1680.17 544.556C1680.37 544.745 1680.51 544.971 1680.62 545.219C1680.72 545.467 1680.78 545.732 1680.78 546.001Z" fill="#4181E0" fill-opacity="0.34"/>
<path d="M1707.43 546.001C1707.43 546.405 1707.3 546.8 1707.08 547.135C1706.85 547.471 1706.53 547.733 1706.16 547.888C1705.79 548.042 1705.37 548.083 1704.98 548.003C1704.59 547.925 1704.22 547.73 1703.94 547.444C1703.65 547.158 1703.45 546.794 1703.38 546.398C1703.3 546.002 1703.34 545.591 1703.49 545.218C1703.65 544.844 1703.91 544.526 1704.25 544.301C1704.58 544.077 1704.97 543.957 1705.38 543.957C1705.65 543.957 1705.91 544.01 1706.17 544.113C1706.41 544.216 1706.63 544.366 1706.83 544.556C1707.02 544.745 1707.16 544.971 1707.27 545.219C1707.37 545.467 1707.43 545.732 1707.43 546.001Z" fill="#4181E0" fill-opacity="0.34"/>
<path d="M1734.08 546.001C1734.08 546.405 1733.95 546.8 1733.73 547.135C1733.5 547.471 1733.19 547.733 1732.81 547.888C1732.44 548.042 1732.02 548.083 1731.63 548.003C1731.24 547.925 1730.87 547.73 1730.59 547.444C1730.3 547.158 1730.1 546.794 1730.03 546.398C1729.95 546.002 1729.99 545.591 1730.14 545.218C1730.3 544.844 1730.56 544.526 1730.9 544.301C1731.23 544.077 1731.63 543.957 1732.03 543.957C1732.57 543.957 1733.09 544.173 1733.48 544.556C1733.85 544.939 1734.08 545.459 1734.08 546.001Z" fill="#4181E0" fill-opacity="0.34"/>
<path d="M1760.72 546.001C1760.72 546.405 1760.6 546.8 1760.38 547.135C1760.16 547.471 1759.84 547.733 1759.46 547.888C1759.09 548.042 1758.67 548.083 1758.28 548.003C1757.88 547.925 1757.52 547.73 1757.23 547.444C1756.95 547.158 1756.75 546.794 1756.68 546.398C1756.6 546.002 1756.64 545.591 1756.79 545.218C1756.95 544.844 1757.21 544.526 1757.54 544.301C1757.88 544.077 1758.28 543.957 1758.68 543.957C1758.94 543.957 1759.22 544.01 1759.46 544.113C1759.71 544.216 1759.93 544.366 1760.13 544.556C1760.31 544.745 1760.47 544.971 1760.56 545.219C1760.67 545.467 1760.72 545.732 1760.72 546.001Z" fill="#4181E0" fill-opacity="0.34"/>
<path d="M1782.14 468.796C1783.27 468.796 1784.18 467.881 1784.18 466.753C1784.18 465.624 1783.27 464.71 1782.14 464.71C1781.01 464.71 1780.1 465.624 1780.1 466.753C1780.1 467.881 1781.01 468.796 1782.14 468.796Z" fill="#4181E0" fill-opacity="0.34"/>
<path d="M1808.79 468.796C1809.92 468.796 1810.83 467.881 1810.83 466.753C1810.83 465.624 1809.92 464.71 1808.79 464.71C1807.66 464.71 1806.74 465.624 1806.74 466.753C1806.74 467.881 1807.66 468.796 1808.79 468.796Z" fill="#4181E0" fill-opacity="0.34"/>
<path d="M1835.44 468.796C1836.57 468.796 1837.48 467.881 1837.48 466.753C1837.48 465.624 1836.57 464.71 1835.44 464.71C1834.31 464.71 1833.39 465.624 1833.39 466.753C1833.39 467.881 1834.31 468.796 1835.44 468.796Z" fill="#4181E0" fill-opacity="0.34"/>
<path d="M1782.14 495.211C1783.27 495.211 1784.18 494.297 1784.18 493.168C1784.18 492.039 1783.27 491.125 1782.14 491.125C1781.01 491.125 1780.1 492.039 1780.1 493.168C1780.1 494.297 1781.01 495.211 1782.14 495.211Z" fill="#4181E0" fill-opacity="0.34"/>
<path d="M1808.79 495.211C1809.92 495.211 1810.83 494.297 1810.83 493.168C1810.83 492.039 1809.92 491.125 1808.79 491.125C1807.66 491.125 1806.74 492.039 1806.74 493.168C1806.74 494.297 1807.66 495.211 1808.79 495.211Z" fill="#4181E0" fill-opacity="0.34"/>
<path d="M1835.44 495.211C1836.57 495.211 1837.48 494.297 1837.48 493.168C1837.48 492.039 1836.57 491.125 1835.44 491.125C1834.31 491.125 1833.39 492.039 1833.39 493.168C1833.39 494.297 1834.31 495.211 1835.44 495.211Z" fill="#4181E0" fill-opacity="0.34"/>
<path d="M1784.18 519.583C1784.18 519.987 1784.06 520.383 1783.84 520.719C1783.62 521.055 1783.3 521.316 1782.92 521.47C1782.55 521.625 1782.14 521.666 1781.74 521.587C1781.34 521.508 1780.98 521.314 1780.69 521.028C1780.41 520.742 1780.22 520.379 1780.14 519.982C1780.05 519.585 1780.1 519.175 1780.26 518.802C1780.41 518.429 1780.67 518.109 1781 517.884C1781.34 517.661 1781.74 517.541 1782.14 517.541C1782.68 517.541 1783.2 517.756 1783.59 518.139C1783.97 518.522 1784.18 519.042 1784.18 519.583Z" fill="#4181E0" fill-opacity="0.34"/>
<path d="M1810.83 519.583C1810.83 519.987 1810.71 520.383 1810.49 520.719C1810.26 521.055 1809.95 521.316 1809.57 521.47C1809.19 521.625 1808.79 521.666 1808.39 521.587C1807.99 521.508 1807.63 521.314 1807.34 521.028C1807.06 520.742 1806.87 520.379 1806.78 519.982C1806.7 519.585 1806.74 519.175 1806.9 518.802C1807.05 518.429 1807.31 518.109 1807.65 517.884C1807.99 517.661 1808.39 517.541 1808.79 517.541C1809.33 517.541 1809.85 517.756 1810.23 518.139C1810.62 518.522 1810.83 519.042 1810.83 519.583Z" fill="#4181E0" fill-opacity="0.34"/>
<path d="M1837.48 519.583C1837.48 519.987 1837.36 520.383 1837.14 520.719C1836.91 521.055 1836.59 521.316 1836.22 521.47C1835.84 521.625 1835.44 521.666 1835.04 521.587C1834.64 521.508 1834.28 521.314 1833.99 521.028C1833.71 520.742 1833.51 520.379 1833.43 519.982C1833.35 519.585 1833.39 519.175 1833.55 518.802C1833.7 518.429 1833.96 518.109 1834.3 517.884C1834.64 517.661 1835.03 517.541 1835.44 517.541C1835.98 517.541 1836.5 517.756 1836.88 518.139C1837.27 518.522 1837.48 519.042 1837.48 519.583Z" fill="#4181E0" fill-opacity="0.34"/>
<path d="M1784.18 546.001C1784.18 546.405 1784.06 546.8 1783.84 547.135C1783.62 547.471 1783.3 547.733 1782.92 547.888C1782.55 548.042 1782.14 548.083 1781.74 548.003C1781.34 547.925 1780.98 547.73 1780.69 547.444C1780.41 547.158 1780.22 546.794 1780.14 546.398C1780.05 546.002 1780.1 545.591 1780.26 545.218C1780.41 544.844 1780.67 544.526 1781 544.301C1781.34 544.077 1781.74 543.957 1782.14 543.957C1782.41 543.957 1782.68 544.01 1782.92 544.113C1783.17 544.216 1783.4 544.366 1783.59 544.556C1783.77 544.745 1783.93 544.971 1784.03 545.219C1784.13 545.467 1784.18 545.732 1784.18 546.001Z" fill="#4181E0" fill-opacity="0.34"/>
<path d="M1810.83 546.001C1810.83 546.405 1810.71 546.8 1810.49 547.135C1810.26 547.471 1809.94 547.733 1809.57 547.888C1809.19 548.042 1808.79 548.083 1808.39 548.003C1807.99 547.925 1807.63 547.73 1807.34 547.444C1807.06 547.158 1806.87 546.794 1806.78 546.398C1806.7 546.002 1806.74 545.591 1806.9 545.218C1807.05 544.844 1807.31 544.526 1807.65 544.301C1807.99 544.077 1808.39 543.957 1808.79 543.957C1809.06 543.957 1809.32 544.01 1809.57 544.113C1809.82 544.216 1810.05 544.366 1810.23 544.556C1810.42 544.745 1810.58 544.971 1810.68 545.219C1810.78 545.467 1810.83 545.732 1810.83 546.001Z" fill="#4181E0" fill-opacity="0.34"/>
<path d="M1837.48 546.001C1837.48 546.405 1837.36 546.8 1837.14 547.135C1836.91 547.471 1836.59 547.733 1836.22 547.888C1835.84 548.042 1835.44 548.083 1835.04 548.003C1834.64 547.925 1834.28 547.73 1833.99 547.444C1833.71 547.158 1833.51 546.794 1833.43 546.398C1833.35 546.002 1833.39 545.591 1833.55 545.218C1833.7 544.844 1833.96 544.526 1834.3 544.301C1834.64 544.077 1835.03 543.957 1835.44 543.957C1835.98 543.957 1836.5 544.173 1836.88 544.556C1837.27 544.939 1837.48 545.459 1837.48 546.001Z" fill="#4181E0" fill-opacity="0.34"/>
</svg>
